<svg width="1600" height="979" viewBox="0 0 1600 979" fill="none" xmlns="http://www.w3.org/2000/svg">
<g clip-path="url(#clip0_1420_899)">
<path d="M-74 0H1673V979H-74V0Z" fill="url(#paint0_linear_1420_899)"/>
<mask id="mask0_1420_899" style="mask-type:alpha" maskUnits="userSpaceOnUse" x="27" y="0" width="1600" height="979">
<rect x="27" width="1600" height="979" fill="white"/>
</mask>
<g mask="url(#mask0_1420_899)">
</g>
<g opacity="0.05">
<path d="M430.725 352.503C426.216 353.067 421.425 353.912 416.916 349.403C412.689 345.176 413.253 340.104 413.816 335.595C414.38 331.086 414.944 328.268 412.407 325.732C409.871 323.195 406.771 323.477 402.544 324.323C398.036 324.886 393.245 325.732 389.018 321.505C388.172 318.405 387.045 315.023 386.2 311.923C389.018 322.632 393.245 333.059 398.599 342.922C397.472 340.667 396.063 338.131 394.936 335.877C396.627 336.44 398.036 337.286 399.726 338.976C403.39 342.64 403.39 346.585 402.826 350.53C401.135 348.276 400.008 346.021 398.881 343.767C403.672 352.503 409.871 360.957 416.634 368.847C415.225 367.438 414.38 366.029 413.253 364.902C413.535 364.62 413.816 364.902 414.098 364.62C418.607 364.057 423.398 363.211 427.907 367.72L440.869 354.757C437.77 351.658 435.233 351.939 430.725 352.503Z" fill="#DBE4FE"/>
<path d="M416.352 368.565C418.043 370.256 419.734 371.947 421.425 373.638L424.525 370.538C422.27 368.284 419.734 368.002 416.352 368.565Z" fill="#DBE4FE"/>
<path d="M381.409 280.079C381.409 278.389 381.409 276.698 381.409 275.007C381.127 276.98 381.127 278.67 381.409 280.079Z" fill="#DBE4FE"/>
<path d="M462.85 320.377C458.341 320.941 453.55 321.786 449.042 317.278C444.815 313.05 445.378 307.978 445.942 303.469C446.505 298.96 447.069 296.142 444.533 293.606C441.997 291.07 438.897 291.352 434.67 292.197C430.161 292.761 425.37 293.606 420.861 289.097C418.043 286.279 417.48 283.461 417.48 280.643C417.48 278.952 417.762 276.98 418.043 275.571C418.607 271.062 419.171 268.244 416.634 265.708C414.098 263.171 410.998 263.453 406.771 264.299C402.262 264.862 397.472 265.708 392.963 261.199C388.736 256.972 389.299 251.899 389.863 247.391C390.427 242.882 390.99 240.064 388.454 237.527C388.172 237.246 387.89 236.964 387.609 236.682C387.609 236.118 388.172 235.555 388.172 234.991C383.945 248.236 381.691 261.762 381.691 275.289C383.382 276.416 385.636 276.416 388.454 275.853C389.018 275.853 389.581 275.853 389.863 275.571C394.372 275.007 399.163 274.162 403.671 278.671C407.898 282.898 407.335 287.406 406.771 291.915L406.771 292.479C406.771 293.043 406.771 293.606 406.489 293.888C405.926 297.27 406.208 299.806 408.462 302.06C410.716 304.315 412.971 304.315 416.634 304.033C417.198 304.033 417.762 304.033 418.043 303.751C422.552 303.187 427.343 302.342 431.852 306.851C436.079 311.078 435.515 316.15 434.951 320.659C434.951 321.223 434.951 321.786 434.67 322.068C434.106 325.45 434.388 327.986 436.642 330.24C438.897 332.495 441.151 332.495 444.815 332.213C445.378 332.213 445.942 332.213 446.505 332.213C451.014 331.649 455.805 330.804 460.314 335.313L473.277 322.35C470.177 319.25 467.359 319.814 462.85 320.377Z" fill="#DBE4FE"/>
<path d="M480.604 304.315C480.04 304.315 479.476 304.315 479.195 304.597C474.686 305.16 469.895 306.006 465.386 301.497C461.159 297.27 461.723 292.197 462.286 287.689C462.286 287.125 462.286 286.561 462.568 286.28C463.132 282.898 462.85 280.362 460.596 278.107C458.341 275.853 456.087 275.853 452.423 276.135C451.86 276.135 451.296 276.135 451.014 276.416C446.505 276.98 441.715 277.825 437.206 273.317C434.388 270.499 433.824 267.681 433.824 264.863C433.824 263.172 434.106 261.199 434.388 259.79C434.388 259.226 434.388 258.663 434.67 258.381C435.233 254.999 434.952 252.463 432.697 250.209C430.443 247.954 428.188 247.954 424.525 248.236C423.961 248.236 423.398 248.236 423.116 248.518C418.607 249.082 413.816 249.927 409.308 245.418C405.081 241.191 405.644 236.119 406.208 231.61C406.208 231.046 406.208 230.483 406.49 230.201C407.053 226.819 406.771 224.283 404.517 222.029C402.262 219.774 400.008 219.774 396.345 220.056C395.781 220.056 395.217 220.056 394.936 220.338C394.654 220.62 394.372 220.338 394.09 220.62C394.372 219.774 394.654 219.492 394.936 218.647C392.681 223.156 390.709 227.946 389.3 232.737C390.427 233.301 390.99 233.864 391.836 234.71C396.063 238.937 395.499 244.009 394.936 248.518C394.372 253.027 393.808 255.845 396.345 258.381C398.881 260.917 401.981 260.635 406.208 259.79C410.717 259.226 415.507 258.381 420.016 262.89C424.243 267.117 423.679 271.626 423.116 276.135L423.116 276.698C422.552 281.207 421.989 284.025 424.525 286.561C427.061 289.098 430.161 288.816 434.388 287.97C438.897 287.407 443.687 286.561 448.196 291.07C452.423 295.297 451.86 300.37 451.296 304.878C450.733 309.387 450.169 312.205 452.705 314.742C455.241 317.278 458.341 316.996 462.568 316.151C467.077 315.587 471.868 314.742 476.377 319.25L489.339 306.287C486.803 303.751 483.985 303.751 480.604 304.315Z" fill="#DBE4FE"/>
<path d="M502.021 141.433C503.43 141.151 505.121 141.151 506.53 140.869C505.121 141.151 503.43 141.151 502.021 141.433Z" fill="#DBE4FE"/>
<path d="M604.597 171.304C605.724 172.431 607.415 173.559 608.542 174.686C604.315 171.022 599.524 167.359 595.016 163.977C595.016 166.232 595.297 167.641 596.988 169.332C599.243 171.586 601.215 171.868 604.597 171.304Z" fill="#DBE4FE"/>
<path d="M551.054 147.632C550.49 152.141 550.208 154.677 553.026 157.495C555.563 160.032 558.662 159.75 562.89 158.904C567.398 158.341 572.189 157.495 576.698 162.004C580.925 166.231 580.361 171.304 579.798 175.812C579.234 180.321 578.67 183.139 581.207 185.676C583.743 188.212 586.843 187.93 591.07 187.085C595.579 186.521 600.369 185.676 604.878 190.184L614.459 180.603C612.769 178.912 611.078 177.222 609.387 175.531C608.823 175.531 608.26 175.531 607.696 175.531C603.187 176.094 598.397 176.94 593.888 172.431C590.224 168.767 590.224 164.822 590.506 161.159C591.915 162.004 593.606 163.131 595.015 163.977C581.77 154.677 566.835 148.196 551.617 144.251C551.617 144.814 551.336 145.66 551.336 146.223C551.054 147.069 551.336 147.35 551.054 147.632Z" fill="#DBE4FE"/>
<path d="M384.227 298.115C383.663 297.551 383.382 297.27 382.536 296.988C382.536 295.297 381.973 293.606 381.973 291.915C382.536 298.115 383.663 304.315 385.354 310.514C385.636 309.669 385.636 308.542 385.636 307.978C386.481 303.188 386.763 300.651 384.227 298.115Z" fill="#DBE4FE"/>
<path d="M448.478 336.44C447.914 336.44 447.351 336.44 447.069 336.722C442.56 337.286 437.77 338.131 433.261 333.622C429.034 329.395 429.597 324.323 430.161 319.814C430.161 319.25 430.161 318.687 430.443 318.405C431.006 315.023 430.724 312.487 428.47 310.233C426.216 307.978 423.961 307.978 420.298 308.26C419.734 308.26 419.171 308.26 418.889 308.542C414.38 309.105 409.589 309.951 405.08 305.442C402.262 302.624 401.699 299.806 401.699 296.988C401.699 295.297 401.981 293.324 402.262 291.915C402.262 291.352 402.262 290.788 402.544 290.506C403.108 287.125 402.826 284.588 400.572 282.334C398.317 280.08 396.063 280.08 392.399 280.361C391.836 280.361 391.272 280.361 390.99 280.643C388.172 281.207 385.072 281.489 381.973 280.643C381.973 284.588 382.254 288.252 382.818 292.197C384.791 292.479 386.481 293.606 388.172 295.297C392.399 299.524 391.836 304.033 391.272 308.542L391.272 309.105C390.709 313.614 390.145 316.432 392.681 318.968C395.217 321.505 398.317 321.223 402.544 320.377C407.053 319.814 411.844 318.968 416.353 323.477C420.58 327.704 420.016 332.777 419.452 337.286C418.889 341.794 418.325 344.612 420.861 347.149C423.398 349.685 426.497 349.403 430.724 348.558C435.233 347.994 440.024 347.149 444.533 351.657L457.496 338.695C454.396 336.158 451.86 335.877 448.478 336.44Z" fill="#DBE4FE"/>
<path d="M559.227 224.001C554.718 224.565 549.927 225.41 545.418 220.901C541.191 216.674 541.755 211.602 542.318 207.093C542.882 202.584 543.446 199.766 540.909 197.23C538.373 194.694 535.273 194.975 531.046 195.821C526.538 196.384 521.747 197.23 517.238 192.721C514.42 189.903 513.856 187.085 513.856 184.267C513.856 182.576 514.138 180.603 514.42 179.194C514.984 174.686 515.547 171.868 513.011 169.331C510.475 166.795 507.375 167.077 503.148 167.922C498.639 168.486 493.848 169.331 489.34 164.823C485.113 160.596 485.676 155.523 486.24 151.014C486.803 148.196 486.803 145.942 486.522 143.969C476.94 146.224 467.641 149.323 458.905 153.55C461.159 152.423 463.414 151.296 465.95 150.451C467.923 150.732 470.177 151.86 471.868 153.55C476.095 157.777 475.531 162.85 474.968 167.359C474.968 167.922 474.968 168.486 474.686 168.768C474.122 172.149 474.404 174.686 476.659 176.94C478.913 179.194 481.167 179.194 484.831 178.913C485.394 178.913 485.958 178.913 486.24 178.631C490.749 178.067 495.539 177.222 500.048 181.731C504.275 185.958 503.712 190.467 503.148 194.975L503.148 195.539C503.148 196.103 503.148 196.666 502.866 196.948C502.303 200.33 502.584 202.866 504.839 205.12C507.093 207.375 509.348 207.375 513.011 207.093C513.575 207.093 514.138 207.093 514.42 206.811C518.929 206.248 523.72 205.402 528.228 209.911C532.455 214.138 531.892 219.21 531.328 223.719C531.328 224.283 531.328 224.846 531.046 225.128C530.483 228.51 530.765 231.046 533.019 233.301C535.273 235.555 537.528 235.555 541.191 235.273C541.755 235.273 542.318 235.273 542.882 235.273C547.391 234.71 552.182 233.864 556.69 238.373L569.653 225.41C566.554 222.874 564.017 223.156 559.227 224.001Z" fill="#DBE4FE"/>
<path d="M577.262 207.657C576.698 207.657 576.135 207.657 575.853 207.938C571.344 208.502 566.553 209.347 562.045 204.839C557.818 200.612 558.381 195.539 558.945 191.03C558.945 190.467 558.945 189.903 559.227 189.621C559.79 186.24 559.508 183.703 557.254 181.449C555 179.195 552.745 179.195 549.082 179.476C548.518 179.476 547.955 179.476 547.673 179.758C543.164 180.322 538.373 181.167 533.864 176.658C531.046 173.84 530.483 171.022 530.483 168.204C530.483 166.513 530.765 164.541 531.046 163.132C531.046 162.568 531.046 162.005 531.328 161.723C531.892 158.341 531.61 155.805 529.356 153.551C527.101 151.296 524.847 151.296 521.183 151.578C520.62 151.578 520.056 151.578 519.774 151.86C515.265 152.423 510.475 153.269 505.966 148.76C503.712 146.505 502.866 143.969 502.584 141.433C498.921 141.715 495.257 142.56 491.876 143.124C492.439 145.942 492.158 149.042 491.876 151.578C490.185 156.087 489.621 158.905 492.439 161.723C494.976 164.259 498.075 163.977 502.303 163.132C506.811 162.568 511.602 161.723 516.111 166.232C520.338 170.459 519.774 174.968 519.211 179.476L519.211 180.04C518.647 184.549 518.083 187.367 520.62 189.903C523.156 192.439 526.256 192.157 530.483 191.312C534.992 190.748 539.782 189.903 544.291 194.412C548.518 198.639 547.955 203.711 547.391 208.22C546.827 212.729 546.264 215.547 548.8 218.083C551.336 220.62 554.436 220.338 558.663 219.492C563.172 218.929 567.962 218.083 572.471 222.592L585.434 209.629C583.18 207.375 580.644 207.093 577.262 207.657Z" fill="#DBE4FE"/>
<path d="M545.136 239.782C544.573 239.782 544.009 239.782 543.727 240.064C539.218 240.627 534.428 241.473 529.919 236.964C525.692 232.737 526.256 227.665 526.819 223.156C526.819 222.592 526.819 222.028 527.101 221.747C527.665 218.365 527.383 215.829 525.128 213.574C522.874 211.32 520.62 211.32 516.956 211.602C516.392 211.602 515.829 211.602 515.547 211.884C511.038 212.447 506.248 213.293 501.739 208.784C498.921 205.966 498.357 203.148 498.357 200.33C498.357 198.639 498.639 196.666 498.921 195.257C498.921 194.694 498.921 194.13 499.203 193.848C499.766 190.467 499.484 187.93 497.23 185.676C494.975 183.422 492.721 183.422 489.058 183.703C488.494 183.703 487.93 183.703 487.649 183.985C483.14 184.549 478.349 185.394 473.84 180.885C469.613 176.658 470.177 171.586 470.74 167.077C470.74 166.513 470.74 165.95 471.022 165.668C471.586 162.286 471.304 159.75 469.05 157.496C466.795 155.241 464.541 155.241 460.877 155.523C460.314 155.523 459.75 155.523 459.468 155.805C458.059 156.087 456.65 156.369 454.96 156.369C455.805 156.087 456.369 155.523 457.214 155.241C444.533 161.723 432.134 170.177 421.707 180.604C419.734 182.576 417.48 184.831 415.789 187.085C416.916 185.958 418.043 184.831 418.889 183.422C420.58 183.985 422.27 183.985 424.525 183.422C425.088 183.422 425.652 183.422 425.934 183.14C430.443 182.576 435.233 181.731 439.742 186.24C443.969 190.467 443.406 195.539 442.842 200.048C442.842 200.611 442.842 201.175 442.56 201.457C441.997 204.839 442.278 207.375 444.533 209.629C446.787 211.884 449.042 211.884 452.705 211.602C453.269 211.602 453.832 211.602 454.114 211.32C458.623 210.756 463.414 209.911 467.922 214.42C472.149 218.647 471.586 223.156 471.022 227.665L471.022 228.228C471.022 228.792 471.022 229.355 470.74 229.637C470.177 233.019 470.459 235.555 472.713 237.809C474.968 240.064 477.222 240.064 480.885 239.782C481.449 239.782 482.013 239.782 482.294 239.5C486.803 238.937 491.594 238.091 496.103 242.6C500.33 246.827 499.766 251.9 499.203 256.408C499.203 256.972 499.203 257.536 498.921 257.817C498.357 261.199 498.639 263.735 500.893 265.99C503.148 268.244 505.402 268.244 509.066 267.962C509.629 267.962 510.193 267.962 510.756 267.962C515.265 267.399 520.056 266.553 524.565 271.062L537.528 258.099C534.991 255.563 531.892 255.845 527.665 256.69C523.156 257.254 518.365 258.099 513.856 253.59C509.629 249.363 510.193 244.291 510.756 239.782C511.32 235.273 511.884 232.455 509.347 229.919C506.811 227.383 503.711 227.665 499.484 228.51C494.975 229.074 490.185 229.919 485.676 225.41C482.858 222.592 482.294 219.774 482.294 216.956C482.294 215.265 482.576 213.293 482.858 211.884C483.422 207.375 483.985 204.557 481.449 202.021C478.913 199.484 475.813 199.766 471.586 200.611C467.077 201.175 462.286 202.021 457.778 197.512C453.551 193.285 454.114 188.212 454.678 183.703C455.241 179.195 455.805 176.376 453.269 173.84C450.732 171.304 447.633 171.586 443.406 172.431C440.024 172.995 436.079 173.558 432.415 171.586C433.261 169.613 434.67 168.768 436.079 167.359C437.77 167.359 439.46 167.359 441.997 167.077C446.505 166.513 451.296 165.668 455.805 170.177C460.032 174.404 459.468 179.476 458.905 183.985C458.341 188.494 457.778 191.312 460.314 193.848C462.85 196.384 465.95 196.103 470.177 195.257C474.686 194.694 479.476 193.848 483.985 198.357C488.212 202.584 487.649 207.093 487.085 211.602L487.085 212.165C486.521 216.674 485.958 219.492 488.494 222.028C491.03 224.565 494.13 224.283 498.357 223.437C502.866 222.874 507.657 222.028 512.165 226.537C516.392 230.764 515.829 235.837 515.265 240.346C514.702 244.854 514.138 247.673 516.674 250.209C519.21 252.745 522.31 252.463 526.537 251.618C531.046 251.054 535.837 250.209 540.346 254.718L553.309 241.755C551.054 239.5 548.518 239.218 545.136 239.782Z" fill="#DBE4FE"/>
<path d="M601.497 193.003C598.961 190.467 595.861 190.748 591.634 191.594C587.125 192.157 582.334 193.003 577.825 188.494C573.598 184.267 574.162 179.194 574.726 174.686C575.289 170.177 575.853 167.359 573.317 164.823C570.78 162.286 567.681 162.568 563.453 163.414C558.945 163.977 554.154 164.823 549.645 160.314C546.827 157.496 546.264 154.678 546.264 151.86C546.264 150.169 546.545 148.196 546.827 146.787C546.827 145.66 547.391 144.533 547.109 143.687C548.518 143.969 549.927 144.251 551.618 144.815C536.682 141.151 521.747 139.742 506.529 140.869C506.529 142.56 507.375 143.969 508.784 145.378C511.038 147.633 513.293 147.633 516.956 147.351C517.52 147.351 518.083 147.351 518.365 147.069C522.874 146.505 527.665 145.66 532.173 150.169C536.4 154.396 535.837 158.905 535.273 163.414L535.273 163.977C535.273 164.541 535.273 165.104 534.991 165.386C534.428 168.768 534.71 171.304 536.964 173.558C539.218 175.813 541.473 175.813 545.136 175.531C545.7 175.531 546.264 175.531 546.545 175.249C551.054 174.686 555.845 173.84 560.354 178.349C564.581 182.576 564.017 187.649 563.453 192.157C563.453 192.721 563.453 193.285 563.172 193.566C562.608 196.948 562.89 199.484 565.144 201.739C567.399 203.993 569.653 203.993 573.317 203.711C573.88 203.711 574.444 203.711 575.007 203.711C579.516 203.148 584.307 202.302 588.816 206.811L602.06 193.566L601.497 193.003Z" fill="#DBE4FE"/>
<path d="M513.011 271.907C512.447 271.907 511.883 271.907 511.602 272.189C507.093 272.753 502.302 273.598 497.793 269.089C493.566 264.862 494.13 259.79 494.693 255.281C494.693 254.717 494.693 254.154 494.975 253.872C495.539 250.49 495.257 247.954 493.003 245.7C490.748 243.445 488.494 243.445 484.83 243.727C484.267 243.727 483.703 243.727 483.421 244.009C478.912 244.572 474.122 245.418 469.613 240.909C466.795 238.091 466.231 235.273 466.231 232.455C466.231 230.764 466.513 228.791 466.795 227.382C466.795 226.819 466.795 226.255 467.077 225.973C467.64 222.592 467.359 220.056 465.104 217.801C462.85 215.547 460.595 215.547 456.932 215.828C456.368 215.828 455.805 215.828 455.523 216.11C451.014 216.674 446.223 217.519 441.715 213.01C437.487 208.783 438.051 203.711 438.615 199.202C438.615 198.639 438.615 198.075 438.896 197.793C439.46 194.412 439.178 191.875 436.924 189.621C434.669 187.366 432.415 187.366 428.752 187.648C428.188 187.648 427.624 187.648 427.343 187.93C423.961 188.494 420.016 189.057 416.07 186.803C407.898 196.102 401.135 206.247 396.063 216.956C396.344 216.11 396.626 215.828 396.908 214.983C400.008 214.701 403.953 214.701 407.616 218.365C411.843 222.592 411.28 227.664 410.716 232.173C410.716 232.737 410.716 233.3 410.434 233.582C409.871 236.964 410.153 239.5 412.407 241.754C414.661 244.009 416.916 244.009 420.579 243.727C421.143 243.727 421.707 243.727 421.988 243.445C426.497 242.882 431.288 242.036 435.797 246.545C440.024 250.772 439.46 255.281 438.896 259.79L438.897 260.353C438.897 260.917 438.897 261.48 438.615 261.762C438.051 265.144 438.333 267.68 440.587 269.935C442.842 272.189 445.096 272.189 448.76 271.907C449.323 271.907 449.887 271.907 450.169 271.625C454.677 271.062 459.468 270.216 463.977 274.725C468.204 278.952 467.64 284.025 467.077 288.534C467.077 289.097 467.077 289.661 466.795 289.943C466.231 293.324 466.513 295.86 468.768 298.115C471.022 300.369 473.276 300.369 476.94 300.087C477.503 300.087 478.067 300.087 478.631 300.087C483.139 299.524 487.93 298.678 492.439 303.187L505.402 290.224C502.866 287.688 499.766 287.97 495.539 288.815C491.03 289.379 486.239 290.224 481.73 285.716C477.503 281.488 478.067 276.416 478.631 271.907C479.194 267.398 479.758 264.58 477.222 262.044C474.685 259.508 471.586 259.79 467.359 260.635C462.85 261.199 458.059 262.044 453.55 257.535C450.732 254.717 450.169 251.899 450.169 249.081C450.169 247.39 450.45 245.418 450.732 244.009C451.296 239.5 451.859 236.682 449.323 234.146C446.787 231.609 443.687 231.891 439.46 232.737C434.951 233.3 430.161 234.146 425.652 229.637C421.425 225.41 421.988 220.337 422.552 215.828C423.116 211.32 423.679 208.502 421.143 205.965C418.607 203.429 415.507 203.711 411.28 204.556C408.744 204.838 405.926 205.402 403.108 204.838C403.953 203.429 404.798 202.02 405.926 200.329C406.489 199.766 407.898 199.484 409.871 199.202C414.38 198.639 419.17 197.793 423.679 202.302C427.906 206.529 427.343 211.601 426.779 216.11C426.215 220.619 425.652 223.437 428.188 225.973C430.724 228.51 433.824 228.228 438.051 227.382C442.56 226.819 447.351 225.973 451.859 230.482C456.086 234.709 455.523 239.218 454.959 243.727L454.959 244.291C454.396 248.799 453.832 251.617 456.368 254.154C458.904 256.69 462.004 256.408 466.231 255.563C470.74 254.999 475.531 254.154 480.04 258.662C484.267 262.89 483.703 267.962 483.139 272.471C482.576 276.98 482.012 279.798 484.548 282.334C487.085 284.87 490.185 284.588 494.412 283.743C498.92 283.179 503.711 282.334 508.22 286.843L521.183 273.88C518.928 271.625 516.392 271.344 513.011 271.907Z" fill="#DBE4FE"/>
<path d="M458.904 153.55C458.059 153.832 457.495 154.395 456.65 154.677C457.495 154.395 458.341 154.114 458.904 153.55Z" fill="#DBE4FE"/>
<path d="M491.03 142.842C489.621 143.124 488.212 143.406 486.521 143.969C487.93 143.687 489.339 143.406 491.03 142.842Z" fill="#DBE4FE"/>
<path d="M394.372 218.083C394.654 217.801 394.654 217.238 394.936 216.956C394.936 217.519 394.654 217.801 394.372 218.083Z" fill="#DBE4FE"/>
<path d="M388.736 232.173C388.454 233.019 388.172 233.864 387.891 234.71C387.891 234.146 388.454 233.019 388.736 232.173Z" fill="#DBE4FE"/>
<path d="M385.354 310.514C385.354 311.078 385.636 311.923 385.918 312.205C385.918 311.641 385.354 311.078 385.354 310.514Z" fill="#DBE4FE"/>
</g>
<g opacity="0.05">
<path d="M986.502 595.878C987.066 600.387 987.911 605.177 983.402 609.686C979.175 613.913 974.103 613.35 969.594 612.786C965.085 612.222 962.267 611.659 959.731 614.195C957.194 616.731 957.476 619.831 958.322 624.058C958.885 628.567 959.731 633.358 955.504 637.585C952.404 638.43 949.022 639.557 945.922 640.403C956.631 637.585 967.058 633.358 976.921 628.003C974.666 629.131 972.13 630.54 969.876 631.667C970.439 629.976 971.285 628.567 972.975 626.876C976.639 623.213 980.584 623.213 984.529 623.776C982.275 625.467 980.02 626.594 977.766 627.722C986.502 622.931 994.956 616.731 1002.85 609.968C1001.44 611.377 1000.03 612.222 998.901 613.35C998.619 613.068 998.901 612.786 998.619 612.504C998.056 607.995 997.21 603.205 1001.72 598.696L988.756 585.733C985.657 588.833 985.938 591.369 986.502 595.878Z" fill="#EDF1FD"/>
<path d="M1002.56 610.25C1004.26 608.559 1005.95 606.868 1007.64 605.178L1004.54 602.078C1002.28 604.332 1002 606.868 1002.56 610.25Z" fill="#EDF1FD"/>
<path d="M914.078 645.194C912.388 645.194 910.697 645.194 909.006 645.194C910.979 645.475 912.669 645.475 914.078 645.194Z" fill="#EDF1FD"/>
<path d="M954.376 563.753C954.94 568.261 955.785 573.052 951.277 577.561C947.049 581.788 941.977 581.224 937.468 580.661C932.959 580.097 930.141 579.533 927.605 582.07C925.069 584.606 925.351 587.706 926.196 591.933C926.76 596.442 927.605 601.232 923.096 605.741C920.278 608.559 917.46 609.123 914.642 609.123C912.951 609.123 910.979 608.841 909.57 608.559C905.061 607.996 902.243 607.432 899.707 609.968C897.17 612.504 897.452 615.604 898.298 619.831C898.861 624.34 899.707 629.131 895.198 633.64C890.971 637.867 885.898 637.303 881.39 636.739C876.881 636.176 874.063 635.612 871.526 638.148C871.245 638.43 870.963 638.712 870.681 638.994C870.117 638.994 869.554 638.43 868.99 638.43C882.235 642.657 895.761 644.912 909.288 644.912C910.415 643.221 910.415 640.966 909.852 638.148C909.852 637.585 909.852 637.021 909.57 636.739C909.006 632.231 908.161 627.44 912.67 622.931C916.897 618.704 921.405 619.268 925.914 619.831L926.478 619.831C927.042 619.831 927.605 619.831 927.887 620.113C931.269 620.677 933.805 620.395 936.059 618.14C938.314 615.886 938.314 613.632 938.032 609.968C938.032 609.405 938.032 608.841 937.75 608.559C937.186 604.05 936.341 599.26 940.85 594.751C945.077 590.524 950.149 591.087 954.658 591.651C955.222 591.651 955.785 591.651 956.067 591.933C959.449 592.496 961.985 592.215 964.239 589.96C966.494 587.706 966.494 585.451 966.212 581.788C966.212 581.224 966.212 580.661 966.212 580.097C965.648 575.588 964.803 570.798 969.312 566.289L956.349 553.326C953.249 556.426 953.813 559.244 954.376 563.753Z" fill="#EDF1FD"/>
<path d="M938.314 545.999C938.314 546.562 938.314 547.126 938.596 547.408C939.159 551.917 940.005 556.707 935.496 561.216C931.269 565.443 926.196 564.88 921.688 564.316C921.124 564.316 920.56 564.316 920.279 564.034C916.897 563.471 914.361 563.752 912.106 566.007C909.852 568.261 909.852 570.516 910.134 574.179C910.134 574.743 910.134 575.306 910.415 575.588C910.979 580.097 911.824 584.888 907.316 589.396C904.498 592.214 901.68 592.778 898.862 592.778C897.171 592.778 895.198 592.496 893.789 592.214C893.225 592.214 892.662 592.214 892.38 591.933C888.998 591.369 886.462 591.651 884.208 593.905C881.953 596.16 881.953 598.414 882.235 602.078C882.235 602.641 882.235 603.205 882.517 603.487C883.081 607.995 883.926 612.786 879.417 617.295C875.19 621.522 870.118 620.958 865.609 620.395C865.045 620.395 864.482 620.395 864.2 620.113C860.818 619.549 858.282 619.831 856.028 622.086C853.773 624.34 853.773 626.594 854.055 630.258C854.055 630.821 854.055 631.385 854.337 631.667C854.619 631.949 854.337 632.23 854.619 632.512C853.773 632.23 853.491 631.949 852.646 631.667C857.155 633.921 861.945 635.894 866.736 637.303C867.3 636.176 867.863 635.612 868.709 634.767C872.936 630.54 878.008 631.103 882.517 631.667C887.026 632.23 889.844 632.794 892.38 630.258C894.916 627.722 894.634 624.622 893.789 620.395C893.225 615.886 892.38 611.095 896.889 606.586C901.116 602.359 905.625 602.923 910.134 603.487L910.697 603.487C915.206 604.05 918.024 604.614 920.56 602.078C923.097 599.541 922.815 596.441 921.969 592.214C921.406 587.706 920.56 582.915 925.069 578.406C929.296 574.179 934.369 574.743 938.877 575.306C943.386 575.87 946.204 576.434 948.741 573.897C951.277 571.361 950.995 568.261 950.15 564.034C949.586 559.525 948.741 554.735 953.249 550.226L940.286 537.263C937.75 539.799 937.75 542.617 938.314 545.999Z" fill="#EDF1FD"/>
<path d="M775.432 524.582C775.15 523.173 775.15 521.482 774.868 520.073C775.15 521.482 775.15 523.173 775.432 524.582Z" fill="#EDF1FD"/>
<path d="M805.303 422.006C806.43 420.878 807.558 419.188 808.685 418.06C805.021 422.287 801.358 427.078 797.976 431.587C800.231 431.587 801.64 431.305 803.331 429.614C805.585 427.36 805.867 425.387 805.303 422.006Z" fill="#EDF1FD"/>
<path d="M781.631 475.549C786.14 476.112 788.676 476.394 791.494 473.576C794.031 471.04 793.749 467.94 792.903 463.713C792.34 459.204 791.494 454.413 796.003 449.905C800.23 445.678 805.303 446.241 809.812 446.805C814.32 447.368 817.138 447.932 819.675 445.396C822.211 442.86 821.929 439.76 821.084 435.533C820.52 431.024 819.675 426.233 824.183 421.724L814.602 412.143C812.911 413.834 811.221 415.525 809.53 417.215C809.53 417.779 809.53 418.343 809.53 418.906C810.093 423.415 810.939 428.206 806.43 432.715C802.766 436.378 798.821 436.378 795.158 436.096C796.003 434.687 797.13 432.996 797.976 431.587C788.676 444.832 782.195 459.768 778.25 474.985C778.813 474.985 779.659 475.267 780.222 475.267C781.068 475.549 781.349 475.267 781.631 475.549Z" fill="#EDF1FD"/>
<path d="M932.114 642.375C931.55 642.939 931.269 643.221 930.987 644.066C929.296 644.066 927.605 644.63 925.914 644.63C932.114 644.066 938.314 642.939 944.513 641.248C943.668 640.966 942.541 640.966 941.977 640.966C937.187 640.121 934.65 639.839 932.114 642.375Z" fill="#EDF1FD"/>
<path d="M970.439 578.124C970.439 578.688 970.439 579.252 970.721 579.533C971.285 584.042 972.13 588.833 967.621 593.342C963.394 597.569 958.322 597.005 953.813 596.442C953.249 596.442 952.686 596.442 952.404 596.16C949.022 595.596 946.486 595.878 944.232 598.132C941.977 600.387 941.977 602.641 942.259 606.305C942.259 606.868 942.259 607.432 942.541 607.714C943.104 612.222 943.95 617.013 939.441 621.522C936.623 624.34 933.805 624.904 930.987 624.904C929.296 624.904 927.323 624.622 925.914 624.34C925.351 624.34 924.787 624.34 924.505 624.058C921.124 623.495 918.587 623.776 916.333 626.031C914.079 628.285 914.079 630.54 914.36 634.203C914.36 634.767 914.36 635.33 914.642 635.612C915.206 638.43 915.488 641.53 914.642 644.63C918.587 644.63 922.251 644.348 926.196 643.784C926.478 641.812 927.605 640.121 929.296 638.43C933.523 634.203 938.032 634.767 942.541 635.33L943.104 635.33C947.613 635.894 950.431 636.457 952.967 633.921C955.504 631.385 955.222 628.285 954.376 624.058C953.813 619.549 952.967 614.759 957.476 610.25C961.703 606.023 966.776 606.586 971.285 607.15C975.793 607.714 978.611 608.277 981.148 605.741C983.684 603.205 983.402 600.105 982.557 595.878C981.993 591.369 981.148 586.578 985.656 582.07L972.694 569.107C970.157 572.207 969.876 574.743 970.439 578.124Z" fill="#EDF1FD"/>
<path d="M858 467.376C858.564 471.885 859.409 476.675 854.9 481.184C850.673 485.411 845.601 484.848 841.092 484.284C836.583 483.72 833.765 483.157 831.229 485.693C828.693 488.229 828.974 491.329 829.82 495.556C830.383 500.065 831.229 504.856 826.72 509.364C823.902 512.182 821.084 512.746 818.266 512.746C816.575 512.746 814.602 512.464 813.193 512.182C808.685 511.619 805.867 511.055 803.33 513.591C800.794 516.128 801.076 519.227 801.921 523.454C802.485 527.963 803.33 532.754 798.822 537.263C794.595 541.49 789.522 540.926 785.013 540.363C782.195 539.799 779.941 539.799 777.968 540.081C780.223 549.662 783.322 558.962 787.549 567.697C786.422 565.443 785.295 563.189 784.45 560.652C784.731 558.68 785.859 556.425 787.549 554.735C791.776 550.508 796.849 551.071 801.358 551.635C801.921 551.635 802.485 551.635 802.767 551.917C806.148 552.48 808.685 552.198 810.939 549.944C813.193 547.689 813.193 545.435 812.912 541.772C812.912 541.208 812.912 540.644 812.63 540.363C812.066 535.854 811.221 531.063 815.73 526.554C819.957 522.327 824.466 522.891 828.974 523.454L829.538 523.454C830.102 523.454 830.665 523.454 830.947 523.736C834.329 524.3 836.865 524.018 839.119 521.764C841.374 519.509 841.374 517.255 841.092 513.591C841.092 513.028 841.092 512.464 840.81 512.182C840.246 507.674 839.401 502.883 843.91 498.374C848.137 494.147 853.209 494.711 857.718 495.274C858.282 495.274 858.845 495.274 859.127 495.556C862.509 496.12 865.045 495.838 867.3 493.583C869.554 491.329 869.554 489.075 869.272 485.411C869.272 484.848 869.272 484.284 869.272 483.72C868.709 479.211 867.863 474.421 872.372 469.912L859.409 456.949C856.873 460.049 857.155 462.585 858 467.376Z" fill="#EDF1FD"/>
<path d="M841.656 449.34C841.656 449.904 841.656 450.468 841.937 450.749C842.501 455.258 843.346 460.049 838.838 464.558C834.611 468.785 829.538 468.221 825.029 467.658C824.466 467.658 823.902 467.658 823.62 467.376C820.239 466.812 817.702 467.094 815.448 469.348C813.194 471.603 813.194 473.857 813.475 477.521C813.475 478.084 813.475 478.648 813.757 478.93C814.321 483.439 815.166 488.229 810.657 492.738C807.839 495.556 805.021 496.12 802.203 496.12C800.512 496.12 798.54 495.838 797.131 495.556C796.567 495.556 796.004 495.556 795.722 495.274C792.34 494.711 789.804 494.992 787.55 497.247C785.295 499.501 785.295 501.756 785.577 505.419C785.577 505.983 785.577 506.546 785.859 506.828C786.422 511.337 787.268 516.128 782.759 520.636C780.504 522.891 777.968 523.736 775.432 524.018C775.714 527.682 776.559 531.345 777.123 534.727C779.941 534.163 783.041 534.445 785.577 534.727C790.086 536.417 792.904 536.981 795.722 534.163C798.258 531.627 797.976 528.527 797.131 524.3C796.567 519.791 795.722 515 800.231 510.492C804.458 506.265 808.967 506.828 813.475 507.392L814.039 507.392C818.548 507.955 821.366 508.519 823.902 505.983C826.438 503.447 826.156 500.347 825.311 496.12C824.747 491.611 823.902 486.82 828.411 482.311C832.638 478.084 837.71 478.648 842.219 479.212C846.728 479.775 849.546 480.339 852.082 477.803C854.619 475.266 854.337 472.166 853.491 467.939C852.928 463.431 852.082 458.64 856.591 454.131L843.628 441.168C841.374 443.423 841.092 445.959 841.656 449.34Z" fill="#EDF1FD"/>
<path d="M873.781 481.466C873.781 482.03 873.781 482.593 874.063 482.875C874.626 487.384 875.472 492.175 870.963 496.683C866.736 500.91 861.664 500.347 857.155 499.783C856.591 499.783 856.027 499.783 855.746 499.501C852.364 498.938 849.828 499.22 847.573 501.474C845.319 503.729 845.319 505.983 845.601 509.646C845.601 510.21 845.601 510.774 845.883 511.055C846.446 515.564 847.292 520.355 842.783 524.864C839.965 527.682 837.147 528.245 834.329 528.245C832.638 528.245 830.665 527.964 829.256 527.682C828.693 527.682 828.129 527.682 827.847 527.4C824.466 526.836 821.929 527.118 819.675 529.373C817.421 531.627 817.421 533.881 817.702 537.545C817.702 538.108 817.702 538.672 817.984 538.954C818.548 543.463 819.393 548.253 814.884 552.762C810.657 556.989 805.585 556.426 801.076 555.862C800.512 555.862 799.949 555.862 799.667 555.58C796.285 555.017 793.749 555.298 791.495 557.553C789.24 559.807 789.24 562.062 789.522 565.725C789.522 566.289 789.522 566.852 789.804 567.134C790.086 568.543 790.367 569.952 790.367 571.643C790.086 570.798 789.522 570.234 789.24 569.388C795.722 582.07 804.176 594.469 814.603 604.896C816.575 606.868 818.83 609.123 821.084 610.813C819.957 609.686 818.83 608.559 817.421 607.714C817.984 606.023 817.984 604.332 817.421 602.078C817.421 601.514 817.421 600.95 817.139 600.669C816.575 596.16 815.73 591.369 820.239 586.86C824.466 582.633 829.538 583.197 834.047 583.76C834.61 583.76 835.174 583.76 835.456 584.042C838.838 584.606 841.374 584.324 843.628 582.07C845.883 579.815 845.883 577.561 845.601 573.897C845.601 573.334 845.601 572.77 845.319 572.488C844.755 567.979 843.91 563.189 848.419 558.68C852.646 554.453 857.155 555.017 861.664 555.58L862.227 555.58C862.791 555.58 863.354 555.58 863.636 555.862C867.018 556.426 869.554 556.144 871.808 553.889C874.063 551.635 874.063 549.381 873.781 545.717C873.781 545.153 873.781 544.59 873.499 544.308C872.936 539.799 872.09 535.009 876.599 530.5C880.826 526.273 885.899 526.836 890.407 527.4C890.971 527.4 891.535 527.4 891.816 527.682C895.198 528.245 897.734 527.964 899.989 525.709C902.243 523.455 902.243 521.2 901.961 517.537C901.961 516.973 901.961 516.41 901.961 515.846C901.398 511.337 900.552 506.547 905.061 502.038L892.098 489.075C889.562 491.611 889.844 494.711 890.689 498.938C891.253 503.447 892.098 508.237 887.589 512.746C883.362 516.973 878.29 516.41 873.781 515.846C869.272 515.282 866.454 514.719 863.918 517.255C861.382 519.791 861.664 522.891 862.509 527.118C863.073 531.627 863.918 536.418 859.409 540.926C856.591 543.744 853.773 544.308 850.955 544.308C849.264 544.308 847.292 544.026 845.883 543.744C841.374 543.181 838.556 542.617 836.019 545.153C833.483 547.69 833.765 550.79 834.61 555.017C835.174 559.525 836.019 564.316 831.511 568.825C827.284 573.052 822.211 572.488 817.702 571.925C813.193 571.361 810.375 570.798 807.839 573.334C805.303 575.87 805.585 578.97 806.43 583.197C806.994 586.578 807.557 590.524 805.585 594.187C803.612 593.342 802.767 591.933 801.358 590.524C801.358 588.833 801.358 587.142 801.076 584.606C800.512 580.097 799.667 575.306 804.176 570.798C808.403 566.57 813.475 567.134 817.984 567.698C822.493 568.261 825.311 568.825 827.847 566.289C830.383 563.752 830.102 560.653 829.256 556.426C828.693 551.917 827.847 547.126 832.356 542.617C836.583 538.39 841.092 538.954 845.601 539.517L846.164 539.517C850.673 540.081 853.491 540.645 856.027 538.108C858.564 535.572 858.282 532.472 857.436 528.245C856.873 523.736 856.027 518.946 860.536 514.437C864.763 510.21 869.836 510.774 874.345 511.337C878.853 511.901 881.671 512.464 884.208 509.928C886.744 507.392 886.462 504.292 885.617 500.065C885.053 495.556 884.208 490.766 888.717 486.257L875.754 473.294C873.499 475.548 873.217 478.084 873.781 481.466Z" fill="#EDF1FD"/>
<path d="M827.002 425.106C824.466 427.642 824.747 430.742 825.593 434.969C826.156 439.478 827.002 444.268 822.493 448.777C818.266 453.004 813.193 452.44 808.685 451.877C804.176 451.313 801.358 450.75 798.822 453.286C796.285 455.822 796.567 458.922 797.413 463.149C797.976 467.658 798.822 472.448 794.313 476.957C791.495 479.775 788.677 480.339 785.859 480.339C784.168 480.339 782.195 480.057 780.786 479.775C779.659 479.775 778.532 479.212 777.686 479.493C777.968 478.084 778.25 476.675 778.814 474.985C775.15 489.92 773.741 504.856 774.868 520.073C776.559 520.073 777.968 519.228 779.377 517.819C781.632 515.564 781.632 513.31 781.35 509.646C781.35 509.083 781.35 508.519 781.068 508.237C780.504 503.728 779.659 498.938 784.168 494.429C788.395 490.202 792.904 490.766 797.413 491.329L797.976 491.329C798.54 491.329 799.103 491.329 799.385 491.611C802.767 492.175 805.303 491.893 807.557 489.638C809.812 487.384 809.812 485.13 809.53 481.466C809.53 480.902 809.53 480.339 809.248 480.057C808.685 475.548 807.839 470.758 812.348 466.249C816.575 462.022 821.648 462.585 826.156 463.149C826.72 463.149 827.284 463.149 827.565 463.431C830.947 463.994 833.483 463.713 835.738 461.458C837.992 459.204 837.992 456.949 837.71 453.286C837.71 452.722 837.71 452.159 837.71 451.595C837.147 447.086 836.301 442.296 840.81 437.787L827.565 424.542L827.002 425.106Z" fill="#EDF1FD"/>
<path d="M905.906 513.592C905.906 514.155 905.906 514.719 906.188 515.001C906.752 519.51 907.597 524.3 903.088 528.809C898.861 533.036 893.789 532.473 889.28 531.909C888.716 531.909 888.153 531.909 887.871 531.627C884.489 531.064 881.953 531.345 879.699 533.6C877.444 535.854 877.444 538.109 877.726 541.772C877.726 542.336 877.726 542.899 878.008 543.181C878.571 547.69 879.417 552.481 874.908 556.989C872.09 559.807 869.272 560.371 866.454 560.371C864.763 560.371 862.79 560.089 861.381 559.807C860.818 559.807 860.254 559.807 859.972 559.526C856.591 558.962 854.055 559.244 851.8 561.498C849.546 563.753 849.546 566.007 849.827 569.671C849.827 570.234 849.827 570.798 850.109 571.08C850.673 575.588 851.518 580.379 847.009 584.888C842.782 589.115 837.71 588.551 833.201 587.988C832.638 587.988 832.074 587.988 831.792 587.706C828.411 587.142 825.874 587.424 823.62 589.679C821.365 591.933 821.365 594.187 821.647 597.851C821.647 598.414 821.647 598.978 821.929 599.26C822.493 602.641 823.056 606.587 820.802 610.532C830.101 618.704 840.246 625.467 850.955 630.54C850.109 630.258 849.827 629.976 848.982 629.694C848.7 626.595 848.7 622.649 852.364 618.986C856.591 614.759 861.663 615.323 866.172 615.886C866.736 615.886 867.299 615.886 867.581 616.168C870.963 616.732 873.499 616.45 875.753 614.195C878.008 611.941 878.008 609.687 877.726 606.023C877.726 605.459 877.726 604.896 877.444 604.614C876.881 600.105 876.035 595.315 880.544 590.806C884.771 586.579 889.28 587.142 893.789 587.706L894.352 587.706C894.916 587.706 895.479 587.706 895.761 587.988C899.143 588.551 901.679 588.27 903.934 586.015C906.188 583.761 906.188 581.506 905.906 577.843C905.906 577.279 905.906 576.716 905.624 576.434C905.061 571.925 904.215 567.134 908.724 562.626C912.951 558.398 918.024 558.962 922.533 559.526C923.096 559.526 923.66 559.526 923.942 559.807C927.323 560.371 929.859 560.089 932.114 557.835C934.368 555.58 934.368 553.326 934.086 549.663C934.086 549.099 934.086 548.535 934.086 547.972C933.523 543.463 932.677 538.672 937.186 534.163L924.223 521.201C921.687 523.737 921.969 526.837 922.814 531.064C923.378 535.572 924.223 540.363 919.714 544.872C915.487 549.099 910.415 548.535 905.906 547.972C901.397 547.408 898.579 546.845 896.043 549.381C893.507 551.917 893.789 555.017 894.634 559.244C895.198 563.753 896.043 568.543 891.534 573.052C888.716 575.87 885.898 576.434 883.08 576.434C881.389 576.434 879.417 576.152 878.008 575.87C873.499 575.307 870.681 574.743 868.145 577.279C865.608 579.815 865.89 582.915 866.736 587.142C867.299 591.651 868.145 596.442 863.636 600.951C859.409 605.178 854.336 604.614 849.827 604.05C845.319 603.487 842.501 602.923 839.964 605.459C837.428 607.996 837.71 611.096 838.555 615.323C838.837 617.859 839.401 620.677 838.837 623.495C837.428 622.649 836.019 621.804 834.328 620.677C833.765 620.113 833.483 618.704 833.201 616.732C832.638 612.223 831.792 607.432 836.301 602.923C840.528 598.696 845.6 599.26 850.109 599.823C854.618 600.387 857.436 600.951 859.972 598.414C862.509 595.878 862.227 592.778 861.381 588.551C860.818 584.042 859.972 579.252 864.481 574.743C868.708 570.516 873.217 571.08 877.726 571.643L878.29 571.643C882.798 572.207 885.616 572.77 888.153 570.234C890.689 567.698 890.407 564.598 889.562 560.371C888.998 555.862 888.153 551.072 892.661 546.563C896.888 542.336 901.961 542.899 906.47 543.463C910.979 544.027 913.797 544.59 916.333 542.054C918.869 539.518 918.587 536.418 917.742 532.191C917.178 527.682 916.333 522.891 920.842 518.383L907.879 505.42C905.624 507.674 905.343 510.21 905.906 513.592Z" fill="#EDF1FD"/>
<path d="M787.549 567.698C787.831 568.543 788.394 569.107 788.676 569.952C788.394 569.107 788.113 568.262 787.549 567.698Z" fill="#EDF1FD"/>
<path d="M776.841 535.572C777.123 536.981 777.405 538.39 777.968 540.081C777.686 538.672 777.405 537.263 776.841 535.572Z" fill="#EDF1FD"/>
<path d="M852.082 632.23C851.8 631.949 851.237 631.949 850.955 631.667C851.518 631.667 851.8 631.949 852.082 632.23Z" fill="#EDF1FD"/>
<path d="M866.172 637.866C867.018 638.148 867.863 638.43 868.709 638.712C868.145 638.712 867.018 638.148 866.172 637.866Z" fill="#EDF1FD"/>
<path d="M944.513 641.248C945.077 641.248 945.922 640.967 946.204 640.685C945.64 640.685 945.077 641.248 944.513 641.248Z" fill="#EDF1FD"/>
</g>
<g opacity="0.1">
<path d="M1230 461.658C1283.26 408.398 1369.77 408.116 1423.32 461.658C1476.58 514.919 1476.86 601.432 1423.32 654.975L1230 461.658V461.658Z" stroke="white" stroke-width="1.3589" stroke-miterlimit="10"/>
<path d="M1342.72 426.151L1339.62 429.251L1342.72 432.351L1345.82 429.251L1342.72 426.151Z" fill="white"/>
<path d="M1371.75 429.251L1374.56 432.632L1376.25 430.942C1375.13 430.378 1373.44 429.814 1371.75 429.251Z" fill="white"/>
<path d="M1374.85 458.277L1371.75 461.377L1374.85 464.476L1377.95 461.376L1374.85 458.277Z" fill="white"/>
<path d="M1406.97 458.276L1403.87 461.376L1406.97 464.476L1410.07 461.376L1406.97 458.276Z" fill="white"/>
<path d="M1406.97 490.402L1403.87 493.502L1406.97 496.602L1410.07 493.502L1406.97 490.402Z" fill="white"/>
<path d="M1439.1 490.402L1436 493.502L1439.1 496.601L1442.2 493.502L1439.1 490.402Z" fill="white"/>
<path d="M1439.38 522.809L1436.28 525.909L1439.38 529.009L1442.48 525.909L1439.38 522.809Z" fill="white"/>
<path d="M1278.47 432.351L1281.57 429.251C1279.88 429.814 1278.47 430.66 1277.06 430.942L1278.47 432.351Z" fill="white"/>
<path d="M1310.59 426.151L1307.49 429.251L1310.59 432.351L1313.69 429.251L1310.59 426.151Z" fill="white"/>
<path d="M1310.59 458.277L1307.49 461.376L1310.59 464.476L1313.69 461.376L1310.59 458.277Z" fill="white"/>
<path d="M1342.72 458.277L1339.62 461.376L1342.72 464.476L1345.82 461.376L1342.72 458.277Z" fill="white"/>
<path d="M1342.72 490.402L1339.62 493.502L1342.72 496.602L1345.82 493.502L1342.72 490.402Z" fill="white"/>
<path d="M1374.85 490.402L1371.75 493.502L1374.85 496.602L1377.95 493.502L1374.85 490.402Z" fill="white"/>
<path d="M1374.85 522.527L1371.75 525.627L1374.85 528.727L1377.95 525.627L1374.85 522.527Z" fill="white"/>
<path d="M1406.97 522.528L1403.87 525.627L1406.97 528.727L1410.07 525.627L1406.97 522.528Z" fill="white"/>
<path d="M1407.25 554.935L1404.15 558.035L1407.25 561.134L1410.35 558.035L1407.25 554.935Z" fill="white"/>
<path d="M1439.38 554.935L1436.28 558.035L1439.38 561.135L1442.48 558.035L1439.38 554.935Z" fill="white"/>
<path d="M1439.38 587.06L1436.28 590.16L1439.38 593.26L1442.48 590.16L1439.38 587.06Z" fill="white"/>
<path d="M1246.06 458.558L1242.96 461.658L1246.06 464.757L1249.16 461.658L1246.06 458.558Z" fill="white"/>
<path d="M1278.19 458.558L1275.09 461.658L1278.19 464.758L1281.29 461.658L1278.19 458.558Z" fill="white"/>
<path d="M1278.19 490.684L1275.09 493.784L1278.19 496.883L1281.29 493.784L1278.19 490.684Z" fill="white"/>
<path d="M1310.31 490.684L1307.21 493.784L1310.31 496.883L1313.41 493.784L1310.31 490.684Z" fill="white"/>
<path d="M1310.31 522.809L1307.21 525.909L1310.31 529.009L1313.41 525.909L1310.31 522.809Z" fill="white"/>
<path d="M1342.44 522.809L1339.34 525.909L1342.44 529.009L1345.54 525.909L1342.44 522.809Z" fill="white"/>
<path d="M1342.44 554.935L1339.34 558.035L1342.44 561.134L1345.54 558.035L1342.44 554.935Z" fill="white"/>
<path d="M1374.56 554.935L1371.46 558.035L1374.56 561.135L1377.66 558.035L1374.56 554.935Z" fill="white"/>
<path d="M1374.85 587.342L1371.75 590.442L1374.85 593.542L1377.95 590.442L1374.85 587.342Z" fill="white"/>
<path d="M1406.97 587.342L1403.87 590.442L1406.97 593.542L1410.07 590.442L1406.97 587.342Z" fill="white"/>
<path d="M1406.97 619.467L1403.87 622.567L1406.97 625.667L1410.07 622.567L1406.97 619.467Z" fill="white"/>
<path d="M1439.1 619.468L1436 622.567L1439.1 625.667L1442.2 622.567L1439.1 619.468Z" fill="white"/>
</g>
<g opacity="0.1">
<path d="M284.974 686.317C231.713 739.577 145.2 739.859 91.6572 686.317C38.3966 633.056 38.1147 546.543 91.6572 493L284.974 686.317V686.317Z" stroke="white" stroke-width="1.3589" stroke-miterlimit="10"/>
<path d="M172.253 721.824L175.353 718.724L172.253 715.624L169.153 718.724L172.253 721.824Z" fill="white"/>
<path d="M143.227 718.724L140.409 715.342L138.718 717.033C139.845 717.597 141.536 718.161 143.227 718.724Z" fill="white"/>
<path d="M140.128 689.698L143.227 686.598L140.128 683.498L137.028 686.598L140.128 689.698Z" fill="white"/>
<path d="M108.002 689.699L111.101 686.599L108.002 683.499L104.902 686.599L108.002 689.699Z" fill="white"/>
<path d="M108.002 657.573L111.102 654.473L108.002 651.373L104.902 654.473L108.002 657.573Z" fill="white"/>
<path d="M75.8759 657.573L78.9758 654.473L75.8759 651.373L72.7761 654.473L75.8759 657.573Z" fill="white"/>
<path d="M75.5946 625.165L78.6945 622.065L75.5947 618.966L72.4948 622.066L75.5946 625.165Z" fill="white"/>
<path d="M236.504 715.624L233.404 718.724C235.095 718.16 236.504 717.315 237.913 717.033L236.504 715.624Z" fill="white"/>
<path d="M204.378 721.824L207.478 718.724L204.378 715.624L201.278 718.724L204.378 721.824Z" fill="white"/>
<path d="M204.378 689.698L207.478 686.598L204.378 683.499L201.278 686.598L204.378 689.698Z" fill="white"/>
<path d="M172.253 689.698L175.353 686.598L172.253 683.499L169.153 686.598L172.253 689.698Z" fill="white"/>
<path d="M172.253 657.573L175.353 654.473L172.253 651.373L169.153 654.473L172.253 657.573Z" fill="white"/>
<path d="M140.127 657.573L143.227 654.473L140.127 651.373L137.028 654.473L140.127 657.573Z" fill="white"/>
<path d="M140.127 625.447L143.227 622.348L140.127 619.248L137.027 622.348L140.127 625.447Z" fill="white"/>
<path d="M108.002 625.447L111.102 622.347L108.002 619.248L104.902 622.347L108.002 625.447Z" fill="white"/>
<path d="M107.72 593.04L110.82 589.94L107.72 586.84L104.62 589.94L107.72 593.04Z" fill="white"/>
<path d="M75.5945 593.04L78.6943 589.94L75.5945 586.84L72.4947 589.94L75.5945 593.04Z" fill="white"/>
<path d="M75.5945 560.915L78.6943 557.815L75.5945 554.715L72.4947 557.815L75.5945 560.915Z" fill="white"/>
<path d="M268.911 689.417L272.01 686.317L268.911 683.217L265.811 686.317L268.911 689.417Z" fill="white"/>
<path d="M236.786 689.416L239.885 686.317L236.786 683.217L233.686 686.317L236.786 689.416Z" fill="white"/>
<path d="M236.785 657.291L239.885 654.191L236.785 651.091L233.686 654.191L236.785 657.291Z" fill="white"/>
<path d="M204.66 657.291L207.76 654.191L204.66 651.091L201.56 654.191L204.66 657.291Z" fill="white"/>
<path d="M204.66 625.166L207.76 622.066L204.66 618.966L201.56 622.066L204.66 625.166Z" fill="white"/>
<path d="M172.535 625.165L175.634 622.066L172.535 618.966L169.435 622.066L172.535 625.165Z" fill="white"/>
<path d="M172.534 593.04L175.634 589.94L172.534 586.84L169.435 589.94L172.534 593.04Z" fill="white"/>
<path d="M140.409 593.04L143.509 589.94L140.409 586.84L137.309 589.94L140.409 593.04Z" fill="white"/>
<path d="M140.127 560.633L143.227 557.533L140.127 554.433L137.027 557.533L140.127 560.633Z" fill="white"/>
<path d="M108.002 560.633L111.102 557.533L108.002 554.433L104.902 557.533L108.002 560.633Z" fill="white"/>
<path d="M108.002 528.507L111.102 525.408L108.002 522.308L104.902 525.408L108.002 528.507Z" fill="white"/>
<path d="M75.8765 528.507L78.9763 525.407L75.8765 522.308L72.7767 525.407L75.8765 528.507Z" fill="white"/>
</g>
<g opacity="0.1">
<path d="M539.657 1148.97C486.397 1095.71 486.115 1009.2 539.657 955.658C592.918 902.397 679.431 902.115 732.974 955.658L539.657 1148.97V1148.97Z" stroke="white" stroke-width="1.3589" stroke-miterlimit="10"/>
<path d="M536.275 972.002L539.375 975.102L542.475 972.002L539.375 968.903L536.275 972.002Z" fill="white"/>
<path d="M568.401 972.003L571.501 975.103L574.601 972.003L571.501 968.903L568.401 972.003Z" fill="white"/>
<path d="M568.401 939.877L571.501 942.977L574.6 939.877L571.501 936.777L568.401 939.877Z" fill="white"/>
<path d="M600.808 939.595L603.908 942.695L607.008 939.595L603.908 936.496L600.808 939.595Z" fill="white"/>
<path d="M600.527 972.003L603.626 975.102L606.726 972.003L603.626 968.903L600.527 972.003Z" fill="white"/>
<path d="M632.934 971.721L636.034 974.82L639.133 971.721L636.034 968.621L632.934 971.721Z" fill="white"/>
<path d="M632.934 939.595L636.034 942.695L639.134 939.595L636.034 936.496L632.934 939.595Z" fill="white"/>
<path d="M665.059 939.595L668.159 942.695L671.259 939.595L668.159 936.495L665.059 939.595Z" fill="white"/>
<path d="M665.341 972.003L668.441 975.102L671.541 972.003L668.441 968.903L665.341 972.003Z" fill="white"/>
<path d="M697.466 972.003L700.566 975.102L703.666 972.003L700.566 968.903L697.466 972.003Z" fill="white"/>
<path d="M697.467 939.877L700.566 942.977L703.666 939.877L700.566 936.777L697.467 939.877Z" fill="white"/>
</g>
</g>
<defs>
<linearGradient id="paint0_linear_1420_899" x1="-249.792" y1="1072.51" x2="798.994" y2="-68.6725" gradientUnits="userSpaceOnUse">
<stop stop-color="#61BFED"/>
<stop offset="0.729167" stop-color="#15879D"/>
</linearGradient>
<clipPath id="clip0_1420_899">
<rect width="1600" height="979" fill="white"/>
</clipPath>
</defs>
</svg>
