<svg width="290" height="410" viewBox="0 0 290 410" fill="none" xmlns="http://www.w3.org/2000/svg">
<path d="M204.237 1.77148C204.8 0.0773174 207.199 0.0751615 207.765 1.77148L213.306 18.3867L213.419 18.7256L213.776 18.7285L231.29 18.8652C233.076 18.8785 233.819 21.1585 232.38 22.2217L218.292 32.626L218.004 32.8389L218.112 33.1797L223.395 49.8779C223.933 51.5818 221.994 52.9899 220.541 51.9512L206.292 41.7676L206.002 41.5596L205.711 41.7676L191.463 51.9512C190.009 52.9902 188.07 51.5817 188.608 49.8779L193.892 33.1797L193.999 32.8389L193.712 32.626L179.623 22.2217C178.185 21.1603 178.926 18.8798 180.713 18.8652L198.227 18.7285L198.584 18.7256L198.696 18.3867L204.237 1.77148Z" stroke="#D7E2FA"/>
<path d="M204.237 358.494C204.8 356.8 207.199 356.798 207.765 358.494L213.306 375.108L213.419 375.447L213.776 375.45L231.29 375.586C233.077 375.6 233.818 377.88 232.381 378.941L218.292 389.347L218.004 389.559L218.112 389.899L223.395 406.598C223.933 408.301 221.994 409.71 220.541 408.672L206.292 398.487L206.002 398.279L205.711 398.487L191.463 408.672C190.009 409.711 188.07 408.301 188.608 406.598L193.892 389.899L193.999 389.559L193.712 389.347L179.623 378.941C178.23 377.913 178.882 375.74 180.549 375.594L180.713 375.586L198.227 375.45L198.584 375.447L198.696 375.108L204.237 358.494Z" stroke="#D7E2FA"/>
<path d="M25.874 180.132C26.4383 178.437 28.8364 178.436 29.4023 180.132L34.9434 196.747L35.0566 197.086L35.4141 197.089L52.9268 197.226C54.7135 197.24 55.4548 199.519 54.0166 200.582L39.9287 210.986L39.6416 211.199L39.749 211.54L45.0312 228.238C45.5699 229.942 43.6306 231.35 42.1777 230.312L27.9287 220.128L27.6387 219.92L27.3477 220.128L13.0996 230.312C11.6454 231.351 9.70659 229.942 10.2451 228.238L15.5283 211.54L15.6357 211.199L15.3486 210.986L1.25977 200.582C-0.177839 199.521 0.562771 197.24 2.34961 197.226L19.8633 197.089L20.2207 197.086L20.333 196.747L25.874 180.132Z" stroke="#D7E2FA"/>
<path d="M52.6514 86.9883C53.2142 85.2966 55.6128 85.2946 56.1787 86.9902L61.7197 103.604L61.833 103.942L62.1904 103.945L79.7041 104.082C81.4912 104.096 82.2318 106.375 80.7949 107.437V107.438L66.7061 117.842L66.418 118.054L66.5264 118.395L71.8086 135.093C72.3476 136.797 70.408 138.206 68.9551 137.167L54.7061 126.982L54.416 126.775L54.125 126.982L39.877 137.167C38.4676 138.174 36.6032 136.882 36.9785 135.252L37.0225 135.093L42.3057 118.395L42.4131 118.054L42.126 117.842L28.0371 107.438V107.437C26.5996 106.375 27.3401 104.095 29.127 104.08L46.6406 103.944L46.998 103.941L47.1104 103.603L52.6514 86.9883Z" stroke="#0071BC"/>
<path d="M117.933 330.637C118.497 328.942 120.895 328.941 121.461 330.637L127.002 347.252L127.115 347.591L127.473 347.594L144.986 347.73C146.718 347.744 147.467 349.884 146.206 350.982L146.077 351.086L131.988 361.49L131.701 361.702L131.809 362.043L137.092 378.741C137.614 380.391 135.81 381.766 134.374 380.905L134.236 380.815L119.987 370.632L119.697 370.424L119.406 370.632L105.158 380.815C103.704 381.855 101.765 380.445 102.304 378.741L107.587 362.043L107.694 361.702L107.407 361.49L93.3184 351.086C91.9252 350.057 92.5777 347.885 94.2441 347.738L94.4082 347.73L111.922 347.594L112.279 347.591L112.392 347.252L117.933 330.637Z" stroke="#D7E2FA"/>
<path d="M52.6475 265.352C53.2133 263.656 55.6114 263.657 56.1758 265.352L61.7168 281.967L61.8301 282.306L62.1875 282.309L79.7021 282.445C81.4884 282.459 82.2299 284.739 80.792 285.801L66.7031 296.205L66.416 296.417L66.5234 296.758L71.8066 313.456C72.3445 315.16 70.4053 316.569 68.9512 315.53L54.7021 305.347L54.4121 305.139L54.1211 305.347L39.873 315.53C38.4201 316.569 36.4795 315.16 37.0186 313.456L42.3018 296.758L42.4092 296.417L42.1221 296.205L28.0332 285.801C26.5958 284.74 27.336 282.46 29.123 282.445L46.6367 282.309L46.9941 282.306L47.1064 281.967L52.6475 265.352Z" stroke="#D7E2FA"/>
<path d="M117.933 21.7051C118.481 20.0631 120.748 20.0136 121.401 21.5508L121.46 21.7051L127.001 38.3203L127.114 38.6592L127.472 38.6621L144.985 38.7988C146.717 38.8127 147.466 40.9541 146.204 42.0527L146.076 42.1553L131.987 52.5596L131.7 52.7725L131.808 53.1133L137.09 69.8115C137.628 71.5152 135.691 72.9236 134.236 71.8848L119.987 61.7012L119.697 61.4932L119.406 61.7012L105.158 71.8848C103.705 72.9235 101.765 71.5153 102.304 69.8115L107.587 53.1133L107.694 52.7725L107.407 52.5596L93.3184 42.1553C91.8803 41.0925 92.6216 38.8134 94.4082 38.7988L111.922 38.6621L112.279 38.6592L112.392 38.3203L117.933 21.7051Z" stroke="#D7E2FA"/>
</svg>
