<svg width="15" height="17" viewBox="0 0 15 17" fill="none" xmlns="http://www.w3.org/2000/svg">
<path fill-rule="evenodd" clip-rule="evenodd" d="M10 1.66667V0.833333C10 0.373333 10.3733 0 10.8333 0C11.2933 0 11.6667 0.373333 11.6667 0.833333V1.66667C13.5075 1.66667 15 3.15917 15 5V13.3333C15 15.1742 13.5075 16.6667 11.6667 16.6667C9.28333 16.6667 5.71583 16.6667 3.33333 16.6667C1.4925 16.6667 0 15.1742 0 13.3333V5C0 3.15917 1.4925 1.66667 3.33333 1.66667V0.833333C3.33333 0.373333 3.70667 0 4.16667 0C4.62667 0 5 0.373333 5 0.833333V1.66667H10ZM13.3333 8.33333H1.66667V13.3333C1.66667 14.2533 2.4125 15 3.33333 15H11.6667C12.5867 15 13.3333 14.2533 13.3333 13.3333V8.33333ZM11.6667 3.33333V4.16667C11.6667 4.62667 11.2933 5 10.8333 5C10.3733 5 10 4.62667 10 4.16667V3.33333H5V4.16667C5 4.62667 4.62667 5 4.16667 5C3.70667 5 3.33333 4.62667 3.33333 4.16667V3.33333C2.4125 3.33333 1.66667 4.07917 1.66667 5V6.66667H13.3333V5C13.3333 4.07917 12.5867 3.33333 11.6667 3.33333Z" fill="white"/>
</svg>
