<svg width="696" height="384" viewBox="0 0 696 384" fill="none" xmlns="http://www.w3.org/2000/svg">
<g clip-path="url(#clip0_1506_1706)">
<rect width="696" height="384" fill="white"/>
<rect x="-184" y="-152" width="1600" height="602" fill="url(#paint0_linear_1506_1706)"/>
<mask id="mask0_1506_1706" style="mask-type:alpha" maskUnits="userSpaceOnUse" x="-184" y="-152" width="1600" height="602">
<rect x="-184" y="-152" width="1600" height="602" fill="#C4C4C4"/>
</mask>
<g mask="url(#mask0_1506_1706)">
<g opacity="0.1">
<path d="M91.4331 376.583C91.1513 375.174 91.1513 373.483 90.8695 372.074C91.1513 373.483 91.1513 375.174 91.4331 376.583Z" fill="#EDF1FD"/>
<path d="M121.304 274.007C122.431 272.88 123.559 271.189 124.686 270.062C121.022 274.289 117.359 279.08 113.977 283.588C116.232 283.588 117.641 283.307 119.332 281.616C121.586 279.361 121.868 277.389 121.304 274.007Z" fill="#EDF1FD"/>
<path d="M97.6322 327.55C102.141 328.114 104.677 328.396 107.495 325.577C110.032 323.041 109.75 319.941 108.904 315.714C108.341 311.206 107.495 306.415 112.004 301.906C116.231 297.679 121.304 298.243 125.812 298.806C130.321 299.37 133.139 299.933 135.676 297.397C138.212 294.861 137.93 291.761 137.085 287.534C136.521 283.025 135.676 278.235 140.184 273.726L130.603 264.145C128.912 265.835 127.222 267.526 125.531 269.217C125.531 269.781 125.531 270.344 125.531 270.908C126.094 275.417 126.94 280.207 122.431 284.716C118.767 288.38 114.822 288.38 111.159 288.098C112.004 286.689 113.131 284.998 113.977 283.589C104.677 296.834 98.1959 311.769 94.2506 326.987C94.8142 326.987 95.6596 327.268 96.2232 327.268C97.0686 327.55 97.3504 327.268 97.6322 327.55Z" fill="#EDF1FD"/>
<path d="M174.001 319.377C174.565 323.886 175.41 328.677 170.901 333.186C166.674 337.413 161.602 336.849 157.093 336.285C152.584 335.722 149.766 335.158 147.23 337.694C144.694 340.231 144.975 343.331 145.821 347.558C146.384 352.066 147.23 356.857 142.721 361.366C139.903 364.184 137.085 364.748 134.267 364.748C132.576 364.748 130.603 364.466 129.194 364.184C124.686 363.62 121.868 363.057 119.331 365.593C116.795 368.129 117.077 371.229 117.922 375.456C118.486 379.965 119.331 384.755 114.823 389.264C110.596 393.491 105.523 392.928 101.014 392.364C98.1962 391.801 95.9418 391.801 93.9692 392.082C96.2236 401.664 99.3234 410.963 103.55 419.699C102.423 417.445 101.296 415.19 100.451 412.654C100.732 410.681 101.86 408.427 103.55 406.736C107.777 402.509 112.85 403.073 117.359 403.636C117.922 403.636 118.486 403.636 118.768 403.918C122.149 404.482 124.686 404.2 126.94 401.945C129.194 399.691 129.194 397.437 128.913 393.773C128.913 393.21 128.913 392.646 128.631 392.364C128.067 387.855 127.222 383.065 131.731 378.556C135.958 374.329 140.467 374.892 144.975 375.456L145.539 375.456C146.103 375.456 146.666 375.456 146.948 375.738C150.33 376.301 152.866 376.02 155.12 373.765C157.375 371.511 157.375 369.256 157.093 365.593C157.093 365.029 157.093 364.466 156.811 364.184C156.248 359.675 155.402 354.884 159.911 350.376C164.138 346.149 169.21 346.712 173.719 347.276C174.283 347.276 174.846 347.276 175.128 347.558C178.51 348.121 181.046 347.839 183.301 345.585C185.555 343.331 185.555 341.076 185.273 337.413C185.273 336.849 185.273 336.285 185.273 335.722C184.71 331.213 183.864 326.422 188.373 321.914L175.41 308.951C172.874 312.05 173.156 314.587 174.001 319.377Z" fill="#EDF1FD"/>
<path d="M157.657 301.342C157.657 301.906 157.657 302.469 157.938 302.751C158.502 307.26 159.347 312.05 154.839 316.559C150.612 320.786 145.539 320.223 141.03 319.659C140.467 319.659 139.903 319.659 139.621 319.377C136.24 318.814 133.703 319.096 131.449 321.35C129.195 323.604 129.195 325.859 129.476 329.522C129.476 330.086 129.476 330.649 129.758 330.931C130.322 335.44 131.167 340.231 126.658 344.74C123.84 347.558 121.022 348.121 118.204 348.121C116.513 348.121 114.541 347.839 113.132 347.558C112.568 347.558 112.005 347.558 111.723 347.276C108.341 346.712 105.805 346.994 103.551 349.248C101.296 351.503 101.296 353.757 101.578 357.421C101.578 357.984 101.578 358.548 101.86 358.83C102.423 363.339 103.269 368.129 98.7599 372.638C96.5055 374.892 93.9692 375.738 91.433 376.02C91.7148 379.683 92.5602 383.346 93.1238 386.728C95.9419 386.165 99.0417 386.446 101.578 386.728C106.087 388.419 108.905 388.983 111.723 386.165C114.259 383.628 113.977 380.528 113.132 376.301C112.568 371.793 111.723 367.002 116.232 362.493C120.459 358.266 124.968 358.83 129.476 359.393L130.04 359.393C134.549 359.957 137.367 360.52 139.903 357.984C142.439 355.448 142.157 352.348 141.312 348.121C140.748 343.612 139.903 338.822 144.412 334.313C148.639 330.086 153.711 330.649 158.22 331.213C162.729 331.777 165.547 332.34 168.083 329.804C170.62 327.268 170.338 324.168 169.492 319.941C168.929 315.432 168.083 310.641 172.592 306.133L159.629 293.17C157.375 295.424 157.093 297.96 157.657 301.342Z" fill="#EDF1FD"/>
<path d="M189.782 333.468C189.782 334.031 189.782 334.595 190.064 334.877C190.627 339.385 191.473 344.176 186.964 348.685C182.737 352.912 177.665 352.348 173.156 351.785C172.592 351.785 172.028 351.785 171.747 351.503C168.365 350.939 165.829 351.221 163.574 353.476C161.32 355.73 161.32 357.984 161.602 361.648C161.602 362.211 161.602 362.775 161.884 363.057C162.447 367.566 163.293 372.356 158.784 376.865C155.966 379.683 153.148 380.247 150.33 380.247C148.639 380.247 146.666 379.965 145.257 379.683C144.694 379.683 144.13 379.683 143.848 379.401C140.467 378.838 137.93 379.12 135.676 381.374C133.422 383.628 133.422 385.883 133.703 389.546C133.703 390.11 133.703 390.674 133.985 390.955C134.549 395.464 135.394 400.255 130.885 404.764C126.658 408.991 121.586 408.427 117.077 407.863C116.513 407.863 115.95 407.863 115.668 407.582C112.286 407.018 109.75 407.3 107.496 409.554C105.241 411.809 105.241 414.063 105.523 417.727C105.523 418.29 105.523 418.854 105.805 419.136C106.087 420.545 106.369 421.954 106.369 423.644C106.087 422.799 105.523 422.235 105.241 421.39C111.723 434.071 120.177 446.47 130.604 456.897C132.576 458.87 134.831 461.124 137.085 462.815C135.958 461.688 134.831 460.561 133.422 459.715C133.985 458.024 133.985 456.333 133.422 454.079C133.422 453.515 133.422 452.952 133.14 452.67C132.576 448.161 131.731 443.371 136.24 438.862C140.467 434.635 145.539 435.198 150.048 435.762C150.611 435.762 151.175 435.762 151.457 436.044C154.839 436.607 157.375 436.326 159.629 434.071C161.884 431.817 161.884 429.562 161.602 425.899C161.602 425.335 161.602 424.772 161.32 424.49C160.756 419.981 159.911 415.19 164.42 410.681C168.647 406.454 173.156 407.018 177.665 407.582L178.228 407.582C178.792 407.582 179.355 407.582 179.637 407.863C183.019 408.427 185.555 408.145 187.809 405.891C190.064 403.636 190.064 401.382 189.782 397.719C189.782 397.155 189.782 396.591 189.5 396.31C188.937 391.801 188.091 387.01 192.6 382.501C196.827 378.274 201.9 378.838 206.408 379.401C206.972 379.401 207.536 379.401 207.817 379.683C211.199 380.247 213.735 379.965 215.99 377.711C218.244 375.456 218.244 373.202 217.962 369.538C217.962 368.975 217.962 368.411 217.962 367.848C217.399 363.339 216.553 358.548 221.062 354.039L208.099 341.076C205.563 343.613 205.845 346.712 206.69 350.939C207.254 355.448 208.099 360.239 203.59 364.748C199.363 368.975 194.291 368.411 189.782 367.848C185.273 367.284 182.455 366.72 179.919 369.257C177.383 371.793 177.665 374.893 178.51 379.12C179.074 383.628 179.919 388.419 175.41 392.928C172.592 395.746 169.774 396.31 166.956 396.31C165.265 396.31 163.293 396.028 161.884 395.746C157.375 395.182 154.557 394.619 152.021 397.155C149.484 399.691 149.766 402.791 150.611 407.018C151.175 411.527 152.021 416.318 147.512 420.826C143.285 425.053 138.212 424.49 133.703 423.926C129.195 423.363 126.376 422.799 123.84 425.335C121.304 427.871 121.586 430.971 122.431 435.198C122.995 438.58 123.558 442.525 121.586 446.189C119.613 445.343 118.768 443.934 117.359 442.525C117.359 440.834 117.359 439.144 117.077 436.607C116.513 432.098 115.668 427.308 120.177 422.799C124.404 418.572 129.476 419.136 133.985 419.699C138.494 420.263 141.312 420.826 143.848 418.29C146.384 415.754 146.103 412.654 145.257 408.427C144.694 403.918 143.848 399.128 148.357 394.619C152.584 390.392 157.093 390.955 161.602 391.519L162.165 391.519C166.674 392.083 169.492 392.646 172.028 390.11C174.565 387.574 174.283 384.474 173.437 380.247C172.874 375.738 172.028 370.947 176.537 366.438C180.764 362.211 185.837 362.775 190.346 363.339C194.854 363.902 197.673 364.466 200.209 361.93C202.745 359.393 202.463 356.294 201.618 352.067C201.054 347.558 200.209 342.767 204.718 338.258L191.755 325.295C189.5 327.55 189.218 330.086 189.782 333.468Z" fill="#EDF1FD"/>
<path d="M143.003 277.107C140.467 279.643 140.748 282.743 141.594 286.97C142.157 291.479 143.003 296.27 138.494 300.779C134.267 305.006 129.194 304.442 124.686 303.878C120.177 303.315 117.359 302.751 114.823 305.287C112.286 307.824 112.568 310.923 113.414 315.15C113.977 319.659 114.823 324.45 110.314 328.959C107.496 331.777 104.678 332.34 101.86 332.34C100.169 332.34 98.1962 332.059 96.7872 331.777C95.66 331.777 94.5328 331.213 93.6874 331.495C93.9692 330.086 94.251 328.677 94.8146 326.986C91.1511 341.922 89.7421 356.857 90.8693 372.075C92.5601 372.075 93.9692 371.229 95.3782 369.82C97.6326 367.566 97.6326 365.311 97.3508 361.648C97.3508 361.084 97.3508 360.521 97.069 360.239C96.5054 355.73 95.66 350.939 100.169 346.431C104.396 342.203 108.905 342.767 113.414 343.331L113.977 343.331C114.541 343.331 115.104 343.331 115.386 343.612C118.768 344.176 121.304 343.894 123.558 341.64C125.813 339.385 125.813 337.131 125.531 333.468C125.531 332.904 125.531 332.34 125.249 332.059C124.686 327.55 123.84 322.759 128.349 318.25C132.576 314.023 137.649 314.587 142.157 315.15C142.721 315.15 143.285 315.15 143.566 315.432C146.948 315.996 149.484 315.714 151.739 313.46C153.993 311.205 153.993 308.951 153.711 305.287C153.711 304.724 153.711 304.16 153.711 303.597C153.148 299.088 152.302 294.297 156.811 289.788L143.566 276.544L143.003 277.107Z" fill="#EDF1FD"/>
<path d="M221.907 365.593C221.907 366.157 221.907 366.721 222.189 367.002C222.753 371.511 223.598 376.302 219.089 380.811C214.862 385.038 209.79 384.474 205.281 383.911C204.717 383.911 204.154 383.911 203.872 383.629C200.49 383.065 197.954 383.347 195.7 385.601C193.445 387.856 193.445 390.11 193.727 393.774C193.727 394.337 193.727 394.901 194.009 395.183C194.572 399.691 195.418 404.482 190.909 408.991C188.091 411.809 185.273 412.373 182.455 412.373C180.764 412.373 178.791 412.091 177.382 411.809C176.819 411.809 176.255 411.809 175.973 411.527C172.592 410.964 170.056 411.245 167.801 413.5C165.547 415.754 165.547 418.009 165.828 421.672C165.828 422.236 165.828 422.799 166.11 423.081C166.674 427.59 167.519 432.381 163.01 436.889C158.783 441.116 153.711 440.553 149.202 439.989C148.639 439.989 148.075 439.989 147.793 439.707C144.412 439.144 141.875 439.426 139.621 441.68C137.366 443.934 137.366 446.189 137.648 449.852C137.648 450.416 137.648 450.98 137.93 451.261C138.494 454.643 139.057 458.588 136.803 462.533C146.102 470.706 156.247 477.469 166.956 482.541C166.11 482.26 165.828 481.978 164.983 481.696C164.701 478.596 164.701 474.651 168.365 470.987C172.592 466.76 177.664 467.324 182.173 467.888C182.737 467.888 183.3 467.888 183.582 468.169C186.964 468.733 189.5 468.451 191.754 466.197C194.009 463.942 194.009 461.688 193.727 458.025C193.727 457.461 193.727 456.897 193.445 456.616C192.882 452.107 192.036 447.316 196.545 442.807C200.772 438.58 205.281 439.144 209.79 439.707L210.353 439.707C210.917 439.707 211.48 439.707 211.762 439.989C215.144 440.553 217.68 440.271 219.935 438.017C222.189 435.762 222.189 433.508 221.907 429.844C221.907 429.281 221.907 428.717 221.625 428.435C221.062 423.926 220.216 419.136 224.725 414.627C228.952 410.4 234.025 410.964 238.534 411.527C239.097 411.527 239.661 411.527 239.943 411.809C243.324 412.373 245.86 412.091 248.115 409.836C250.369 407.582 250.369 405.328 250.087 401.664C250.087 401.1 250.087 400.537 250.087 399.973C249.524 395.464 248.678 390.674 253.187 386.165L240.224 373.202C237.688 375.738 237.97 378.838 238.815 383.065C239.379 387.574 240.224 392.365 235.716 396.873C231.488 401.1 226.416 400.537 221.907 399.973C217.398 399.41 214.58 398.846 212.044 401.382C209.508 403.919 209.79 407.018 210.635 411.245C211.199 415.754 212.044 420.545 207.535 425.054C204.717 427.872 201.899 428.435 199.081 428.435C197.39 428.435 195.418 428.154 194.009 427.872C189.5 427.308 186.682 426.745 184.146 429.281C181.609 431.817 181.891 434.917 182.737 439.144C183.3 443.653 184.146 448.443 179.637 452.952C175.41 457.179 170.337 456.616 165.828 456.052C161.32 455.488 158.502 454.925 155.965 457.461C153.429 459.997 153.711 463.097 154.556 467.324C154.838 469.86 155.402 472.678 154.838 475.496C153.429 474.651 152.02 473.806 150.329 472.678C149.766 472.115 149.484 470.706 149.202 468.733C148.639 464.224 147.793 459.434 152.302 454.925C156.529 450.698 161.601 451.261 166.11 451.825C170.619 452.389 173.437 452.952 175.973 450.416C178.51 447.88 178.228 444.78 177.382 440.553C176.819 436.044 175.973 431.253 180.482 426.745C184.709 422.517 189.218 423.081 193.727 423.645L194.291 423.645C198.799 424.208 201.617 424.772 204.154 422.236C206.69 419.699 206.408 416.6 205.563 412.373C204.999 407.864 204.154 403.073 208.662 398.564C212.89 394.337 217.962 394.901 222.471 395.464C226.98 396.028 229.798 396.592 232.334 394.055C234.87 391.519 234.588 388.419 233.743 384.192C233.179 379.684 232.334 374.893 236.843 370.384L223.88 357.421C221.625 359.676 221.344 362.212 221.907 365.593Z" fill="#EDF1FD"/>
<path d="M323.356 457.461C270.096 510.722 183.864 510.722 130.322 457.179C77.0609 403.918 77.0609 317.687 130.322 264.426L323.356 457.461Z" stroke="#EDF1FD" stroke-width="1.3589" stroke-miterlimit="10"/>
</g>
<g opacity="0.1">
<path d="M546 313.66C599.261 260.399 685.774 260.117 739.316 313.66C792.577 366.92 792.859 453.434 739.317 506.976L546 313.66V313.66Z" stroke="white" stroke-width="1.3589" stroke-miterlimit="10"/>
<path d="M658.721 278.153L655.621 281.253L658.721 284.352L661.821 281.253L658.721 278.153Z" fill="white"/>
<path d="M687.747 281.252L690.565 284.634L692.255 282.943C691.128 282.379 689.437 281.816 687.747 281.252Z" fill="white"/>
<path d="M690.846 310.278L687.746 313.378L690.846 316.478L693.946 313.378L690.846 310.278Z" fill="white"/>
<path d="M594.47 284.352L597.57 281.252C595.879 281.816 594.47 282.661 593.061 282.943L594.47 284.352Z" fill="white"/>
<path d="M626.595 278.153L623.496 281.252L626.595 284.352L629.695 281.252L626.595 278.153Z" fill="white"/>
<path d="M626.596 310.278L623.496 313.378L626.596 316.478L629.695 313.378L626.596 310.278Z" fill="white"/>
<path d="M658.721 310.278L655.621 313.378L658.721 316.478L661.821 313.378L658.721 310.278Z" fill="white"/>
<path d="M658.721 342.403L655.621 345.503L658.721 348.603L661.821 345.503L658.721 342.403Z" fill="white"/>
<path d="M690.846 342.404L687.747 345.503L690.846 348.603L693.946 345.503L690.846 342.404Z" fill="white"/>
<path d="M690.846 374.529L687.747 377.629L690.846 380.729L693.946 377.629L690.846 374.529Z" fill="white"/>
<path d="M562.063 310.559L558.963 313.659L562.063 316.759L565.163 313.659L562.063 310.559Z" fill="white"/>
<path d="M594.188 310.56L591.088 313.66L594.188 316.76L597.288 313.66L594.188 310.56Z" fill="white"/>
<path d="M594.188 342.685L591.088 345.785L594.188 348.885L597.288 345.785L594.188 342.685Z" fill="white"/>
<path d="M626.313 342.685L623.214 345.785L626.313 348.885L629.413 345.785L626.313 342.685Z" fill="white"/>
<path d="M626.314 374.811L623.214 377.911L626.314 381.01L629.413 377.911L626.314 374.811Z" fill="white"/>
<path d="M658.439 374.811L655.339 377.911L658.439 381.01L661.539 377.911L658.439 374.811Z" fill="white"/>
</g>
<g opacity="0.1">
<path d="M144.648 -27C193.963 29.9337 188.056 116.246 130.821 165.821C73.8877 215.136 -12.4243 209.229 -62 151.994L144.648 -27V-27Z" stroke="#EAEEFD" stroke-width="1.3589" stroke-miterlimit="10"/>
<path d="M172.002 87.9718L169.132 84.6582L165.818 87.5283L168.688 90.842L172.002 87.9718Z" fill="#EAEEFD"/>
<path d="M166.834 116.702L163.26 119.27L164.825 121.078C165.468 119.994 166.151 118.348 166.834 116.702Z" fill="#EAEEFD"/>
<path d="M137.661 117.717L134.791 114.403L131.477 117.274L134.348 120.587L137.661 117.717Z" fill="#EAEEFD"/>
<path d="M135.364 149.761L132.494 146.447L129.18 149.317L132.05 152.631L135.364 149.761Z" fill="#EAEEFD"/>
<path d="M103.32 147.463L100.45 144.149L97.1363 147.019L100.007 150.333L103.32 147.463Z" fill="#EAEEFD"/>
<path d="M101.023 179.506L98.1525 176.193L94.8389 179.063L97.7091 182.376L101.023 179.506Z" fill="#EAEEFD"/>
<path d="M68.6779 177.469L65.8077 174.155L62.4941 177.025L65.3643 180.339L68.6779 177.469Z" fill="#EAEEFD"/>
<path d="M170.414 23.4421L173.284 26.7557C172.843 25.0289 172.101 23.5631 171.92 22.1375L170.414 23.4421Z" fill="#EAEEFD"/>
<path d="M174.3 55.9287L171.43 52.6151L168.116 55.4853L170.986 58.7988L174.3 55.9287Z" fill="#EAEEFD"/>
<path d="M142.257 53.6311L139.387 50.3175L136.073 53.1876L138.943 56.5012L142.257 53.6311Z" fill="#EAEEFD"/>
<path d="M139.959 85.674L137.089 82.3604L133.775 85.2306L136.645 88.5441L139.959 85.674Z" fill="#EAEEFD"/>
<path d="M107.916 83.3764L105.046 80.0628L101.732 82.9329L104.602 86.2465L107.916 83.3764Z" fill="#EAEEFD"/>
<path d="M105.618 115.419L102.748 112.106L99.4343 114.976L102.304 118.29L105.618 115.419Z" fill="#EAEEFD"/>
<path d="M73.5749 113.122L70.7047 109.808L67.3911 112.678L70.2613 115.992L73.5749 113.122Z" fill="#EAEEFD"/>
<path d="M71.277 145.165L68.4068 141.851L65.0932 144.721L67.9633 148.035L71.277 145.165Z" fill="#EAEEFD"/>
<path d="M38.9326 143.128L36.0625 139.815L32.7489 142.685L35.619 145.998L38.9326 143.128Z" fill="#EAEEFD"/>
<path d="M36.6347 175.171L33.7646 171.858L30.451 174.728L33.3211 178.041L36.6347 175.171Z" fill="#EAEEFD"/>
<path d="M4.59178 172.874L1.7216 169.56L-1.59202 172.43L1.27816 175.744L4.59178 172.874Z" fill="#EAEEFD"/>
<path d="M144.294 21.2864L141.423 17.9728L138.11 20.8429L140.98 24.1565L144.294 21.2864Z" fill="#EAEEFD"/>
<path d="M112.251 18.9888L109.38 15.6751L106.067 18.5453L108.937 21.8589L112.251 18.9888Z" fill="#EAEEFD"/>
<path d="M109.953 51.0317L107.083 47.7181L103.769 50.5883L106.639 53.9019L109.953 51.0317Z" fill="#EAEEFD"/>
<path d="M77.9096 48.734L75.0394 45.4204L71.7258 48.2906L74.596 51.6042L77.9096 48.734Z" fill="#EAEEFD"/>
<path d="M75.6116 80.7773L72.7415 77.4637L69.4279 80.3338L72.2981 83.6474L75.6116 80.7773Z" fill="#EAEEFD"/>
<path d="M43.5685 78.4796L40.6984 75.166L37.3848 78.0362L40.2549 81.3498L43.5685 78.4796Z" fill="#EAEEFD"/>
<path d="M41.2706 110.523L38.4004 107.209L35.0868 110.079L37.957 113.393L41.2706 110.523Z" fill="#EAEEFD"/>
<path d="M8.92633 108.486L6.05616 105.172L2.74255 108.042L5.61272 111.356L8.92633 108.486Z" fill="#EAEEFD"/>
<path d="M6.62841 140.529L3.75825 137.215L0.444652 140.086L3.31482 143.399L6.62841 140.529Z" fill="#EAEEFD"/>
</g>
</g>
</g>
<defs>
<linearGradient id="paint0_linear_1506_1706" x1="-345" y1="507.5" x2="233.47" y2="-429.981" gradientUnits="userSpaceOnUse">
<stop stop-color="#65C1BE"/>
<stop offset="0.729167" stop-color="#448BB4"/>
</linearGradient>
<clipPath id="clip0_1506_1706">
<rect width="696" height="384" fill="white"/>
</clipPath>
</defs>
</svg>
