<svg width="1600" height="681" viewBox="0 0 1600 681" fill="none" xmlns="http://www.w3.org/2000/svg">
<rect width="1600" height="681" fill="url(#paint0_linear_1326_60)"/>
<mask id="mask0_1326_60" style="mask-type:alpha" maskUnits="userSpaceOnUse" x="0" y="0" width="1600" height="681">
<rect width="1600" height="681" fill="white"/>
</mask>
<g mask="url(#mask0_1326_60)">
<g filter="url(#filter0_f_1326_60)">
<path d="M1039 -155L1189.2 307.268H1675.26L1282.03 592.965L1432.23 1055.23L1039 769.535L645.772 1055.23L795.971 592.965L402.743 307.268H888.8L1039 -155Z" fill="url(#paint1_linear_1326_60)" fill-opacity="0.4"/>
</g>
<g opacity="0.3">
<path d="M4.10959 -51.4743C17.8213 4.6432 49.8153 58.7323 36.1036 117.047C19.3448 182.123 -3.50803 244.664 0.453133 309.655C0.453133 318.867 0.453133 328.164 0.453133 337.376" stroke="url(#paint2_linear_1326_60)" stroke-miterlimit="10"/>
<path d="M37.9315 -59.5877C52.7097 -13.95 87.7507 29.1523 89.2743 76.4803C90.7978 131.415 51.1862 182.968 38.998 237.903C32.9039 265.792 31.3804 292.837 31.6851 319.628C31.6851 327.995 31.6851 336.446 31.6851 344.813" stroke="url(#paint3_linear_1326_60)" stroke-miterlimit="10"/>
<path d="M72.2128 -67.7011C141.228 19.7712 159.511 114.427 90.9522 207.393C63.5288 244.579 60.4817 285.146 63.2241 326.051C63.2241 334.756 63.2241 343.461 63.2241 352.166" stroke="url(#paint4_linear_1326_60)" stroke-miterlimit="10"/>
<path d="M106.034 -75.7317C121.269 -48.6026 141.075 -23.2483 163.928 2.95112C240.104 88.3106 139.551 168.599 106.034 253.959C95.3691 281.003 93.8456 306.358 94.455 332.641C94.455 341.685 94.455 350.643 94.455 359.686" stroke="url(#paint5_linear_1326_60)" stroke-miterlimit="10"/>
<path d="M139.394 -83.5902C185.404 -17.4155 279.863 46.8154 229.587 122.033C182.357 193.025 115.322 261.482 125.987 338.981C125.987 348.278 125.987 357.659 125.987 366.956" stroke="url(#paint6_linear_1326_60)" stroke-miterlimit="10"/>
<path d="M171.851 -91.1132C200.646 -48.687 252.446 -14.0361 278.346 29.0662C327.098 110.2 215.881 180.347 174.746 255.565C159.511 285.99 156.464 317.26 157.378 348.699C157.378 357.235 157.378 365.856 157.378 374.392" stroke="url(#paint7_linear_1326_60)" stroke-miterlimit="10"/>
<path d="M203.231 -98.4641C229.588 -57.1365 282.912 -24.176 314.906 16.3909C337.758 43.4355 340.805 73.8607 327.094 102.596C287.482 181.194 186.93 245.425 189.063 328.671C188.758 337.63 188.758 346.504 188.758 355.378C188.758 364.167 188.758 373.041 188.758 381.831" stroke="url(#paint8_linear_1326_60)" stroke-miterlimit="10"/>
<path d="M233.7 -105.479C261.58 -63.0532 314.904 -28.4023 351.468 12.1645C391.08 56.112 371.274 105.13 336.233 147.387C285.957 207.393 215.875 265.707 220.293 334.502C219.988 343.714 219.988 352.842 219.988 361.969C219.988 371.097 219.988 380.14 219.988 389.267" stroke="url(#paint9_linear_1326_60)" stroke-miterlimit="10"/>
<path d="M263.416 -112.408C285.964 -77.4187 322.529 -48.6838 359.093 -16.5684C407.846 25.6888 421.558 73.862 389.564 120.345C340.811 193.872 246.353 258.948 251.533 340.336C251.38 349.801 251.38 359.182 251.38 368.563C251.38 377.944 251.38 387.326 251.38 396.707" stroke="url(#paint10_linear_1326_60)" stroke-miterlimit="10"/>
<path d="M292.519 -119.17C316.438 -79.1104 360.62 -46.1498 398.708 -8.96354C448.985 38.3645 444.414 93.2988 406.326 141.472C353.003 209.929 270.732 275.005 282.768 351.997C282.768 360.702 282.768 369.407 282.768 378.028C282.768 386.648 282.768 395.437 282.768 404.058" stroke="url(#paint11_linear_1326_60)" stroke-miterlimit="10"/>
<path d="M321.311 -125.933C330.148 -110.298 339.289 -95.0851 353.001 -80.7177C395.659 -37.6153 450.506 1.26122 459.647 50.2795C474.883 124.652 392.612 186.348 343.859 252.269C317.96 286.075 313.389 321.571 314.151 357.996C314.151 366.955 314.151 375.829 314.151 384.787C314.151 393.746 314.151 402.62 314.151 411.578" stroke="url(#paint12_linear_1326_60)" stroke-miterlimit="10"/>
<path d="M350.262 -132.861C356.051 -113.761 369.763 -95.1676 388.045 -77.4196C450.51 -15.7242 514.498 51.0422 471.839 123.724C429.181 195.562 343.863 258.947 345.539 336.278C345.387 345.49 345.387 354.702 345.387 363.914C345.387 382.254 345.387 400.678 345.387 419.018" stroke="url(#paint13_linear_1326_60)" stroke-miterlimit="10"/>
<path d="M379.501 -139.876C384.833 -122.213 392.451 -105.31 404.639 -89.2523C445.774 -39.3888 505.191 7.93923 506.715 64.5638C506.715 131.33 445.774 189.645 403.115 251.341C383.31 280.075 374.168 310.501 376.758 341.517C376.758 350.983 376.758 360.364 376.758 369.83C376.758 388.676 376.758 407.523 376.758 426.454" stroke="url(#paint14_linear_1326_60)" stroke-miterlimit="10"/>
<path d="M409.357 -147.059C412.404 -135.735 412.404 -124.748 418.499 -113.761C456.587 -46.1494 538.857 12.1655 525.145 85.693C514.48 154.995 447.445 211.619 416.975 279.231C410.881 296.134 407.834 311.346 408.291 328.165C408.291 336.954 408.291 345.743 408.291 354.617C408.291 380.986 408.291 407.439 408.291 433.807" stroke="url(#paint15_linear_1326_60)" stroke-miterlimit="10"/>
<path d="M439.831 -154.328C441.202 -133.114 445.773 -111.141 461.008 -90.8573C466.34 -83.5045 471.673 -76.1518 477.005 -68.7145C482.337 -61.2773 487.517 -53.84 492.697 -46.3182C502.143 -30.8521 512.808 -16.4847 520.425 -0.934024C524.386 6.67226 528.043 14.3631 531.09 22.0539C546.63 60.5924 550.134 100.145 528.043 140.712C493.002 204.943 430.537 264.948 439.374 333.067C439.374 342.11 439.374 351.153 439.374 360.111C439.374 387.156 439.374 414.285 439.374 441.329" stroke="url(#paint16_linear_1326_60)" stroke-miterlimit="10"/>
<path d="M470.918 -161.768C470.461 -154.838 470.766 -147.992 471.527 -141.146C472.441 -134.385 473.813 -127.624 475.945 -120.947C477.926 -106.073 487.067 -91.7053 494.685 -77.3379C516.014 -39.3064 548.008 -3.8104 558.52 34.9817C560.196 41.4893 561.415 47.9969 562.177 54.5045C565.986 87.0425 558.216 119.834 541.914 152.541C516.014 205.785 473.356 254.803 471.07 309.907C471.07 319.203 471.07 328.5 471.07 337.712C471.07 374.729 471.07 411.662 471.07 448.679" stroke="url(#paint17_linear_1326_60)" stroke-miterlimit="10"/>
<path d="M502.312 -169.119C502.312 -145.793 499.265 -122.129 512.977 -98.4646C541.924 -46.0657 569.347 5.48804 577.879 60.6759C578.945 68.9583 579.402 77.2407 579.25 85.5231C578.945 110.455 572.851 135.556 558.682 160.91C535.829 202.322 512.977 242.889 503.835 285.061C502.464 294.95 502.464 304.5 502.464 313.965C502.464 361.293 502.464 408.706 502.464 456.034" stroke="url(#paint18_linear_1326_60)" stroke-miterlimit="10"/>
<path d="M533.98 -176.557C534.285 -156.78 531.238 -136.497 538.856 -117.059C569.326 -49.4471 592.179 16.4741 592.179 85.2687C592.179 93.2976 591.874 101.326 591.265 109.355C590.655 117.384 589.589 125.413 588.065 133.442C586.542 141.471 584.714 149.5 582.428 157.613C573.897 188.799 555.614 218.379 540.836 247.79C538.551 253.79 536.723 259.875 535.504 266.045C532.914 278.384 532.457 290.977 533.676 303.485C533.676 312.359 533.676 321.233 533.676 330.191C533.676 374.646 533.676 419.1 533.676 463.555" stroke="url(#paint19_linear_1326_60)" stroke-miterlimit="10"/>
<path d="M566.441 -183.992C567.812 -159.399 563.242 -134.89 573.907 -110.38C602.854 -46.9947 610.471 14.7008 610.928 78.5091C610.928 85.9463 610.776 93.3836 610.319 100.821C609.862 108.258 609.252 115.695 608.491 123.133C607.576 131.415 606.358 139.613 604.682 147.895C604.377 157.614 601.33 166.911 596.759 177.053C573.907 235.368 557.148 290.302 565.07 348.194C565.07 355.04 565.07 361.801 565.07 368.647C565.07 402.791 565.07 436.85 565.07 470.994" stroke="url(#paint20_linear_1326_60)" stroke-miterlimit="10"/>
<path d="M599.956 -191.43C604.374 -161.935 601.327 -133.2 613.515 -103.62C643.986 -33.4731 630.274 34.9835 629.36 104.285C628.75 112.483 627.989 120.681 626.922 128.879C621.133 171.897 604.374 214.999 596.756 258.101C589.139 303.739 596.756 349.377 596.452 394.592C596.452 401.607 596.452 408.537 596.452 415.552C596.452 436.511 596.452 457.386 596.452 478.346" stroke="url(#paint21_linear_1326_60)" stroke-miterlimit="10"/>
<path d="M634.852 -198.868C659.228 -98.5499 666.845 2.02215 654.2 103.608C651.763 112.144 649.325 120.596 647.192 129.132C623.425 222.774 620.226 316.584 627.843 410.902C627.843 419.269 627.843 427.552 627.843 435.834C627.843 452.483 627.843 469.133 627.843 485.782" stroke="url(#paint22_linear_1326_60)" stroke-miterlimit="10"/>
<path d="M670.964 -206.304C721.697 -109.535 698.844 -8.96331 677.515 90.172C675.23 98.2009 673.249 106.23 671.268 114.174C648.111 218.465 646.435 323.601 659.08 428.567C659.08 435.751 659.08 442.935 659.08 450.118C659.08 464.486 659.08 478.853 659.08 493.136" stroke="url(#paint23_linear_1326_60)" stroke-miterlimit="10"/>
<path d="M707.828 -213.742C732.357 -163.625 776.539 -116.297 759.78 -62.2081C739.975 -0.512602 694.269 55.2668 695.792 117.047C695.031 124.061 694.116 131.076 693.05 138.175C687.87 173.333 679.795 208.407 675.987 243.734C668.369 315.571 691.222 385.718 690.46 456.625C690.46 463.978 690.46 471.246 690.46 478.599C690.46 485.952 690.46 493.22 690.46 500.573" stroke="url(#paint24_linear_1326_60)" stroke-miterlimit="10"/>
<path d="M745.158 -221.265C782.637 -168.697 852.719 -115.453 817.678 -56.2933C781.113 3.71189 723.219 59.4914 720.172 123.722C717.43 131.92 714.992 140.118 712.859 148.231C685.131 254.043 704.632 353.939 721.848 457.554C721.848 466.005 721.848 474.372 721.848 482.824C721.848 491.275 721.848 499.642 721.848 508.093" stroke="url(#paint25_linear_1326_60)" stroke-miterlimit="10"/>
<path d="M782.474 -228.701C843.568 -168.696 951.738 -102.775 860.327 -30.0924C800.909 18.0807 756.727 65.4087 749.262 122.033C747.433 129.809 745.453 137.668 743.472 145.444C728.846 199.871 707.822 253.369 717.268 308.81C726.409 362.899 750.785 414.453 753.223 467.697C753.375 475.726 753.375 483.67 753.375 491.614C753.375 499.559 753.375 507.503 753.375 515.447" stroke="url(#paint26_linear_1326_60)" stroke-miterlimit="10"/>
<path d="M819.195 -236.224C849.665 -205.883 889.277 -182.219 925.842 -152.639C970.024 -117.989 979.165 -76.5765 933.459 -41.0805C863.377 13.8538 787.201 62.8722 773.489 129.807C771.204 137.245 768.919 144.682 766.329 152.119C758.863 174.431 750.179 196.996 741.648 220.153C714.224 300.442 758.406 372.279 781.259 450.032C785.83 465.245 784.306 480.457 784.763 495.839C784.763 504.882 784.763 513.925 784.763 522.968" stroke="url(#paint27_linear_1326_60)" stroke-miterlimit="10"/>
<path d="M854.247 -243.66C890.812 -211.798 938.041 -185.599 982.223 -155.173C1094.96 -81.6459 953.276 -14.8796 874.053 43.4352C834.441 71.325 807.018 102.595 795.896 136.908C792.544 144.937 789.04 152.966 785.536 160.995C775.176 185.081 764.207 209.421 756.894 234.522C730.994 313.966 785.841 384.112 810.217 461.02C816.311 476.233 817.835 491.446 816.159 506.743C816.159 514.602 816.159 522.547 816.159 530.407" stroke="url(#paint28_linear_1326_60)" stroke-miterlimit="10"/>
<path d="M887.294 -251.181C892.322 -245.603 901.463 -241.377 907.557 -235.461C963.927 -194.894 1041.63 -166.159 1069.05 -117.986C1113.23 -43.6135 966.974 0.333957 895.369 57.8037C861.851 84.0031 834.428 109.357 820.564 138.768C816.45 146.29 812.336 153.727 808.375 161.165C783.847 205.704 759.318 249.482 767.393 296.979C778.057 359.52 823.763 413.609 843.569 476.15C846.616 487.982 848.139 498.968 847.225 509.533C847.378 518.998 847.378 528.379 847.378 537.761" stroke="url(#paint29_linear_1326_60)" stroke-miterlimit="10"/>
<path d="M917.914 -258.619C927.36 -250.674 936.501 -243.068 948.689 -236.307C1055.34 -180.527 1201.59 -99.3937 1066 -19.9502C982.207 29.9132 884.701 74.7058 844.633 139.613C840.062 146.797 835.339 153.896 830.769 161.079C821.475 175.362 811.725 189.645 802.583 204.013C743.166 295.288 825.436 380.648 868.095 469.388C875.713 485.445 878.76 500.658 878.607 516.378C878.76 526.012 878.76 535.562 878.76 545.113" stroke="url(#paint30_linear_1326_60)" stroke-miterlimit="10"/>
<path d="M946.558 -265.972C954.785 -259.042 963.926 -253.126 973.067 -246.364C1064.48 -188.895 1233.59 -122.128 1123.9 -36.7688C1038.58 31.6878 915.174 74.7901 860.631 149.078C854.994 156.431 849.357 163.784 843.72 171.136C832.598 185.842 821.781 200.716 813.097 215.929C790.245 253.115 794.815 291.147 810.05 329.178C838.997 397.635 907.556 455.95 909.689 525.251C909.993 534.463 909.993 543.591 909.993 552.634" stroke="url(#paint31_linear_1326_60)" stroke-miterlimit="10"/>
<path d="M973.232 -273.41C1018.79 -235.463 1079.73 -205.883 1133.05 -169.542C1291.5 -63.8987 1056.87 25.6864 939.562 100.059C919.757 113.581 902.998 127.949 889.743 142.908C883.344 149.838 876.945 156.853 870.851 163.783C858.511 177.643 846.323 191.588 835.963 205.702C800.922 253.03 811.586 304.584 840.533 351.912C877.098 411.917 939.562 467.696 940.933 532.096C941.39 541.477 941.391 550.774 941.391 559.986" stroke="url(#paint32_linear_1326_60)" stroke-miterlimit="10"/>
<path d="M998.824 -280.761C1032.49 -249.828 1076.68 -223.629 1123.91 -197.429C1222.93 -142.495 1238.17 -61.3614 1140.66 -1.35621C1059.92 48.5072 974.6 90.7644 910.764 146.375C904.518 151.953 898.576 157.531 892.634 163.109C857.593 196.576 828.646 230.636 829.865 269.935C834.436 345.152 915.183 408.538 956.318 479.53C966.982 498.969 971.553 518.407 972.467 539.028C972.772 548.578 972.924 558.044 972.924 567.425" stroke="url(#paint33_linear_1326_60)" stroke-miterlimit="10"/>
<path d="M1023.8 -288.116C1038.58 -273.41 1055.34 -259.888 1073.62 -246.366C1148.28 -195.657 1253.4 -145.794 1224.45 -73.9565C1193.98 2.95152 1085.81 51.1246 992.876 105.214C965.453 121.272 942.6 139.02 922.946 157.697C915.481 164.374 908.016 171.05 900.703 177.812C893.542 184.573 886.534 191.334 879.983 198.18C784.001 298.752 933.306 392.562 988.153 485.528C998.818 505.812 1003.39 526.095 1003.54 546.04C1003.85 555.76 1004 565.31 1004 574.944" stroke="url(#paint34_linear_1326_60)" stroke-miterlimit="10"/>
<path d="M1048.79 -295.467C1056.86 -284.395 1067.52 -274.254 1079.71 -264.112C1152.84 -204.952 1265.58 -155.088 1242.73 -79.0255C1216.83 7.17914 1091.9 62.9586 989.825 125.499C980.684 131.415 973.066 137.331 964.992 143.754C957.374 149.755 949.909 155.671 942.596 161.671C891.71 203.506 847.376 246.608 874.037 300.444C901.461 358.759 957.831 406.087 1000.49 460.176C1023.34 490.601 1035.53 521.871 1035.23 554.916C1035.53 564.128 1035.53 573.256 1035.53 582.384" stroke="url(#paint35_linear_1326_60)" stroke-miterlimit="10"/>
<path d="M1074.53 -302.905C1105.61 -254.055 1174.17 -218.559 1221.4 -172.922C1347.85 -52.9113 1145.23 53.5767 1005.06 134.71C995.921 140.626 988.303 146.543 980.076 152.797C972.154 158.797 964.384 164.882 956.766 171.052C904.205 214.069 866.574 260.045 902.834 313.881C959.204 396.705 1074.99 469.387 1066.46 561.761C1066.61 571.142 1066.76 580.439 1066.76 589.736" stroke="url(#paint36_linear_1326_60)" stroke-miterlimit="10"/>
<path d="M1101.66 -310.258C1123.91 -263.352 1178.75 -227.011 1229.03 -184.754C1347.87 -83.3367 1222.94 19.7707 1102.58 96.6788C1070.58 116.962 1034.02 132.175 1008.88 153.726C999.74 160.572 990.903 167.417 982.372 174.347C923.107 223.028 885.018 275.511 942.608 335.854C1006.6 401.775 1088.87 463.471 1096.48 539.872C1097.7 549.676 1098.01 559.226 1098.31 568.776C1098.31 578.241 1098.31 587.707 1098.31 597.173" stroke="url(#paint37_linear_1326_60)" stroke-miterlimit="10"/>
<path d="M1130.75 -317.611C1134.41 -290.313 1158.78 -267.494 1183.16 -243.83C1234.96 -194.811 1295.9 -145.793 1288.28 -88.3234C1276.1 2.10694 1164.88 74.7893 1066 142.401C1058.38 147.387 1050.77 152.289 1042.84 157.275C988.15 192.095 929.342 228.098 943.967 277.624C965.297 346.925 1046.04 398.479 1093.27 460.175C1114.6 488.064 1126.79 516.799 1128.31 546.717C1129.08 556.521 1129.23 566.24 1129.53 575.875C1129.53 585.509 1129.53 595.059 1129.53 604.694" stroke="url(#paint38_linear_1326_60)" stroke-miterlimit="10"/>
<path d="M1161.07 -325.047C1165.03 -268.422 1232.07 -223.629 1271.68 -172.921C1360.04 -62.207 1225.97 50.197 1110.64 136.402C1101.35 141.726 1092.36 147.219 1083.53 152.797C1004.3 203.083 939.552 263.934 1006.74 331.63C1076.82 403.467 1165.19 472.769 1160.77 556.776C1160.92 565.988 1161.07 575.2 1161.22 584.412C1161.22 593.624 1161.22 602.752 1161.22 611.964" stroke="url(#paint39_linear_1326_60)" stroke-miterlimit="10"/>
<path d="M1192.31 -332.485C1186.37 -269.268 1261.02 -217.714 1296.06 -159.399C1360.05 -50.3758 1236.65 51.8865 1145.23 142.317C1137.92 147.726 1130.3 152.966 1122.38 158.206C1067.23 194.631 1002.94 228.268 1020.3 279.23C1041.63 348.532 1122.38 400.086 1163.52 464.316C1184.85 496.432 1193.99 529.392 1192.31 563.452C1192.31 572.748 1192.31 582.129 1192.31 591.426C1192.31 600.723 1192.31 610.104 1192.31 619.4" stroke="url(#paint40_linear_1326_60)" stroke-miterlimit="10"/>
<path d="M1223.69 -339.92C1223.69 -331.131 1223.69 -322.341 1224.14 -313.552C1225.97 -298.846 1227.5 -285.324 1236.64 -271.802C1297.58 -183.907 1370.71 -90.0961 1291.48 2.8697C1267.11 33.2949 1248.82 64.5651 1225.97 95.8354C1215.31 111.893 1200.07 127.106 1182.7 142.572C1175.7 148.91 1168.23 155.249 1160.46 161.503C1137.3 180.265 1111.86 198.774 1091.9 218.381C1008.11 298.67 1140.65 373.888 1189.41 447.415C1216.83 487.137 1224.45 528.549 1223.69 569.961C1223.69 579.426 1223.69 588.892 1223.69 598.358C1223.69 607.823 1223.69 617.289 1223.69 626.754" stroke="url(#paint41_linear_1326_60)" stroke-miterlimit="10"/>
<path d="M1255.08 -347.361C1255.08 -338.909 1255.08 -330.542 1255.08 -322.091C1254.92 -299.695 1259.49 -276.876 1271.68 -254.902C1314.34 -180.529 1367.66 -105.312 1325.01 -26.7132C1299.11 20.6148 1268.64 63.7171 1248.83 113.581C1245.78 120.342 1241.21 127.103 1235.12 133.864C1228.11 141.47 1220.19 149.077 1212.11 156.598C1154.98 209.504 1081.09 262.241 1133.04 326.557C1190.94 397.549 1259.49 467.696 1254.77 547.562C1255.08 557.281 1255.08 566.915 1255.08 576.55C1255.08 595.819 1255.08 615.004 1255.08 634.273" stroke="url(#paint42_linear_1326_60)" stroke-miterlimit="10"/>
<path d="M1286.46 -354.796C1286.46 -346.176 1286.46 -337.471 1286.46 -328.851C1286.46 -320.23 1286.46 -311.525 1286.76 -302.905C1288.44 -250.675 1323.48 -204.192 1344.81 -151.793C1373.76 -81.6461 1338.71 -16.5701 1303.67 49.3511C1289.96 74.7054 1291.49 100.905 1279.3 125.752C1276.4 131.753 1272.9 137.669 1268.94 143.5C1248.83 172.658 1215.77 199.618 1190.93 227.676C1160.46 262.327 1168.08 301.204 1190.93 336.7C1233.59 400.086 1285.39 462.626 1285.7 530.745C1286.15 540.041 1286.31 549.338 1286.46 558.634C1286.46 586.355 1286.46 613.991 1286.46 641.712" stroke="url(#paint43_linear_1326_60)" stroke-miterlimit="10"/>
<path d="M1317.84 -362.149C1317.84 -353.867 1317.84 -345.5 1317.84 -337.218C1317.84 -328.935 1317.84 -320.568 1317.84 -312.286C1317.38 -298.848 1318.91 -284.481 1320.43 -270.958C1334.14 -202.502 1381.37 -137.426 1369.18 -67.279C1358.52 -4.73839 1317.38 52.7314 1316.77 115.103C1316.01 121.442 1314.64 127.696 1312.66 133.865C1302.6 164.628 1277.47 192.772 1253.39 220.915C1222.92 258.946 1222.92 301.203 1244.25 340.925C1280.82 406.001 1321.95 469.387 1317.53 536.66C1317.69 546.041 1317.69 555.423 1317.84 564.804C1317.84 592.862 1317.84 621.006 1317.84 649.064" stroke="url(#paint44_linear_1326_60)" stroke-miterlimit="10"/>
<path d="M1349.07 -369.587C1349.07 -352.685 1349.07 -335.782 1349.07 -318.879C1349.07 -310.427 1349.07 -301.976 1349.07 -293.525C1347.7 -283.552 1349.22 -274.255 1350.74 -264.114C1362.93 -199.038 1394.93 -135.652 1387.31 -69.7306C1379.69 -7.19004 1346.17 52.8151 1348.76 114.933C1348.46 120.342 1348.15 125.582 1347.7 130.822C1346.17 146.542 1342.67 161.754 1332.46 176.967C1298.94 231.056 1268.47 285.99 1295.9 343.46C1327.89 410.226 1352.27 475.302 1349.07 542.491C1349.07 551.957 1349.07 561.507 1349.07 570.972C1349.07 599.454 1349.07 628.02 1349.07 656.501" stroke="url(#paint45_linear_1326_60)" stroke-miterlimit="10"/>
<path d="M1380.46 -377.023C1380.46 -358.853 1380.46 -340.598 1380.46 -322.427C1380.46 -313.299 1380.46 -304.256 1380.46 -295.129C1381.22 -274.338 1381.22 -254.055 1384.27 -232.926C1397.98 -169.541 1414.74 -108.69 1404.07 -45.3046C1396.46 -0.511963 1379.7 42.5903 1380.61 87.2139C1380.46 96.3414 1380.46 105.384 1380.46 114.512C1380.31 124.147 1380.15 133.697 1379.39 143.162C1376.65 178.658 1359.89 211.619 1346.18 247.96C1338.56 273.314 1335.51 296.978 1340.08 322.333C1352.27 378.957 1375.13 433.892 1379.24 490.178C1379.85 499.982 1380.15 509.701 1380.46 519.42C1380.46 567.593 1380.46 615.851 1380.46 664.024" stroke="url(#paint46_linear_1326_60)" stroke-miterlimit="10"/>
<path d="M1411.85 -384.461C1411.85 -356.656 1411.85 -328.851 1411.85 -301.13C1411.85 -291.834 1411.85 -282.622 1411.85 -273.325C1411.7 -250.675 1411.7 -228.701 1417.79 -205.883C1442.17 -106.156 1417.79 -9.80935 1411.7 87.8892C1411.7 97.1858 1411.7 106.398 1411.7 115.694C1411.7 124.991 1411.7 134.203 1411.55 143.415C1411.55 155.839 1411.55 168.516 1406.98 182.038C1374.98 277.539 1393.26 366.279 1408.5 460.09C1411.55 475.303 1413.07 489.67 1411.39 504.629C1411.55 513.926 1411.55 523.138 1411.55 532.435C1411.55 578.748 1411.55 625.062 1411.55 671.376" stroke="url(#paint47_linear_1326_60)" stroke-miterlimit="10"/>
<path d="M1443.23 -391.899C1443.23 -356.234 1443.23 -320.485 1443.23 -284.82C1443.23 -275.861 1443.23 -266.987 1443.23 -258.029C1452.83 -150.864 1454.35 -44.3764 1443.23 63.2104C1443.08 72.1689 1443.08 81.0428 1443.08 90.0014C1443.08 107.834 1443.08 125.666 1443.08 143.499C1442.92 152.88 1442.92 162.261 1442.62 171.558C1429.97 265.707 1426.93 359.518 1442.01 453.159C1442.47 462.71 1442.62 472.091 1443.08 481.556C1443.08 547.308 1443.08 613.061 1443.08 678.813" stroke="url(#paint48_linear_1326_60)" stroke-miterlimit="10"/>
<path d="M1474.62 -399.335C1474.62 -354.12 1474.62 -308.905 1474.62 -263.605C1474.62 -254.562 1474.62 -245.519 1474.62 -236.476C1478.89 -145.877 1480.41 -55.4463 1474.78 34.8995C1474.62 43.9425 1474.62 52.9855 1474.62 62.0286C1474.62 89.1577 1474.62 116.287 1474.62 143.416C1474.62 152.966 1474.62 162.432 1474.62 171.982C1468.22 267.398 1468.22 362.054 1474.47 457.64C1474.62 467.19 1474.62 476.74 1474.62 486.29C1474.62 552.972 1474.62 619.57 1474.62 686.251" stroke="url(#paint49_linear_1326_60)" stroke-miterlimit="10"/>
<path d="M1506 -406.688C1506 -351.416 1506 -296.143 1506 -240.871C1506 -231.659 1506 -222.447 1506 -213.235C1506.3 -139.961 1509.35 -65.5884 1506.15 7.93909C1506 17.1511 1506 26.3632 1506 35.5753C1506 90.8476 1506 146.12 1506 201.392C1506 211.027 1505.84 220.662 1505.69 230.296C1503.25 288.527 1503.25 345.996 1505.54 403.973C1505.69 413.692 1505.84 423.327 1506 433.046C1506 519.927 1506 606.808 1506 693.688" stroke="url(#paint50_linear_1326_60)" stroke-miterlimit="10"/>
<path d="M1537.38 -414.126C1537.38 -358.347 1537.38 -302.567 1537.38 -246.872C1537.38 -228.279 1537.38 -209.686 1537.38 -191.093C1536.77 -135.736 1539.81 -79.9565 1537.38 -23.839C1537.38 -5.24586 1537.38 13.3473 1537.38 31.9405C1537.38 87.7199 1537.38 143.499 1537.38 199.194C1537.38 217.787 1537.38 236.381 1537.38 254.974C1536.77 291.907 1536.77 329.093 1537.23 366.448C1537.38 385.041 1537.38 403.634 1537.38 422.228C1537.38 515.193 1537.38 608.075 1537.38 701.04" stroke="url(#paint51_linear_1326_60)" stroke-miterlimit="10"/>
<path d="M1568.77 -421.562C1568.77 -44.8817 1568.77 331.883 1568.77 708.563" stroke="url(#paint52_linear_1326_60)" stroke-miterlimit="10"/>
<path d="M1600 -429C1600 -47.3334 1600 334.333 1600 716" stroke="url(#paint53_linear_1326_60)" stroke-miterlimit="10"/>
</g>
</g>
<defs>
<filter id="filter0_f_1326_60" x="102.743" y="-455" width="1872.51" height="1810.23" filterUnits="userSpaceOnUse" color-interpolation-filters="sRGB">
<feFlood flood-opacity="0" result="BackgroundImageFix"/>
<feBlend mode="normal" in="SourceGraphic" in2="BackgroundImageFix" result="shape"/>
<feGaussianBlur stdDeviation="150" result="effect1_foregroundBlur_1326_60"/>
</filter>
<linearGradient id="paint0_linear_1326_60" x1="-161" y1="746.046" x2="526.254" y2="-238.527" gradientUnits="userSpaceOnUse">
<stop stop-color="#61BFED"/>
<stop offset="0.729167" stop-color="#15879D"/>
</linearGradient>
<linearGradient id="paint1_linear_1326_60" x1="744.5" y1="173" x2="935.5" y2="583" gradientUnits="userSpaceOnUse">
<stop stop-color="#F8FFD0"/>
<stop offset="1" stop-color="#6CA7FF"/>
</linearGradient>
<linearGradient id="paint2_linear_1326_60" x1="19.7241" y1="-51.4743" x2="19.7241" y2="337.376" gradientUnits="userSpaceOnUse">
<stop stop-color="#50D4E8"/>
<stop offset="1" stop-color="white" stop-opacity="0"/>
</linearGradient>
<linearGradient id="paint3_linear_1326_60" x1="60.4827" y1="-59.5877" x2="60.4827" y2="344.813" gradientUnits="userSpaceOnUse">
<stop stop-color="#50D4E8"/>
<stop offset="1" stop-color="white" stop-opacity="0"/>
</linearGradient>
<linearGradient id="paint4_linear_1326_60" x1="98.2551" y1="-67.7011" x2="98.2551" y2="352.166" gradientUnits="userSpaceOnUse">
<stop stop-color="#50D4E8"/>
<stop offset="1" stop-color="white" stop-opacity="0"/>
</linearGradient>
<linearGradient id="paint5_linear_1326_60" x1="143.066" y1="-75.7317" x2="143.066" y2="359.686" gradientUnits="userSpaceOnUse">
<stop stop-color="#50D4E8"/>
<stop offset="1" stop-color="white" stop-opacity="0"/>
</linearGradient>
<linearGradient id="paint6_linear_1326_60" x1="184.393" y1="-83.5902" x2="184.393" y2="366.956" gradientUnits="userSpaceOnUse">
<stop stop-color="#50D4E8"/>
<stop offset="1" stop-color="white" stop-opacity="0"/>
</linearGradient>
<linearGradient id="paint7_linear_1326_60" x1="223.854" y1="-91.1132" x2="223.854" y2="374.392" gradientUnits="userSpaceOnUse">
<stop stop-color="#50D4E8"/>
<stop offset="1" stop-color="white" stop-opacity="0"/>
</linearGradient>
<linearGradient id="paint8_linear_1326_60" x1="262.034" y1="-98.4641" x2="262.034" y2="381.831" gradientUnits="userSpaceOnUse">
<stop stop-color="#50D4E8"/>
<stop offset="1" stop-color="white" stop-opacity="0"/>
</linearGradient>
<linearGradient id="paint9_linear_1326_60" x1="296.655" y1="-105.479" x2="296.655" y2="389.267" gradientUnits="userSpaceOnUse">
<stop stop-color="#50D4E8"/>
<stop offset="1" stop-color="white" stop-opacity="0"/>
</linearGradient>
<linearGradient id="paint10_linear_1326_60" x1="329.088" y1="-112.408" x2="329.088" y2="396.707" gradientUnits="userSpaceOnUse">
<stop stop-color="#50D4E8"/>
<stop offset="1" stop-color="white" stop-opacity="0"/>
</linearGradient>
<linearGradient id="paint11_linear_1326_60" x1="358.623" y1="-119.17" x2="358.623" y2="404.058" gradientUnits="userSpaceOnUse">
<stop stop-color="#50D4E8"/>
<stop offset="1" stop-color="white" stop-opacity="0"/>
</linearGradient>
<linearGradient id="paint12_linear_1326_60" x1="387.787" y1="-125.933" x2="387.787" y2="411.578" gradientUnits="userSpaceOnUse">
<stop stop-color="#50D4E8"/>
<stop offset="1" stop-color="white" stop-opacity="0"/>
</linearGradient>
<linearGradient id="paint13_linear_1326_60" x1="415.528" y1="-132.861" x2="415.528" y2="419.018" gradientUnits="userSpaceOnUse">
<stop stop-color="#50D4E8"/>
<stop offset="1" stop-color="white" stop-opacity="0"/>
</linearGradient>
<linearGradient id="paint14_linear_1326_60" x1="441.522" y1="-139.876" x2="441.522" y2="426.454" gradientUnits="userSpaceOnUse">
<stop stop-color="#50D4E8"/>
<stop offset="1" stop-color="white" stop-opacity="0"/>
</linearGradient>
<linearGradient id="paint15_linear_1326_60" x1="467.458" y1="-147.059" x2="467.458" y2="433.807" gradientUnits="userSpaceOnUse">
<stop stop-color="#50D4E8"/>
<stop offset="1" stop-color="white" stop-opacity="0"/>
</linearGradient>
<linearGradient id="paint16_linear_1326_60" x1="491.103" y1="-154.328" x2="491.103" y2="441.329" gradientUnits="userSpaceOnUse">
<stop stop-color="#50D4E8"/>
<stop offset="1" stop-color="white" stop-opacity="0"/>
</linearGradient>
<linearGradient id="paint17_linear_1326_60" x1="516.917" y1="-161.768" x2="516.917" y2="448.679" gradientUnits="userSpaceOnUse">
<stop stop-color="#50D4E8"/>
<stop offset="1" stop-color="white" stop-opacity="0"/>
</linearGradient>
<linearGradient id="paint18_linear_1326_60" x1="540.651" y1="-169.119" x2="540.651" y2="456.034" gradientUnits="userSpaceOnUse">
<stop stop-color="#50D4E8"/>
<stop offset="1" stop-color="white" stop-opacity="0"/>
</linearGradient>
<linearGradient id="paint19_linear_1326_60" x1="562.605" y1="-176.557" x2="562.605" y2="463.555" gradientUnits="userSpaceOnUse">
<stop stop-color="#50D4E8"/>
<stop offset="1" stop-color="white" stop-opacity="0"/>
</linearGradient>
<linearGradient id="paint20_linear_1326_60" x1="587.003" y1="-183.992" x2="587.003" y2="470.994" gradientUnits="userSpaceOnUse">
<stop stop-color="#50D4E8"/>
<stop offset="1" stop-color="white" stop-opacity="0"/>
</linearGradient>
<linearGradient id="paint21_linear_1326_60" x1="613.29" y1="-191.43" x2="613.29" y2="478.346" gradientUnits="userSpaceOnUse">
<stop stop-color="#50D4E8"/>
<stop offset="1" stop-color="white" stop-opacity="0"/>
</linearGradient>
<linearGradient id="paint22_linear_1326_60" x1="642.199" y1="-198.868" x2="642.199" y2="485.782" gradientUnits="userSpaceOnUse">
<stop stop-color="#50D4E8"/>
<stop offset="1" stop-color="white" stop-opacity="0"/>
</linearGradient>
<linearGradient id="paint23_linear_1326_60" x1="676.417" y1="-206.304" x2="676.417" y2="493.136" gradientUnits="userSpaceOnUse">
<stop stop-color="#50D4E8"/>
<stop offset="1" stop-color="white" stop-opacity="0"/>
</linearGradient>
<linearGradient id="paint24_linear_1326_60" x1="718.956" y1="-213.742" x2="718.956" y2="500.573" gradientUnits="userSpaceOnUse">
<stop stop-color="#50D4E8"/>
<stop offset="1" stop-color="white" stop-opacity="0"/>
</linearGradient>
<linearGradient id="paint25_linear_1326_60" x1="763.088" y1="-221.265" x2="763.088" y2="508.093" gradientUnits="userSpaceOnUse">
<stop stop-color="#50D4E8"/>
<stop offset="1" stop-color="white" stop-opacity="0"/>
</linearGradient>
<linearGradient id="paint26_linear_1326_60" x1="805.251" y1="-228.701" x2="805.251" y2="515.447" gradientUnits="userSpaceOnUse">
<stop stop-color="#50D4E8"/>
<stop offset="1" stop-color="white" stop-opacity="0"/>
</linearGradient>
<linearGradient id="paint27_linear_1326_60" x1="848.301" y1="-236.224" x2="848.301" y2="522.968" gradientUnits="userSpaceOnUse">
<stop stop-color="#50D4E8"/>
<stop offset="1" stop-color="white" stop-opacity="0"/>
</linearGradient>
<linearGradient id="paint28_linear_1326_60" x1="887.126" y1="-243.66" x2="887.126" y2="530.407" gradientUnits="userSpaceOnUse">
<stop stop-color="#50D4E8"/>
<stop offset="1" stop-color="white" stop-opacity="0"/>
</linearGradient>
<linearGradient id="paint29_linear_1326_60" x1="921.518" y1="-251.181" x2="921.518" y2="537.76" gradientUnits="userSpaceOnUse">
<stop stop-color="#50D4E8"/>
<stop offset="1" stop-color="white" stop-opacity="0"/>
</linearGradient>
<linearGradient id="paint30_linear_1326_60" x1="951.226" y1="-258.619" x2="951.226" y2="545.113" gradientUnits="userSpaceOnUse">
<stop stop-color="#50D4E8"/>
<stop offset="1" stop-color="white" stop-opacity="0"/>
</linearGradient>
<linearGradient id="paint31_linear_1326_60" x1="978.481" y1="-265.972" x2="978.481" y2="552.634" gradientUnits="userSpaceOnUse">
<stop stop-color="#50D4E8"/>
<stop offset="1" stop-color="white" stop-opacity="0"/>
</linearGradient>
<linearGradient id="paint32_linear_1326_60" x1="1000.09" y1="-273.41" x2="1000.09" y2="559.986" gradientUnits="userSpaceOnUse">
<stop stop-color="#50D4E8"/>
<stop offset="1" stop-color="white" stop-opacity="0"/>
</linearGradient>
<linearGradient id="paint33_linear_1326_60" x1="1018.15" y1="-280.761" x2="1018.15" y2="567.425" gradientUnits="userSpaceOnUse">
<stop stop-color="#50D4E8"/>
<stop offset="1" stop-color="white" stop-opacity="0"/>
</linearGradient>
<linearGradient id="paint34_linear_1326_60" x1="1038.96" y1="-288.116" x2="1038.96" y2="574.944" gradientUnits="userSpaceOnUse">
<stop stop-color="#50D4E8"/>
<stop offset="1" stop-color="white" stop-opacity="0"/>
</linearGradient>
<linearGradient id="paint35_linear_1326_60" x1="1055.88" y1="-295.467" x2="1055.88" y2="582.384" gradientUnits="userSpaceOnUse">
<stop stop-color="#50D4E8"/>
<stop offset="1" stop-color="white" stop-opacity="0"/>
</linearGradient>
<linearGradient id="paint36_linear_1326_60" x1="1074.85" y1="-302.905" x2="1074.85" y2="589.736" gradientUnits="userSpaceOnUse">
<stop stop-color="#50D4E8"/>
<stop offset="1" stop-color="white" stop-opacity="0"/>
</linearGradient>
<linearGradient id="paint37_linear_1326_60" x1="1095.54" y1="-310.258" x2="1095.54" y2="597.173" gradientUnits="userSpaceOnUse">
<stop stop-color="#50D4E8"/>
<stop offset="1" stop-color="white" stop-opacity="0"/>
</linearGradient>
<linearGradient id="paint38_linear_1326_60" x1="1115.32" y1="-317.611" x2="1115.32" y2="604.694" gradientUnits="userSpaceOnUse">
<stop stop-color="#50D4E8"/>
<stop offset="1" stop-color="white" stop-opacity="0"/>
</linearGradient>
<linearGradient id="paint39_linear_1326_60" x1="1139.5" y1="-325.047" x2="1139.5" y2="611.964" gradientUnits="userSpaceOnUse">
<stop stop-color="#50D4E8"/>
<stop offset="1" stop-color="white" stop-opacity="0"/>
</linearGradient>
<linearGradient id="paint40_linear_1326_60" x1="1165.58" y1="-332.485" x2="1165.58" y2="619.4" gradientUnits="userSpaceOnUse">
<stop stop-color="#50D4E8"/>
<stop offset="1" stop-color="white" stop-opacity="0"/>
</linearGradient>
<linearGradient id="paint41_linear_1326_60" x1="1195.45" y1="-339.92" x2="1195.45" y2="626.754" gradientUnits="userSpaceOnUse">
<stop stop-color="#50D4E8"/>
<stop offset="1" stop-color="white" stop-opacity="0"/>
</linearGradient>
<linearGradient id="paint42_linear_1326_60" x1="1228.05" y1="-347.361" x2="1228.05" y2="634.273" gradientUnits="userSpaceOnUse">
<stop stop-color="#50D4E8"/>
<stop offset="1" stop-color="white" stop-opacity="0"/>
</linearGradient>
<linearGradient id="paint43_linear_1326_60" x1="1263.19" y1="-354.796" x2="1263.19" y2="641.712" gradientUnits="userSpaceOnUse">
<stop stop-color="#50D4E8"/>
<stop offset="1" stop-color="white" stop-opacity="0"/>
</linearGradient>
<linearGradient id="paint44_linear_1326_60" x1="1300.21" y1="-362.149" x2="1300.21" y2="649.064" gradientUnits="userSpaceOnUse">
<stop stop-color="#50D4E8"/>
<stop offset="1" stop-color="white" stop-opacity="0"/>
</linearGradient>
<linearGradient id="paint45_linear_1326_60" x1="1336.87" y1="-369.587" x2="1336.87" y2="656.501" gradientUnits="userSpaceOnUse">
<stop stop-color="#50D4E8"/>
<stop offset="1" stop-color="white" stop-opacity="0"/>
</linearGradient>
<linearGradient id="paint46_linear_1326_60" x1="1372.7" y1="-377.023" x2="1372.7" y2="664.024" gradientUnits="userSpaceOnUse">
<stop stop-color="#50D4E8"/>
<stop offset="1" stop-color="white" stop-opacity="0"/>
</linearGradient>
<linearGradient id="paint47_linear_1326_60" x1="1408.86" y1="-384.461" x2="1408.86" y2="671.376" gradientUnits="userSpaceOnUse">
<stop stop-color="#50D4E8"/>
<stop offset="1" stop-color="white" stop-opacity="0"/>
</linearGradient>
<linearGradient id="paint48_linear_1326_60" x1="1441.44" y1="-391.899" x2="1441.44" y2="678.813" gradientUnits="userSpaceOnUse">
<stop stop-color="#50D4E8"/>
<stop offset="1" stop-color="white" stop-opacity="0"/>
</linearGradient>
<linearGradient id="paint49_linear_1326_60" x1="1474.12" y1="-399.335" x2="1474.12" y2="686.251" gradientUnits="userSpaceOnUse">
<stop stop-color="#50D4E8"/>
<stop offset="1" stop-color="white" stop-opacity="0"/>
</linearGradient>
<linearGradient id="paint50_linear_1326_60" x1="1505.72" y1="-406.688" x2="1505.72" y2="693.688" gradientUnits="userSpaceOnUse">
<stop stop-color="#50D4E8"/>
<stop offset="1" stop-color="white" stop-opacity="0"/>
</linearGradient>
<linearGradient id="paint51_linear_1326_60" x1="1537.62" y1="-414.126" x2="1537.62" y2="701.04" gradientUnits="userSpaceOnUse">
<stop stop-color="#50D4E8"/>
<stop offset="1" stop-color="white" stop-opacity="0"/>
</linearGradient>
<linearGradient id="paint52_linear_1326_60" x1="1569.27" y1="-421.562" x2="1569.27" y2="708.563" gradientUnits="userSpaceOnUse">
<stop stop-color="#50D4E8"/>
<stop offset="1" stop-color="white" stop-opacity="0"/>
</linearGradient>
<linearGradient id="paint53_linear_1326_60" x1="1600.5" y1="-429" x2="1600.5" y2="716" gradientUnits="userSpaceOnUse">
<stop stop-color="#50D4E8"/>
<stop offset="1" stop-color="white" stop-opacity="0"/>
</linearGradient>
</defs>
</svg>
