<svg width="206" height="73" viewBox="0 0 206 73" fill="none" xmlns="http://www.w3.org/2000/svg">
<path fill-rule="evenodd" clip-rule="evenodd" d="M44.9925 23.7997C42.4016 21.9037 39.2626 20.9058 36.0239 20.9058C34.4295 20.9058 32.7852 21.1553 31.2905 21.6542C31.2407 21.6542 31.1908 21.7041 31.141 21.7041C31.0912 21.6542 31.0912 21.6043 31.0414 21.6043C29.2476 19.3092 26.8062 17.5629 24.0159 16.6648L23.8665 16.6149L24.0159 16.5151C27.6532 14.2698 31.7887 13.1222 36.0737 13.1222C47.6831 13.1222 57.3991 21.754 58.8939 33.08C58.9935 33.6788 59.0434 34.2775 59.0434 34.8264H61.6343C61.6343 34.5769 61.6343 34.3274 61.5845 34.1278C60.5381 20.806 49.427 10.4778 36.0239 10.4778C30.3438 10.4778 24.8132 12.3738 20.3288 15.8664H20.279H20.2292C17.6881 15.6669 15.0972 16.1159 12.7554 17.1637C11.0613 17.9121 9.51669 19.0597 8.07175 20.2572C7.27454 20.9058 6.47733 21.6043 5.68012 22.3028L5.38116 22.5523C10.563 10.8271 22.3219 2.64441 35.9741 2.64441C44.7932 2.59451 52.7653 5.98734 58.7444 11.5256L60.588 9.67953C54.1604 3.69219 45.5406 0 36.0239 0C16.1435 0 0 16.1658 0 36.0737C0 55.9816 16.1435 72.1474 36.0239 72.1474C45.4908 72.1474 54.1106 68.4552 60.588 62.4679L58.7444 60.6218C55.157 63.9647 50.8221 66.5094 46.0389 68.0062V64.5635H46.0887C49.8256 63.1664 52.3667 59.6738 52.566 55.6822V55.6324H52.6158C57.7977 51.2416 60.9866 45.0048 61.5845 38.2691C61.6343 37.9697 61.6343 37.6703 61.6343 37.371H59.0434C59.0434 37.7202 58.9935 38.1194 58.9437 38.5185C58.296 44.5059 55.3563 50.0442 50.6726 53.886H46.5869C44.7434 53.886 42.9497 54.385 41.4051 55.333L41.3054 55.3829L41.2556 55.333C39.6612 54.385 37.9173 53.886 36.0737 53.886H26.0588V55.1833C26.0588 55.6822 26.1086 56.2311 26.1584 56.73L26.2083 56.8797L26.0588 56.8298C24.564 56.0814 23.1191 55.1833 21.7738 54.1355L21.724 54.0856V54.0357C21.9233 51.2416 22.9696 48.5473 24.7135 46.352L24.7633 46.2522L24.863 46.4019C27.7529 49.5452 31.7887 51.2915 36.0239 51.2915C39.0633 51.2915 42.003 50.3934 44.4943 48.697C44.9427 48.3977 45.3911 48.0484 45.8396 47.6991L43.996 45.853C43.6472 46.1524 43.2486 46.4019 42.85 46.7012C40.8072 47.9985 38.4654 48.697 36.0239 48.697C32.4365 48.697 29.0483 47.1503 26.6567 44.5059L26.6069 44.456L26.6567 44.4061C29.2476 42.1608 32.5859 40.9135 36.0239 40.9135C38.6647 40.9135 40.8072 38.768 40.8072 36.1236C40.8072 33.4792 38.6647 31.3337 36.0239 31.3337C35.4758 31.3337 34.9278 31.3337 34.3797 31.3836H34.28V31.2838C34.3298 28.7891 33.7319 26.2944 32.5859 24.099L32.5361 23.9992L32.6358 23.9494C33.7319 23.65 34.8779 23.5003 35.9741 23.5003C38.4155 23.5003 40.8072 24.1988 42.85 25.546C43.1988 25.7955 43.5974 26.0449 43.8964 26.3443L45.7399 24.4982C45.5406 24.1988 45.2915 23.9992 44.9925 23.7997ZM43.9462 29.9866C45.2417 31.683 45.989 33.7786 45.989 36.0737C45.989 38.3689 45.2417 40.4644 43.9462 42.1608L42.1026 40.3147C42.9497 39.1173 43.4479 37.6703 43.4479 36.0737C43.4479 34.527 42.9497 33.0302 42.1026 31.8327L43.9462 29.9866ZM51.3702 22.6022C54.559 26.1946 56.4524 30.9346 56.4524 36.1236C56.4524 41.3126 54.5092 46.0027 51.3702 49.645L49.5267 47.7989C52.2172 44.6556 53.8615 40.6141 53.8615 36.1236C53.8615 31.6331 52.2172 27.5917 49.5267 24.4483L51.3702 22.6022ZM58.7444 15.1679C63.7768 20.6563 66.866 27.9908 66.866 36.0737C66.866 44.1566 63.7768 51.4911 58.7444 56.9795L56.9008 55.1334C61.4848 50.0941 64.275 43.4082 64.275 36.0737C64.275 28.7392 61.4848 22.0534 56.9008 17.014L58.7444 15.1679ZM47.6831 45.9029L45.8396 44.0568C45.989 43.8573 46.1385 43.6577 46.288 43.4581C47.8326 41.3126 48.6298 38.768 48.6298 36.1236C48.6298 33.6289 47.8824 31.1841 46.4873 29.1384C46.288 28.7891 46.0389 28.4898 45.7897 28.1904L47.6333 26.3443C47.9322 26.6936 48.1814 27.0428 48.4305 27.3921C50.274 29.8868 51.2706 32.9304 51.2706 36.0737C51.2706 39.3668 50.2242 42.56 48.2312 45.2044C48.0319 45.4539 47.8824 45.6535 47.6831 45.9029ZM2.64075 34.7266C2.93971 29.6872 4.78325 26.4441 8.86895 23.0014C9.71599 22.2529 10.6129 21.5544 11.5595 20.9058L11.9083 20.6563C17.5884 16.6648 25.4609 18.0618 29.4469 23.7498C31.0414 25.995 31.8386 28.7392 31.6891 31.4834V31.5333H31.6393C28.2511 31.9824 24.9626 32.9803 21.8734 34.4771L20.6776 35.0259L21.8236 37.371L23.0194 36.8221C27.1051 34.8264 31.5396 33.8285 36.0737 33.8285C37.2696 33.8285 38.2661 34.8264 38.2661 36.0238C38.2661 37.2213 37.2696 38.2192 36.0737 38.2192C24.1654 38.2192 13.7519 46.5017 11.1111 58.1271L11.0613 58.2768C5.8296 52.3892 2.64075 44.6057 2.64075 36.0737C2.59093 35.6247 2.64075 35.1756 2.64075 34.7266ZM13.2536 60.6218C14.1006 54.7841 17.0902 49.5951 21.6741 45.9528L22.0727 45.6036L21.7738 46.0526C19.9801 48.7968 19.0832 51.9901 19.0832 55.2332C19.0832 59.7237 20.8271 63.9647 24.0159 67.158L24.2651 67.4075C20.1794 65.9106 16.4424 63.5656 13.2536 60.6218ZM36.8211 69.4531C36.273 69.6527 35.5755 69.6028 35.0274 69.5529C28.5002 69.1039 23.0693 64.2142 21.9233 57.678L21.8734 57.4784L22.0229 57.5782C23.6672 58.6759 25.4609 59.574 27.3543 60.2226H27.4041V60.2725C29.1978 63.3161 32.4863 65.2121 36.0239 65.2121C37.2197 65.2121 38.2162 66.1601 38.2162 67.4075C38.2162 68.3555 37.6183 69.1039 36.8211 69.4531ZM40.4584 69.3034L40.5082 69.1538C40.7075 68.6049 40.857 68.0062 40.857 67.4075C40.857 64.763 38.7145 62.6176 36.0737 62.6176C32.5361 62.6176 29.4968 60.1229 28.7992 56.6302V56.5305H36.0737C38.7643 56.5305 41.1061 57.8776 42.4514 60.2226C42.85 60.9212 43.149 61.6696 43.2985 62.4679V62.5178C43.3981 62.9668 43.4479 63.4658 43.4479 63.9148V68.7546C42.4514 68.9542 41.4549 69.1538 40.4584 69.3034ZM62.4315 11.5256C68.4106 17.962 72.0977 26.5938 72.0977 36.1236C72.0977 45.6036 68.4106 54.2353 62.4315 60.7216L60.588 58.8755C66.1186 52.8882 69.4569 44.905 69.4569 36.1236C69.4569 27.3422 66.0688 19.3591 60.588 13.3717L62.4315 11.5256ZM43.5476 57.1791C44.4943 56.7799 45.4908 56.5803 46.5371 56.5305H49.8754V56.6302C49.427 58.8755 47.9821 60.7715 45.9392 61.8193L45.8396 61.8692V61.7694C45.6403 60.7715 45.2417 59.8235 44.7434 58.9254C44.3946 58.3267 43.996 57.8277 43.5974 57.3288L43.4978 57.229L43.5476 57.1791Z" fill="url(#paint0_linear_128_7789)"/>
<path fill-rule="evenodd" clip-rule="evenodd" d="M182.309 32.0323C183.854 30.5355 186.545 30.9845 187.94 32.4814C188.837 33.4293 189.185 34.6767 189.185 35.974C189.185 37.3211 188.787 38.5685 187.89 39.6163C186.594 41.0632 184.003 41.612 182.309 40.3647V43.9072H179.818V31.3338H182.309V32.0323ZM93.4205 30.6852H87.5909V40.9135H85V28.1904H96.0115V40.9135H93.4205V30.6852ZM101.393 32.0323C102.937 30.5355 105.628 30.9845 107.023 32.4814C107.92 33.4293 108.269 34.6767 108.269 35.974C108.269 37.3211 107.87 38.5685 106.973 39.6163C105.678 41.0632 103.087 41.612 101.393 40.3647V43.9072H98.9013V31.3338H101.393V32.0323ZM110.112 36.0738C110.112 34.6767 110.561 33.4792 111.557 32.4814C112.554 31.4835 113.799 31.0843 115.194 31.0843C116.589 31.0843 117.835 31.4835 118.881 32.4814C119.878 33.4293 120.326 34.6767 120.326 36.0738C120.326 37.4708 119.878 38.6683 118.881 39.6163C117.885 40.6142 116.589 41.0133 115.194 41.0133C113.799 41.0133 112.554 40.5643 111.557 39.6163C110.561 38.6683 110.112 37.4708 110.112 36.0738ZM126.953 41.0632C125.608 41.0632 124.362 40.6641 123.366 39.6662C122.419 38.7182 121.971 37.4708 121.971 36.1237C121.971 34.7765 122.419 33.6289 123.366 32.631C124.312 31.6331 125.558 31.1841 126.953 31.1841V28.1904H129.444V31.1841C130.79 31.1841 132.035 31.5833 132.982 32.5811C133.979 33.579 134.377 34.7765 134.377 36.1237C134.377 37.4708 133.979 38.7182 133.032 39.6662C132.035 40.6641 130.79 41.0133 129.444 41.0632V43.8573H126.953V41.0632ZM138.712 37.0218C138.961 38.1693 140.057 38.6683 141.253 38.6683C142.399 38.6683 143.097 38.3689 143.944 37.6205L145.239 38.8679L145.09 39.0175C144.143 40.3148 142.848 40.9634 141.203 40.9634C139.808 40.9634 138.513 40.5643 137.516 39.6163C136.52 38.6683 136.121 37.4209 136.121 36.0239C136.121 34.6767 136.52 33.4792 137.417 32.4814C138.363 31.4336 139.659 31.0843 141.004 31.0843C142.2 31.0843 143.346 31.4336 144.193 32.2818C145.09 33.13 145.488 34.2277 145.488 35.475C145.488 35.9241 145.438 36.3731 145.389 36.7723L145.339 36.9719H138.712V37.0218ZM154.656 37.3211L156.45 38.4687L156.35 38.6683C155.603 40.215 153.909 41.0133 152.265 41.0133C150.869 41.0133 149.574 40.6142 148.577 39.6662C147.581 38.7182 147.182 37.4708 147.182 36.0738C147.182 34.7266 147.631 33.4792 148.577 32.5312C149.574 31.5334 150.82 31.1342 152.215 31.1342C153.809 31.1342 155.553 31.7828 156.3 33.3296L156.4 33.5291L154.557 34.7765L154.407 34.5769C153.859 33.8784 153.161 33.4792 152.314 33.4792C150.77 33.4792 149.773 34.5769 149.773 36.1237C149.773 36.8721 150.022 37.4708 150.521 37.9697C151.069 38.5186 151.766 38.7182 152.514 38.7182C153.411 38.7182 154.058 38.2691 154.606 37.5207L154.656 37.3211ZM164.97 37.3211L166.764 38.4687L166.664 38.6683C165.917 40.215 164.223 41.0133 162.578 41.0133C161.183 41.0133 159.888 40.6142 158.891 39.6662C157.895 38.7182 157.496 37.4708 157.496 36.0738C157.496 34.7266 157.945 33.4792 158.891 32.5312C159.888 31.5334 161.134 31.1342 162.529 31.1342C164.123 31.1342 165.867 31.7828 166.614 33.3296L166.714 33.5291L164.87 34.7765L164.721 34.5769C164.173 33.8784 163.475 33.4792 162.628 33.4792C161.084 33.4792 160.087 34.5769 160.087 36.1237C160.087 36.8721 160.336 37.4708 160.835 37.9697C161.383 38.5186 162.08 38.7182 162.828 38.7182C163.724 38.7182 164.372 38.2691 164.92 37.5207L164.97 37.3211ZM167.91 36.0738C167.91 34.6767 168.358 33.4792 169.355 32.4814C170.351 31.4835 171.597 31.0843 172.992 31.0843C174.387 31.0843 175.633 31.4835 176.679 32.4814C177.676 33.4293 178.124 34.6767 178.124 36.0738C178.124 37.4708 177.676 38.6683 176.679 39.6163C175.683 40.6142 174.387 41.0133 172.992 41.0133C171.597 41.0133 170.351 40.5643 169.355 39.6163C168.358 38.6683 167.91 37.4708 167.91 36.0738ZM196.908 40.215C196.211 40.7638 195.314 41.0133 194.367 41.0133C192.424 41.0133 190.83 39.9655 190.83 37.9199C190.83 35.4251 193.271 34.7765 195.314 34.7765C195.862 34.7765 196.41 34.8264 196.908 34.9262C196.858 33.9283 196.36 33.4792 195.214 33.4792C194.317 33.4792 193.47 33.8285 192.773 34.3773L192.574 34.527L191.328 32.6809L191.477 32.5312C192.474 31.5334 194.068 31.1342 195.463 31.1342C197.955 31.1342 199.4 32.631 199.4 35.1258V40.9135H196.908V40.215ZM101.393 34.7765V37.7702C101.841 38.4687 102.489 38.7182 103.286 38.7182C104.831 38.7182 105.727 37.6205 105.727 36.1237C105.727 34.6268 105.03 33.4792 103.435 33.4792C102.539 33.4792 101.791 33.9782 101.393 34.7765ZM112.653 36.0738C112.653 36.7723 112.853 37.4209 113.351 37.9199C113.849 38.4188 114.447 38.6683 115.194 38.6683C116.739 38.6683 117.735 37.6205 117.735 36.0738C117.735 35.3253 117.536 34.6767 116.988 34.1778C116.49 33.6788 115.892 33.4792 115.144 33.4792C113.6 33.4792 112.653 34.5769 112.653 36.0738ZM126.953 38.7182V33.5291C125.359 33.579 124.562 34.527 124.562 36.1237C124.562 37.7203 125.359 38.6683 126.953 38.7182ZM129.444 33.5291V38.7182C131.089 38.6683 131.836 37.8201 131.836 36.1237C131.836 34.527 131.039 33.579 129.444 33.5291ZM138.762 34.8264H142.897C142.897 34.0281 141.951 33.4294 140.904 33.4294C139.908 33.4294 139.111 33.8784 138.762 34.8264ZM170.451 36.0738C170.451 36.7723 170.65 37.4209 171.148 37.9199C171.647 38.4188 172.245 38.6683 172.992 38.6683C174.537 38.6683 175.533 37.6205 175.533 36.0738C175.533 35.3253 175.334 34.6767 174.786 34.1778C174.288 33.6788 173.69 33.4792 172.942 33.4792C171.447 33.4792 170.451 34.5769 170.451 36.0738ZM196.908 37.1215C196.46 36.9719 195.962 36.922 195.513 36.922C194.915 36.922 193.371 36.9719 193.371 37.87C193.371 39.2171 196.908 39.1672 196.908 37.1215ZM182.309 34.7765V37.7702C182.758 38.4687 183.406 38.7182 184.203 38.7182C185.747 38.7182 186.644 37.6205 186.644 36.1237C186.644 34.6268 185.947 33.4792 184.352 33.4792C183.455 33.4792 182.708 33.9782 182.309 34.7765Z" fill="#003974"/>
<path fill-rule="evenodd" clip-rule="evenodd" d="M144.691 49.9444C146.236 48.4476 148.926 48.8966 150.321 50.3935C151.218 51.3415 151.567 52.5888 151.567 53.8861C151.567 55.2332 151.168 56.4806 150.272 57.5284C148.976 58.9753 146.385 59.5242 144.691 58.2768V61.8193H142.2V49.2459H144.691V49.9444ZM133.231 54.9339C133.48 56.0814 134.576 56.5804 135.772 56.5804C136.918 56.5804 137.616 56.281 138.463 55.5326L139.758 56.78L139.609 56.9296C138.662 58.2269 137.367 58.8755 135.722 58.8755C134.327 58.8755 133.032 58.4764 132.035 57.5284C131.039 56.5804 130.64 55.333 130.64 53.936C130.64 52.5888 131.039 51.3914 131.936 50.3935C132.882 49.3457 134.178 48.9964 135.523 48.9964C136.719 48.9964 137.865 49.3457 138.712 50.1939C139.609 51.0421 140.007 52.1398 140.007 53.3871C140.007 53.8362 139.958 54.2852 139.908 54.6844L139.858 54.884H133.231V54.9339ZM166.913 52.8383H168.059L170.6 49.2459H173.789L170.301 54.0358L173.889 58.8256H170.85L168.109 55.1833H166.963V55.5825V56.8797V58.8256H164.472V49.2459H166.963V52.8383H166.913ZM87.5411 51.2417H88.6871L92.6731 46.1025H95.9616L91.0289 52.4391L96.3104 58.8256H93.0219L88.7369 53.6366H87.5909V54.4349V55.333V58.8256H85V46.1025H87.5909V51.2417H87.5411ZM104.283 53.3372L99.848 58.7757H97.7554V49.2459H100.247V54.6844L104.681 49.2459H106.774V58.7757H104.283V53.3372ZM115.742 55.1334H111.906V58.8256H109.415V49.2459H111.906V52.7884H115.742V49.2459H118.234V58.7757H115.742V55.1334ZM127.8 53.5867C128.498 54.0857 128.847 54.7842 128.847 55.6324C128.847 56.6303 128.398 57.4785 127.601 58.0772C126.704 58.7258 125.608 58.9753 124.512 58.9753C122.618 58.9753 121.074 58.3267 120.127 56.6802L120.027 56.4806L121.921 55.1334L122.07 55.3829C122.618 56.3309 123.465 56.6802 124.562 56.6802C125.159 56.6802 126.305 56.4806 126.305 55.6823C126.305 55.0835 125.558 55.0337 125.11 55.0337H123.166V52.7884H125.01C125.458 52.7884 126.006 52.5888 126.006 52.0899C126.006 51.3914 125.06 51.2417 124.512 51.2417C123.465 51.2417 122.818 51.541 122.17 52.3892L122.02 52.5888L120.227 51.3914L120.326 51.1918C121.223 49.645 122.917 48.9964 124.611 48.9964C126.455 48.9964 128.548 49.6949 128.548 51.8404C128.548 52.5389 128.298 53.1377 127.8 53.5867ZM160.884 55.2332L162.678 56.3808L162.578 56.5804C161.831 58.1271 160.137 58.9254 158.493 58.9254C157.098 58.9254 155.802 58.5263 154.806 57.5783C153.809 56.6303 153.411 55.3829 153.411 53.9859C153.411 52.6387 153.859 51.3914 154.806 50.4434C155.802 49.4455 157.048 49.0463 158.443 49.0463C160.037 49.0463 161.781 49.6949 162.529 51.2417L162.628 51.4412L160.785 52.6886L160.635 52.489C160.087 51.7905 159.39 51.3914 158.543 51.3914C156.998 51.3914 156.002 52.489 156.002 54.0358C156.002 54.7842 156.251 55.3829 156.749 55.8819C157.297 56.4307 157.995 56.6303 158.742 56.6303C159.639 56.6303 160.287 56.1812 160.835 55.4328L160.884 55.2332ZM174.138 53.9859C174.138 52.5888 174.736 51.3914 175.732 50.3935C176.729 49.3956 177.975 48.9964 179.37 48.9964C180.765 48.9964 182.01 49.3956 183.057 50.3935C184.053 51.3415 184.502 52.5888 184.502 53.9859C184.502 55.3829 184.053 56.5804 183.057 57.5284C182.06 58.5263 180.765 58.9254 179.37 58.9254C177.975 58.9254 176.729 58.4764 175.732 57.5284C174.736 56.5804 174.138 55.3829 174.138 53.9859ZM188.837 51.5909V58.7757H186.345V49.2459H193.969V51.5909H188.837ZM194.865 53.9859C194.865 52.5888 195.314 51.3914 196.31 50.3935C197.307 49.3956 198.553 48.9964 199.948 48.9964C201.343 48.9964 202.588 49.3956 203.635 50.3935C204.631 51.3415 205.08 52.5888 205.08 53.9859C205.08 55.3829 204.631 56.5804 203.635 57.5284C202.638 58.5263 201.343 58.9254 199.948 58.9254C198.553 58.9254 197.307 58.4764 196.31 57.5284C195.314 56.5804 194.865 55.3829 194.865 53.9859ZM176.829 53.9859C176.829 54.6844 177.028 55.333 177.526 55.832C178.024 56.3309 178.622 56.5804 179.37 56.5804C180.914 56.5804 181.911 55.5326 181.911 53.9859C181.911 53.2374 181.712 52.5888 181.163 52.0899C180.665 51.5909 180.067 51.3914 179.32 51.3914C177.825 51.3415 176.829 52.4391 176.829 53.9859ZM197.407 53.9859C197.407 54.6844 197.606 55.333 198.104 55.832C198.602 56.3309 199.2 56.5804 199.948 56.5804C201.492 56.5804 202.489 55.5326 202.489 53.9859C202.489 53.2374 202.289 52.5888 201.741 52.0899C201.243 51.5909 200.645 51.3914 199.898 51.3914C198.403 51.3415 197.407 52.4391 197.407 53.9859ZM133.281 52.6886H137.417C137.417 51.8903 136.47 51.2916 135.424 51.2916C134.377 51.2916 133.63 51.7905 133.281 52.6886ZM144.691 52.6387V55.6324C145.14 56.3309 145.787 56.5804 146.584 56.5804C148.129 56.5804 149.026 55.4827 149.026 53.9859C149.026 52.489 148.328 51.3415 146.734 51.3415C145.837 51.3415 145.09 51.8404 144.691 52.6387Z" fill="#003974"/>
<path fill-rule="evenodd" clip-rule="evenodd" d="M87.5919 15.4673H88.7379L92.7239 10.3281H96.0124L91.0797 16.6647L96.3612 23.0512H93.0727L88.7877 17.8622H87.6417V18.6605V19.5586V23.0512H85.0508V10.3281H87.6417V15.4673H87.5919ZM104.184 15.7666H101.493V16.9641C101.493 19.8081 101.045 23.3506 97.4075 23.1011H97.2082L97.0089 20.7561L97.3079 20.806C99.1016 21.0055 99.0518 17.3632 99.0518 16.3654V13.4715H106.675V23.0013H104.184V15.7666ZM115.644 17.5628L111.209 23.0013H109.166V13.4715H111.658V18.91L116.092 13.4715H118.185V23.0013H115.694V17.5628H115.644ZM126.954 19.3091H123.118V23.0013H120.626V13.4715H123.118V17.014H126.954V13.4715H129.445V23.0013H126.954V19.3091ZM138.613 17.5628L134.179 23.0013H132.086V13.4715H134.577V18.91L139.012 13.4715H141.105V23.0013H138.613V17.5628ZM146.237 17.0639H147.383L149.924 13.4715H153.113L149.625 18.2613L153.212 23.0512H150.173L147.432 19.4089H146.286V19.8081V21.1053V23.0512H143.795V13.4715H146.286V17.0639H146.237ZM159.789 22.3028C159.092 22.8516 158.195 23.1011 157.248 23.1011C155.305 23.1011 153.71 22.0533 153.71 20.0077C153.71 17.5129 156.152 16.8643 158.195 16.8643C158.743 16.8643 159.291 16.9142 159.789 17.014C159.739 16.0161 159.241 15.567 158.095 15.567C157.198 15.567 156.351 15.9163 155.654 16.4651L155.454 16.6148L154.209 14.7687L154.358 14.6191C155.355 13.6212 156.949 13.222 158.344 13.222C160.836 13.222 162.28 14.6689 162.28 17.2136V23.0013H159.789V22.3028ZM159.789 19.2093C159.341 19.0597 158.843 19.0098 158.394 19.0098C157.796 19.0098 156.252 19.0597 156.252 19.9578C156.252 21.3548 159.789 21.3049 159.789 19.2093Z" fill="#003974"/>
<defs>
<linearGradient id="paint0_linear_128_7789" x1="18.0045" y1="54.1341" x2="54.0953" y2="18.0932" gradientUnits="userSpaceOnUse">
<stop stop-color="#65C1BE"/>
<stop offset="1" stop-color="#0068B4"/>
</linearGradient>
</defs>
</svg>
