<svg width="48" height="24" viewBox="0 0 48 24" fill="none" xmlns="http://www.w3.org/2000/svg">
<path fill-rule="evenodd" clip-rule="evenodd" d="M17.9586 10.7752C17.9586 10.7752 18.3503 9.5188 19.5327 9.5188H23.6122C25.1199 9.5188 25.3268 9.17884 25.3268 8.15158C25.3268 7.25734 25.179 6.8287 23.7157 6.8287H19.4367C18.4981 6.8287 17.9586 7.53079 17.9586 8.35851V10.7752ZM17.9586 5.86795C17.9586 5.86795 18.3799 4.7594 19.3997 4.7594H23.7157C24.4769 4.7594 24.8686 4.16817 24.8686 3.38479C24.8686 2.67531 24.4769 2.21711 23.6935 2.21711H19.3184C18.4981 2.21711 17.9586 2.84529 17.9586 3.42913V5.86795ZM17.8625 0.00739038H23.627C26.2432 0.00739038 27.6917 0.783379 27.6917 2.94137C27.6917 4.84069 27.1744 5.23977 26.2284 5.55017C27.3961 5.93447 28.1499 6.43701 28.1499 8.2846C28.1499 10.8047 26.8714 11.7359 24.2035 11.7359H15.1503V2.29841C15.1503 0.731647 16.2588 0 17.8699 0L17.8625 0.00739038ZM33.0202 5.73493L34.683 4.38988L38.9251 0.783379C39.6206 0.245103 40.4854 -0.027425 41.3639 0.0147807H43.1376L37.0997 5.49844L43.3963 11.7359H42.0143C39.9967 11.7359 38.9103 10.5682 38.9103 10.5682L35.629 7.55296C34.6239 6.60699 33.0276 6.71785 33.0276 6.71785V9.8218C33.0276 10.7234 32.562 11.7433 31.0913 11.7433H30.1971V1.92889C30.2044 -0.192149 33.0276 0.00739038 33.0276 0.00739038V5.73493H33.0202ZM8.70586 5.91969H4.10166C3.59911 5.91969 3.08178 6.1414 2.81573 6.92478V3.62867C2.81573 2.97832 3.34784 2.33536 4.20512 2.33536H8.70586C9.96222 2.33536 10.317 2.89703 10.317 4.13122C10.317 5.40236 9.91049 5.91969 8.70586 5.91969ZM10.6569 7.83379C12.1719 7.40515 13.1327 5.91969 13.1327 4.13122C13.1327 0.805551 11.3886 0.00739038 8.94235 0.00739038H2.03974C0.288224 0.00739038 0 1.64805 0 2.33536V11.7359H0.923796C2.40187 11.7359 2.81573 10.8712 2.81573 9.7479V8.25504H7.22039C7.54532 8.23727 7.86888 8.30922 8.15564 8.46303C8.44241 8.61685 8.68134 8.84659 8.84627 9.12711L9.7479 10.5313C10.1544 11.1668 10.8417 11.7359 12.2828 11.7359H13.3396C13.3396 11.7359 11.2999 8.7502 10.6569 7.83379ZM9.20101 15.5272H7.64164C6.50353 15.6011 6.07488 16.0741 5.83839 16.5101C5.61668 16.0667 5.17326 15.6011 4.04253 15.5272H4.02036L3.73214 15.5198H2.47577C1.28592 15.5272 0 16.1406 0 17.5004V21.1438H0.0517326C0.0665133 21.1512 0.465593 21.1808 0.716866 20.9517C0.786714 20.8856 0.841386 20.8051 0.877111 20.7157C0.912836 20.6264 0.928764 20.5304 0.923796 20.4344V17.6556C0.923796 16.7835 1.54459 16.3105 2.6827 16.3105H3.51043C3.99819 16.3105 4.39727 16.3844 4.69288 16.5396C5.03284 16.7244 5.25455 17.0052 5.33585 17.3674L5.35063 17.4413C5.3728 17.5447 5.38019 17.6556 5.38019 17.7664V21.1438H5.43192L5.50583 21.1512C5.64624 21.1512 5.9123 21.1291 6.09705 20.9591C6.23747 20.8408 6.30399 20.6709 6.30399 20.4565V17.7664C6.30399 17.6556 6.31138 17.5447 6.33355 17.4339L6.34833 17.3748C6.42962 17.0052 6.64394 16.7244 6.9839 16.5396C7.27951 16.3918 7.68599 16.3105 8.16636 16.3105H9.00147C10.1322 16.3105 10.7604 16.7835 10.7604 17.6556V21.1438H10.8121C10.8269 21.1512 11.226 21.1882 11.4772 20.9591C11.6177 20.8408 11.6842 20.6709 11.6842 20.4565V17.5004C11.6842 16.1406 10.3982 15.5198 9.20101 15.5198V15.5272ZM13.6057 17.7295C13.6057 16.7318 14.1082 16.2884 15.2242 16.2884H17.3304C18.3651 16.2884 18.9415 16.8057 18.9415 17.7295V18.9341C18.9415 19.8949 18.3946 20.3679 17.3156 20.3679H15.2242C14.1378 20.3679 13.6057 19.9023 13.6057 18.9341V17.7295ZM17.3822 15.5124H15.165C13.0071 15.5124 12.6893 16.9018 12.6893 17.7295V18.9341C12.6893 20.4122 13.517 21.1512 15.165 21.1512H17.3748C18.9563 21.1512 19.8653 20.3457 19.8653 18.9341V17.7295C19.8653 15.7932 18.3133 15.5124 17.3822 15.5124ZM25.4746 15.5272H23.3536C21.1956 15.5272 20.8778 17.0052 20.8778 17.8847V21.1512H20.9295C20.9443 21.1512 21.3434 21.1808 21.5947 20.9443C21.7277 20.8187 21.8016 20.6487 21.8016 20.427V17.7664C21.8016 16.8796 22.3928 16.3105 23.3536 16.3105H25.482C26.4427 16.3105 27.034 16.8722 27.034 17.7738V21.1512H27.0931L27.1596 21.1586C27.2852 21.1586 27.5661 21.1365 27.7656 20.9591C27.8986 20.8408 27.9652 20.6635 27.9652 20.4565V17.8921C27.9652 17.0126 27.64 15.5346 25.482 15.5346L25.4746 15.5272ZM29.8201 17.6186C29.8645 16.8131 30.3966 16.2884 31.18 16.2884H33.7149C34.5943 16.2884 35.119 16.8057 35.1486 17.6704H29.8201V17.6186ZM36.0724 18.4538V17.5078C36.0724 16.5101 35.3186 15.5124 33.6336 15.5124H31.3056C30.1379 15.5124 28.8963 16.2366 28.8963 17.5965V19.045C28.8963 20.4639 29.6871 21.1586 31.3352 21.1586H34.0548C35.9246 21.1586 36.0724 19.7619 36.0724 19.3332V19.2889L36.0207 19.2815C36.0207 19.2815 35.3555 19.1558 35.0673 19.7692C34.8825 20.1683 34.4982 20.3679 33.9144 20.3679H31.2982C30.3005 20.3679 29.8201 19.9023 29.8201 18.9341V18.4538H36.0724ZM43.3223 15.5272C43.3223 15.5272 42.4651 15.4163 42.1695 16.1406C41.9034 16.7983 40.5436 19.9466 40.3958 20.257C40.3588 20.2348 40.248 20.1314 40.0041 19.6879L38.4225 16.7761L38.0308 16.0741C37.6983 15.4533 36.8927 15.5198 36.8484 15.5198L36.7745 15.5346L36.8188 15.6085L39.4941 20.4565C39.7454 20.9369 39.9302 21.0847 40.0262 21.1291C39.4498 22.5111 39.0877 22.7328 38.4595 22.7328C38.2969 22.7328 38.1639 22.7845 38.0752 22.888C37.883 23.1097 37.9274 23.4496 37.9274 23.4644L37.9422 23.5162H38.2599C39.6272 23.5162 40.0854 22.9988 40.5953 21.8385L43.3963 15.5346L43.3297 15.5272H43.3223Z" fill="#343434"/>
<path fill-rule="evenodd" clip-rule="evenodd" d="M47.9986 10.1034C47.9981 10.3295 47.9531 10.5533 47.8661 10.7621C47.7791 10.9708 47.6519 11.1603 47.4916 11.3199C47.3314 11.4794 47.1413 11.6059 46.9322 11.692C46.7231 11.7781 46.4991 11.8221 46.273 11.8216C46.0468 11.8211 45.823 11.7761 45.6143 11.6891C45.4055 11.6022 45.216 11.4749 45.0564 11.3147C44.8969 11.1544 44.7704 10.9643 44.6844 10.7552C44.5983 10.5461 44.5542 10.3221 44.5547 10.096C44.5547 9.63929 44.7361 9.2013 45.059 8.87837C45.382 8.55544 45.82 8.37402 46.2766 8.37402C46.7333 8.37402 47.1713 8.55544 47.4943 8.87837C47.8172 9.2013 47.9986 9.63929 47.9986 10.096" fill="#239B10"/>
</svg>
