<svg width="33" height="20" viewBox="0 0 33 20" fill="none" xmlns="http://www.w3.org/2000/svg">
<path d="M21.2838 2.18164H11.5234V17.8162H21.2838V2.18164Z" fill="#EF692C"/>
<path d="M12.5299 9.99968C12.5287 8.49422 12.8767 7.0082 13.5475 5.6541C14.2183 4.30001 15.1944 3.1133 16.402 2.1838C14.9064 1.03109 13.1103 0.314283 11.219 0.115313C9.32772 -0.0836577 7.4175 0.243233 5.70667 1.05862C3.99584 1.87401 2.55342 3.14501 1.54429 4.72634C0.53515 6.30768 0 8.13555 0 10.0011C0 11.8666 0.53515 13.6944 1.54429 15.2758C2.55342 16.8571 3.99584 18.1281 5.70667 18.9435C7.4175 19.7589 9.32772 20.0858 11.219 19.8868C13.1103 19.6878 14.9064 18.971 16.402 17.8183C15.1941 16.8885 14.2177 15.7014 13.5469 14.3468C12.876 12.9922 12.5283 11.5056 12.5299 9.99968Z" fill="#DA2E2B"/>
<path d="M32.8058 9.99969C32.8058 11.8653 32.2705 13.6933 31.2612 15.2747C30.2519 16.8561 28.8092 18.1271 27.0982 18.9424C25.3871 19.7576 23.4767 20.0843 21.5853 19.885C19.6939 19.6858 17.8978 18.9686 16.4023 17.8156C17.6094 16.8852 18.5852 15.6982 19.2562 14.344C19.9272 12.9899 20.2759 11.5039 20.2759 9.99831C20.2759 8.4927 19.9272 7.00675 19.2562 5.65258C18.5852 4.2984 17.6094 3.11137 16.4023 2.18104C17.8978 1.02797 19.6939 0.310818 21.5853 0.111562C23.4767 -0.0876947 25.3871 0.238986 27.0982 1.05426C28.8092 1.86954 30.2519 3.14051 31.2612 4.7219C32.2705 6.30328 32.8058 8.13128 32.8058 9.99692V9.99969Z" fill="#EBA140"/>
</svg>
