<svg width="59" height="20" viewBox="0 0 59 20" fill="none" xmlns="http://www.w3.org/2000/svg">
<path d="M25.5685 19.7111H20.7891L23.7784 0.350586H28.5576L25.5685 19.7111Z" fill="#256BBB"/>
<path d="M42.8916 0.824255C41.9489 0.432522 40.4537 0 38.6049 0C33.885 0 30.5614 2.63619 30.541 6.40515C30.5018 9.18588 32.9206 10.7304 34.7297 11.6575C36.5788 12.605 37.2074 13.2234 37.2074 14.0679C37.1886 15.3649 35.7132 15.9628 34.3372 15.9628C32.429 15.9628 31.4066 15.6545 29.8528 14.9329L29.2235 14.6236L28.5547 18.9696C29.6756 19.5045 31.7409 19.9792 33.885 20C38.8999 20 42.1648 17.4046 42.2035 13.3882C42.2226 11.1842 40.9453 9.49549 38.1917 8.11552C36.52 7.22968 35.4963 6.63236 35.4963 5.72598C35.5159 4.902 36.3622 4.05804 38.2492 4.05804C39.8029 4.0167 40.9445 4.40789 41.8094 4.79934L42.2416 5.00493L42.8916 0.824255Z" fill="#256BBB"/>
<path d="M49.2461 12.8524C49.6397 11.7401 51.1542 7.43545 51.1542 7.43545C51.1344 7.47679 51.5471 6.30268 51.7831 5.5819L52.1171 7.25012C52.1171 7.25012 53.0222 11.8844 53.2187 12.8524C52.4717 12.8524 50.1901 12.8524 49.2461 12.8524ZM55.1457 0.350586H51.4488C50.3088 0.350586 49.4426 0.700435 48.9508 1.95694L41.8516 19.7108H46.8664C46.8664 19.7108 47.6921 17.3213 47.8695 16.8067C48.4197 16.8067 53.2981 16.8067 54.0059 16.8067C54.1431 17.4864 54.5762 19.7108 54.5762 19.7108H59.0014L55.1457 0.350586Z" fill="#256BBB"/>
<path d="M16.796 0.350586L12.1154 13.5526L11.604 10.8751C10.7386 7.78557 8.02469 4.42888 4.99609 2.75984L9.28337 19.6906H14.3375L21.8499 0.350586H16.796Z" fill="#256BBB"/>
<path d="M7.76828 0.350586H0.0786678L0 0.741771C5.99838 2.3484 9.97098 6.2211 11.6032 10.8759L9.93152 1.97802C9.65631 0.741497 8.81056 0.391374 7.76828 0.350586Z" fill="#EFA941"/>
</svg>
