<svg width="65" height="18" viewBox="0 0 65 18" fill="none" xmlns="http://www.w3.org/2000/svg">
<path fill-rule="evenodd" clip-rule="evenodd" d="M46.8828 8.13184V17.9999H52.4863V12.1521H58.8368C61.5096 12.1327 63.7801 10.4623 64.6362 8.13184H46.8828Z" fill="#239B10"/>
<path fill-rule="evenodd" clip-rule="evenodd" d="M46.1367 0C46.4631 4.0335 50.3634 7.21827 55.1268 7.21827C55.1424 7.21827 64.87 7.21827 64.87 7.21827C64.9419 6.84835 64.9796 6.46655 64.9796 6.07614C64.9796 2.73489 62.2242 0.0247179 58.8158 0.000168116L46.1367 0Z" fill="#256BBB"/>
<path fill-rule="evenodd" clip-rule="evenodd" d="M37.8438 7.12229L37.8482 7.11309L37.8488 7.11323C37.9062 7.01238 38.0163 6.94416 38.1427 6.94416C38.3252 6.94416 38.4738 7.0865 38.4787 7.26393L38.4789 7.26396V17.9086H44.0823V0H38.4789C37.7683 0.0231397 36.9654 0.533292 36.667 1.15952L32.2077 10.5156C32.1967 10.5538 32.1795 10.5895 32.1572 10.6216L32.1557 10.6247L32.1551 10.6245C32.0877 10.7195 31.9753 10.7817 31.8481 10.7817C31.6418 10.7817 31.4745 10.6181 31.4745 10.4162V0H25.8711V17.9086H31.4745V17.9066C32.1773 17.8707 32.9613 17.3663 33.2555 16.7491L37.8323 7.14642C37.8358 7.1382 37.8396 7.13015 37.8438 7.12229Z" fill="#239B10"/>
<path fill-rule="evenodd" clip-rule="evenodd" d="M16.918 7.42842L13.6431 17.9086H9.61208L6.33513 7.42205C6.30353 7.25413 6.15312 7.1269 5.97234 7.1269C5.76861 7.1269 5.60345 7.28849 5.60345 7.48782C5.60345 7.48934 5.60346 7.49086 5.60348 7.49238L5.60345 17.9086H0V0H4.80963H6.24203C7.27308 0 8.35355 0.782846 8.65485 1.74703L11.3819 10.4739C11.5176 10.9081 11.7377 10.9076 11.8733 10.4739L14.6003 1.74703C14.9018 0.782172 15.9819 0 17.0131 0L18.4451 0H23.2543V17.9086H17.6509V7.49239C17.6509 7.49086 17.6509 7.48934 17.6509 7.48782C17.6509 7.28849 17.4857 7.1269 17.282 7.1269C17.0989 7.1269 16.947 7.25735 16.918 7.42842Z" fill="#239B10"/>
</svg>
