<svg width="68" height="54" viewBox="0 0 68 54" fill="none" xmlns="http://www.w3.org/2000/svg">
<path d="M33.5881 53.1454C23.83 53.1454 14.0747 51.0746 4.38369 46.9329C0.748537 45.3771 -0.944423 41.3641 0.533145 37.7961L15.4571 1.73277C15.7733 0.968795 16.4114 0.386766 17.206 0.137662C18.0344 -0.128232 18.9411 -0.00505692 19.6883 0.473474C28.6097 6.15708 37.2764 6.41458 46.181 1.26538C47.2752 0.632984 48.5905 0.50981 49.7854 0.912783C50.9634 1.313 51.9066 2.18886 52.3739 3.31659L66.6431 37.7988C68.1179 41.3667 66.4248 45.3769 62.7896 46.9328C53.1015 51.0747 43.3462 53.1454 33.5881 53.1454ZM18.1855 2.82979L11.3154 19.0606L3.11889 38.868C2.23739 41.0031 3.27565 43.4155 5.48636 44.3585C24.1295 52.334 43.0412 52.3312 61.69 44.3585C63.9007 43.4155 64.9417 41.0031 64.0602 38.868L49.791 4.38567C49.6287 3.99674 49.3097 3.7029 48.8899 3.56018C48.4534 3.41182 47.9776 3.45668 47.5859 3.68336C37.825 9.32774 27.9324 9.03954 18.1855 2.82979Z" fill="#D9DFEC"/>
<path d="M33.589 41.9433C23.4559 41.9433 13.3228 39.5198 3.26255 34.673C2.56574 34.3372 2.2719 33.5004 2.60772 32.8065C2.94628 32.1097 3.78305 31.8158 4.47422 32.1517C23.7918 41.4564 43.3807 41.4564 62.7011 32.1517C63.3979 31.8158 64.2347 32.1097 64.5676 32.8065C64.9005 33.5033 64.6096 34.3372 63.9128 34.673C53.8552 39.5198 43.7221 41.9433 33.589 41.9433Z" fill="#D9DFEC"/>
<path d="M33.5047 30.7831C32.7324 30.7831 32.1055 30.1562 32.1055 29.3838C32.1055 28.6115 32.7324 27.9846 33.5047 27.9846C41.9279 27.9846 50.4659 26.2048 58.878 22.6899C59.5916 22.3933 60.4116 22.7291 60.7082 23.4427C61.0048 24.1563 60.669 24.9763 59.9554 25.2729C51.1992 28.9277 42.3002 30.7831 33.5047 30.7831Z" fill="#D9DFEC"/>
<path d="M11.5073 26.8093C11.359 26.8093 11.2051 26.7869 11.0567 26.7338C9.79179 26.3029 8.49617 25.813 7.23123 25.2674C6.52328 24.9624 6.19586 24.1396 6.50084 23.4288C6.80583 22.7152 7.62857 22.3878 8.33941 22.6984C9.53718 23.2161 10.76 23.6779 11.9578 24.0864C12.6909 24.3355 13.08 25.1301 12.8309 25.8605C12.6323 26.4428 12.0893 26.8093 11.5073 26.8093Z" fill="#D9DFEC"/>
<path d="M33.5588 19.5701C26.1233 19.5701 18.6851 18.2632 11.2945 15.6467C10.5668 15.3921 10.1863 14.5917 10.4438 13.8613C10.6984 13.1336 11.4988 12.7531 12.2292 13.0106C26.4145 18.031 40.79 18.0226 54.9472 12.9827C55.6719 12.7252 56.4751 13.103 56.7354 13.8333C56.9929 14.561 56.6151 15.3613 55.8847 15.6215C48.4828 18.252 41.0222 19.5701 33.5588 19.5701Z" fill="#D9DFEC"/>
<path d="M22.3938 33.582C19.3071 33.582 16.7969 31.0718 16.7969 27.9851C16.7969 24.8984 19.3071 22.3882 22.3938 22.3882C25.4805 22.3882 27.9907 24.8984 27.9907 27.9851C27.9907 31.0718 25.4803 33.582 22.3938 33.582ZM22.3938 25.1867C20.8518 25.1867 19.5954 26.4432 19.5954 27.9851C19.5954 29.5271 20.8519 30.7835 22.3938 30.7835C23.9357 30.7835 25.1922 29.5269 25.1922 27.9851C25.1922 26.4432 23.9356 25.1867 22.3938 25.1867Z" fill="#5BC4BE"/>
</svg>
