<svg width="40" height="23" viewBox="0 0 40 23" fill="none" xmlns="http://www.w3.org/2000/svg">
<path fill-rule="evenodd" clip-rule="evenodd" d="M39.6178 11.8377C39.9169 11.4693 39.9162 10.9425 39.6164 10.5734L31.3086 0.369113C31.1176 0.135768 30.8341 -0.000704829 30.5322 2.73787e-06L1.00197 2.35855e-06C0.447599 0.00141633 0.0021226 0.446893 0.00212205 0.999851L0 21.4105C0 21.6764 0.103944 21.9288 0.292742 22.1176C0.480832 22.3057 0.734686 22.411 0.999851 22.4103H30.5329C30.8334 22.411 31.1176 22.2739 31.3071 22.0405L39.6178 11.8377ZM1.9997 20.4092L2.00182 1.9997L30.0598 2.00112L37.5537 11.2048L30.0598 20.4099L1.9997 20.4092Z" fill="#5BC4BE"/>
</svg>
