<svg width="76" height="12" viewBox="0 0 76 12" fill="none" xmlns="http://www.w3.org/2000/svg">
<path d="M75.9813 4.55671C75.9365 4.42328 75.8174 4.32603 75.6739 4.30588L71.6439 3.73919L69.8415 0.205426C69.7774 0.0796298 69.645 0 69.5 0C69.355 0 69.2227 0.0796298 69.1585 0.205426L67.3561 3.73919L63.3261 4.30588C63.1827 4.32603 63.0634 4.42328 63.0187 4.55669C62.9738 4.69012 63.0112 4.83658 63.115 4.93449L66.0311 7.68515L65.3428 11.5692C65.3183 11.7075 65.377 11.8472 65.4943 11.9296C65.5607 11.9763 65.6392 12 65.7182 12C65.7788 12 65.8397 11.986 65.8954 11.9577L69.5 10.1238L73.1045 11.9576C73.2328 12.0229 73.3883 12.0121 73.5056 11.9296C73.6228 11.8472 73.6816 11.7074 73.6571 11.5691L72.9686 7.68515L75.885 4.93447C75.9888 4.83658 76.0262 4.69012 75.9813 4.55671Z" fill="#DDF2F1"/>
<path d="M59.9813 4.55671C59.9365 4.42328 59.8174 4.32603 59.6739 4.30588L55.6439 3.73919L53.8415 0.205426C53.7774 0.0796298 53.645 0 53.5 0C53.355 0 53.2227 0.0796298 53.1585 0.205426L51.3561 3.73919L47.3261 4.30588C47.1827 4.32603 47.0634 4.42328 47.0187 4.55669C46.9738 4.69012 47.0112 4.83658 47.115 4.93449L50.0311 7.68515L49.3428 11.5692C49.3183 11.7075 49.377 11.8472 49.4943 11.9296C49.5607 11.9763 49.6392 12 49.7182 12C49.7788 12 49.8397 11.986 49.8954 11.9577L53.5 10.1238L57.1045 11.9576C57.2328 12.0229 57.3883 12.0121 57.5056 11.9296C57.6228 11.8472 57.6816 11.7074 57.6571 11.5691L56.9686 7.68515L59.885 4.93447C59.9888 4.83658 60.0262 4.69012 59.9813 4.55671Z" fill="#DDF2F1"/>
<path d="M42.9813 4.55671C42.9365 4.42328 42.8174 4.32603 42.6739 4.30588L38.6439 3.73919L36.8415 0.205426C36.7774 0.0796298 36.645 0 36.5 0C36.355 0 36.2227 0.0796298 36.1585 0.205426L34.3561 3.73919L30.3261 4.30588C30.1827 4.32603 30.0634 4.42328 30.0187 4.55669C29.9738 4.69012 30.0112 4.83658 30.115 4.93449L33.0311 7.68515L32.3428 11.5692C32.3183 11.7075 32.377 11.8472 32.4943 11.9296C32.5607 11.9763 32.6392 12 32.7182 12C32.7788 12 32.8397 11.986 32.8954 11.9577L36.5 10.1238L40.1045 11.9576C40.2328 12.0229 40.3883 12.0121 40.5056 11.9296C40.6228 11.8472 40.6816 11.7074 40.6571 11.5691L39.9686 7.68515L42.885 4.93447C42.9888 4.83658 43.0262 4.69012 42.9813 4.55671Z" fill="#DDF2F1"/>
<path d="M26.9813 4.55671C26.9365 4.42328 26.8174 4.32603 26.6739 4.30588L22.6439 3.73919L20.8415 0.205426C20.7774 0.0796298 20.645 0 20.5 0C20.355 0 20.2227 0.0796298 20.1585 0.205426L18.3561 3.73919L14.3261 4.30588C14.1827 4.32603 14.0634 4.42328 14.0187 4.55669C13.9738 4.69012 14.0112 4.83658 14.115 4.93449L17.0311 7.68515L16.3428 11.5692C16.3183 11.7075 16.377 11.8472 16.4943 11.9296C16.5607 11.9763 16.6392 12 16.7182 12C16.7788 12 16.8397 11.986 16.8954 11.9577L20.5 10.1238L24.1045 11.9576C24.2328 12.0229 24.3883 12.0121 24.5056 11.9296C24.6228 11.8472 24.6816 11.7074 24.6571 11.5691L23.9686 7.68515L26.885 4.93447C26.9888 4.83658 27.0262 4.69012 26.9813 4.55671Z" fill="#DDF2F1"/>
<path d="M11.9828 4.55671C11.9414 4.42328 11.8314 4.32603 11.699 4.30588L7.97896 3.73919L6.31525 0.205426C6.25605 0.0796298 6.13382 0 6.00002 0C5.86619 0 5.74399 0.0796298 5.68476 0.205426L4.02099 3.73919L0.301003 4.30588C0.168606 4.32603 0.058567 4.42328 0.0172234 4.55669C-0.0241436 4.69012 0.0103562 4.83658 0.106192 4.93449L2.79793 7.68515L2.16259 11.5692C2.13995 11.7075 2.19418 11.8472 2.30244 11.9296C2.36368 11.9763 2.43622 12 2.50911 12C2.56508 12 2.62124 11.986 2.67266 11.9577L5.99999 10.1238L9.32719 11.9576C9.44567 12.0229 9.58917 12.0121 9.69743 11.9296C9.80569 11.8472 9.85995 11.7074 9.83733 11.5691L9.20178 7.68515L11.8938 4.93447C11.9896 4.83658 12.0242 4.69012 11.9828 4.55671Z" fill="#5BC4BE"/>
</svg>
