<svg width="74" height="74" viewBox="0 0 74 74" fill="none" xmlns="http://www.w3.org/2000/svg">
<circle cx="37" cy="37" r="37" fill="#F0F0F0"/>
<path d="M27.0527 46H15.6553V43.207L19.4902 39.3291C20.2852 38.4984 20.901 37.8324 21.3379 37.3311C21.7819 36.8298 22.0934 36.4036 22.2725 36.0527C22.4515 35.7018 22.541 35.3366 22.541 34.957C22.541 34.4915 22.3906 34.1549 22.0898 33.9473C21.7891 33.7396 21.4346 33.6357 21.0264 33.6357C20.5322 33.6357 20.0309 33.779 19.5225 34.0654C19.0212 34.3447 18.4518 34.7601 17.8145 35.3115L15.4834 32.583C15.9561 32.1605 16.4574 31.7594 16.9873 31.3799C17.5173 30.9932 18.1439 30.6781 18.8672 30.4346C19.5905 30.1911 20.4714 30.0693 21.5098 30.0693C22.5768 30.0693 23.5007 30.2555 24.2812 30.6279C25.069 31.0003 25.6777 31.5124 26.1074 32.1641C26.5371 32.8086 26.752 33.5426 26.752 34.3662C26.752 35.2757 26.5837 36.0885 26.2471 36.8047C25.9176 37.5137 25.4199 38.2262 24.7539 38.9424C24.0879 39.6514 23.2572 40.457 22.2617 41.3594L21.1123 42.3906V42.498H27.0527V46ZM33.498 51.2852C31.7721 51.2852 30.4401 50.9951 29.502 50.415C28.571 49.8421 28.1055 49.015 28.1055 47.9336C28.1055 47.2103 28.3311 46.6123 28.7822 46.1396C29.2334 45.667 29.9102 45.3268 30.8125 45.1191C30.4401 44.9616 30.1143 44.7074 29.835 44.3564C29.5628 44.0055 29.4268 43.6582 29.4268 43.3145C29.4268 42.9349 29.5306 42.6019 29.7383 42.3154C29.946 42.0218 30.3792 41.6745 31.0381 41.2734C30.4079 40.9941 29.9102 40.5573 29.5449 39.9629C29.1868 39.3685 29.0078 38.6452 29.0078 37.793C29.0078 36.9121 29.2083 36.1602 29.6094 35.5371C30.0176 34.9141 30.6084 34.4378 31.3818 34.1084C32.1624 33.779 33.1113 33.6143 34.2285 33.6143C34.3789 33.6143 34.6081 33.6286 34.916 33.6572C35.224 33.6787 35.5355 33.7074 35.8506 33.7432C36.1657 33.7718 36.4092 33.8005 36.5811 33.8291H40.8242V35.8594L39.1592 36.4717C39.2738 36.6794 39.3597 36.9049 39.417 37.1484C39.4743 37.3919 39.5029 37.6497 39.5029 37.9219C39.5029 39.2324 39.041 40.2493 38.1172 40.9727C37.2005 41.696 35.8291 42.0576 34.0029 42.0576C33.5518 42.0576 33.1937 42.029 32.9287 41.9717C32.8786 42.0648 32.8392 42.1579 32.8105 42.251C32.7891 42.3369 32.7783 42.4193 32.7783 42.498C32.7783 42.6628 32.875 42.7952 33.0684 42.8955C33.2689 42.9886 33.5088 43.0531 33.7881 43.0889C34.0745 43.1247 34.3467 43.1426 34.6045 43.1426H36.624C37.9919 43.1426 39.016 43.429 39.6963 44.002C40.3766 44.5749 40.7168 45.4378 40.7168 46.5908C40.7168 48.0732 40.083 49.2262 38.8154 50.0498C37.555 50.8734 35.7826 51.2852 33.498 51.2852ZM33.7021 48.6641C34.2106 48.6641 34.7227 48.6175 35.2383 48.5244C35.7539 48.4385 36.1872 48.2952 36.5381 48.0947C36.889 47.8942 37.0645 47.6292 37.0645 47.2998C37.0645 47.0492 36.9606 46.8594 36.7529 46.7305C36.5452 46.6087 36.2767 46.5264 35.9473 46.4834C35.6178 46.4404 35.2705 46.4189 34.9053 46.4189H33.2725C32.9717 46.4189 32.696 46.4655 32.4453 46.5586C32.2018 46.6589 32.0085 46.7913 31.8652 46.9561C31.722 47.1208 31.6504 47.307 31.6504 47.5146C31.6504 47.8584 31.8366 48.1341 32.209 48.3418C32.5814 48.5566 33.0791 48.6641 33.7021 48.6641ZM34.2715 39.6836C34.6725 39.6836 34.9805 39.5296 35.1953 39.2217C35.4173 38.9137 35.5283 38.4518 35.5283 37.8359C35.5283 37.2057 35.4245 36.7331 35.2168 36.418C35.0091 36.1029 34.694 35.9453 34.2715 35.9453C33.8346 35.9453 33.5088 36.1029 33.2939 36.418C33.0791 36.7259 32.9717 37.1914 32.9717 37.8145C32.9717 38.4375 33.0791 38.9066 33.2939 39.2217C33.5088 39.5296 33.8346 39.6836 34.2715 39.6836ZM46.9043 33.8291V46H42.7041V33.8291H46.9043ZM44.8203 28.9307C45.4219 28.9307 45.9447 29.056 46.3887 29.3066C46.8398 29.5573 47.0654 30.055 47.0654 30.7998C47.0654 31.5231 46.8398 32.0137 46.3887 32.2715C45.9447 32.5221 45.4219 32.6475 44.8203 32.6475C44.2044 32.6475 43.6781 32.5221 43.2412 32.2715C42.8115 32.0137 42.5967 31.5231 42.5967 30.7998C42.5967 30.055 42.8115 29.5573 43.2412 29.3066C43.6781 29.056 44.2044 28.9307 44.8203 28.9307ZM58.8818 42.2617C58.8818 43.0352 58.71 43.7191 58.3662 44.3135C58.0225 44.9079 57.471 45.3734 56.7119 45.71C55.96 46.0465 54.9681 46.2148 53.7363 46.2148C52.8698 46.2148 52.0928 46.1683 51.4053 46.0752C50.7249 45.9821 50.0339 45.8031 49.332 45.5381V42.1758C50.0983 42.5267 50.8789 42.7809 51.6738 42.9385C52.4688 43.0889 53.0954 43.1641 53.5537 43.1641C54.0264 43.1641 54.3701 43.1139 54.585 43.0137C54.807 42.9062 54.918 42.7487 54.918 42.541C54.918 42.362 54.8428 42.2116 54.6924 42.0898C54.5492 41.9609 54.2878 41.8141 53.9082 41.6494C53.5358 41.4847 53.0094 41.2627 52.3291 40.9834C51.6559 40.7041 51.0938 40.3997 50.6426 40.0703C50.1986 39.7409 49.8656 39.347 49.6436 38.8887C49.4215 38.4303 49.3105 37.8682 49.3105 37.2021C49.3105 36.0133 49.7689 35.1182 50.6855 34.5166C51.6022 33.915 52.8161 33.6143 54.3271 33.6143C55.1292 33.6143 55.8848 33.7038 56.5938 33.8828C57.3027 34.0547 58.0368 34.3089 58.7959 34.6455L57.6465 37.3525C57.0449 37.0804 56.4362 36.862 55.8203 36.6973C55.2044 36.5326 54.7139 36.4502 54.3486 36.4502C54.0192 36.4502 53.765 36.4932 53.5859 36.5791C53.4069 36.665 53.3174 36.7904 53.3174 36.9551C53.3174 37.1055 53.3783 37.238 53.5 37.3525C53.6289 37.4671 53.8688 37.5996 54.2197 37.75C54.5706 37.9004 55.0827 38.1117 55.7559 38.3838C56.4648 38.6702 57.0485 38.9782 57.5068 39.3076C57.9723 39.6299 58.3161 40.0238 58.5381 40.4893C58.7673 40.9548 58.8818 41.5456 58.8818 42.2617Z" fill="#556085"/>
</svg>
