<svg width="1600" height="602" viewBox="0 0 1600 602" fill="none" xmlns="http://www.w3.org/2000/svg">
<rect width="1600" height="602" fill="url(#paint0_linear_1468_1314)"/>
<mask id="mask0_1468_1314" style="mask-type:alpha" maskUnits="userSpaceOnUse" x="0" y="0" width="1600" height="602">
<rect width="1600" height="602" fill="#C4C4C4"/>
</mask>
<g mask="url(#mask0_1468_1314)">
<g opacity="0.1">
<path d="M486.503 599.879C487.067 604.388 487.912 609.179 483.403 613.688C479.176 617.915 474.104 617.351 469.595 616.787C465.086 616.224 462.268 615.66 459.732 618.196C457.195 620.733 457.477 623.833 458.323 628.06C458.886 632.568 459.732 637.359 455.505 641.586C452.405 642.431 449.023 643.559 445.923 644.404C456.632 641.586 467.059 637.359 476.922 632.005C474.667 633.132 472.131 634.541 469.877 635.668C470.44 633.977 471.286 632.568 472.976 630.878C476.64 627.214 480.585 627.214 484.53 627.778C482.276 629.469 480.021 630.596 477.767 631.723C486.503 626.932 494.957 620.733 502.847 613.969C501.438 615.378 500.029 616.224 498.902 617.351C498.62 617.069 498.902 616.787 498.62 616.506C498.057 611.997 497.211 607.206 501.72 602.697L488.757 589.734C485.658 592.834 485.939 595.37 486.503 599.879Z" fill="#EDF1FD"/>
<path d="M454.377 567.754C454.941 572.263 455.786 577.053 451.278 581.562C447.05 585.789 441.978 585.226 437.469 584.662C432.96 584.099 430.142 583.535 427.606 586.071C425.07 588.607 425.352 591.707 426.197 595.934C426.761 600.443 427.606 605.234 423.097 609.743C420.279 612.561 417.461 613.124 414.643 613.124C412.952 613.124 410.98 612.842 409.571 612.561C405.062 611.997 402.244 611.433 399.708 613.97C397.171 616.506 397.453 619.606 398.299 623.833C398.862 628.342 399.708 633.132 395.199 637.641C390.972 641.868 385.899 641.304 381.391 640.741C376.882 640.177 374.064 639.614 371.527 642.15C371.246 642.432 370.964 642.713 370.682 642.995C370.118 642.995 369.555 642.432 368.991 642.432C382.236 646.659 395.762 648.913 409.289 648.913C410.416 647.222 410.416 644.968 409.853 642.15C409.853 641.586 409.853 641.023 409.571 640.741C409.007 636.232 408.162 631.441 412.671 626.933C416.898 622.705 421.406 623.269 425.915 623.833L426.479 623.833C427.043 623.833 427.606 623.833 427.888 624.114C431.27 624.678 433.806 624.396 436.06 622.142C438.315 619.887 438.315 617.633 438.033 613.97C438.033 613.406 438.033 612.842 437.751 612.561C437.187 608.052 436.342 603.261 440.851 598.752C445.078 594.525 450.15 595.089 454.659 595.652C455.223 595.652 455.786 595.652 456.068 595.934C459.45 596.498 461.986 596.216 464.24 593.962C466.495 591.707 466.495 589.453 466.213 585.789C466.213 585.226 466.213 584.662 466.213 584.099C465.649 579.59 464.804 574.799 469.313 570.29L456.35 557.327C453.25 560.427 453.814 563.245 454.377 567.754Z" fill="#EDF1FD"/>
<path d="M438.315 550C438.315 550.564 438.315 551.128 438.597 551.409C439.16 555.918 440.006 560.709 435.497 565.218C431.27 569.445 426.197 568.881 421.689 568.318C421.125 568.318 420.561 568.318 420.28 568.036C416.898 567.472 414.362 567.754 412.107 570.008C409.853 572.263 409.853 574.517 410.135 578.181C410.135 578.744 410.135 579.308 410.416 579.59C410.98 584.098 411.825 588.889 407.317 593.398C404.499 596.216 401.681 596.78 398.863 596.78C397.172 596.78 395.199 596.498 393.79 596.216C393.226 596.216 392.663 596.216 392.381 595.934C388.999 595.371 386.463 595.652 384.209 597.907C381.954 600.161 381.954 602.416 382.236 606.079C382.236 606.643 382.236 607.206 382.518 607.488C383.082 611.997 383.927 616.788 379.418 621.296C375.191 625.523 370.119 624.96 365.61 624.396C365.046 624.396 364.483 624.396 364.201 624.114C360.819 623.551 358.283 623.833 356.029 626.087C353.774 628.341 353.774 630.596 354.056 634.259C354.056 634.823 354.056 635.387 354.338 635.668C354.62 635.95 354.338 636.232 354.62 636.514C353.774 636.232 353.492 635.95 352.647 635.668C357.156 637.923 361.946 639.895 366.737 641.304C367.301 640.177 367.864 639.614 368.71 638.768C372.937 634.541 378.009 635.105 382.518 635.668C387.027 636.232 389.845 636.796 392.381 634.259C394.917 631.723 394.635 628.623 393.79 624.396C393.226 619.887 392.381 615.097 396.89 610.588C401.117 606.361 405.626 606.924 410.135 607.488L410.698 607.488C415.207 608.052 418.025 608.615 420.561 606.079C423.098 603.543 422.816 600.443 421.97 596.216C421.407 591.707 420.561 586.916 425.07 582.408C429.297 578.181 434.37 578.744 438.878 579.308C443.387 579.871 446.205 580.435 448.742 577.899C451.278 575.363 450.996 572.263 450.151 568.036C449.587 563.527 448.742 558.736 453.25 554.227L440.287 541.264C437.751 543.801 437.751 546.619 438.315 550Z" fill="#EDF1FD"/>
<path d="M275.433 528.583C275.151 527.174 275.151 525.483 274.869 524.074C275.151 525.483 275.151 527.174 275.433 528.583Z" fill="#EDF1FD"/>
<path d="M305.304 426.007C306.431 424.88 307.559 423.189 308.686 422.062C305.022 426.289 301.359 431.08 297.977 435.588C300.232 435.588 301.641 435.307 303.332 433.616C305.586 431.361 305.868 429.389 305.304 426.007Z" fill="#EDF1FD"/>
<path d="M281.632 479.55C286.141 480.114 288.677 480.395 291.495 477.577C294.032 475.041 293.75 471.941 292.904 467.714C292.341 463.206 291.495 458.415 296.004 453.906C300.231 449.679 305.304 450.243 309.813 450.806C314.321 451.37 317.139 451.933 319.676 449.397C322.212 446.861 321.93 443.761 321.085 439.534C320.521 435.025 319.676 430.235 324.184 425.726L314.603 416.145C312.912 417.835 311.222 419.526 309.531 421.217C309.531 421.781 309.531 422.344 309.531 422.908C310.094 427.417 310.94 432.207 306.431 436.716C302.767 440.38 298.822 440.38 295.159 440.098C296.004 438.689 297.131 436.998 297.977 435.589C288.677 448.834 282.196 463.769 278.251 478.986C278.814 478.986 279.66 479.268 280.223 479.268C281.069 479.55 281.35 479.268 281.632 479.55Z" fill="#EDF1FD"/>
<path d="M470.44 582.126C470.44 582.689 470.44 583.253 470.722 583.535C471.286 588.044 472.131 592.834 467.622 597.343C463.395 601.57 458.323 601.007 453.814 600.443C453.25 600.443 452.687 600.443 452.405 600.161C449.023 599.598 446.487 599.879 444.233 602.134C441.978 604.388 441.978 606.643 442.26 610.306C442.26 610.87 442.26 611.433 442.542 611.715C443.105 616.224 443.951 621.015 439.442 625.523C436.624 628.341 433.806 628.905 430.988 628.905C429.297 628.905 427.324 628.623 425.915 628.341C425.352 628.341 424.788 628.341 424.506 628.06C421.125 627.496 418.588 627.778 416.334 630.032C414.08 632.287 414.08 634.541 414.361 638.205C414.361 638.768 414.361 639.332 414.643 639.614C415.207 642.432 415.489 645.531 414.643 648.631C418.588 648.631 422.252 648.349 426.197 647.786C426.479 645.813 427.606 644.122 429.297 642.432C433.524 638.205 438.033 638.768 442.542 639.332L443.105 639.332C447.614 639.895 450.432 640.459 452.968 637.923C455.505 635.387 455.223 632.287 454.377 628.06C453.814 623.551 452.968 618.76 457.477 614.251C461.704 610.024 466.777 610.588 471.286 611.152C475.794 611.715 478.612 612.279 481.149 609.743C483.685 607.206 483.403 604.106 482.558 599.879C481.994 595.371 481.149 590.58 485.657 586.071L472.695 573.108C470.158 576.208 469.877 578.744 470.44 582.126Z" fill="#EDF1FD"/>
<path d="M358.001 471.377C358.565 475.886 359.41 480.677 354.901 485.186C350.674 489.413 345.602 488.849 341.093 488.285C336.584 487.722 333.766 487.158 331.23 489.694C328.694 492.231 328.975 495.33 329.821 499.558C330.384 504.066 331.23 508.857 326.721 513.366C323.903 516.184 321.085 516.747 318.267 516.747C316.576 516.747 314.603 516.466 313.194 516.184C308.686 515.62 305.868 515.057 303.331 517.593C300.795 520.129 301.077 523.229 301.922 527.456C302.486 531.965 303.331 536.755 298.823 541.264C294.596 545.491 289.523 544.928 285.014 544.364C282.196 543.801 279.942 543.801 277.969 544.082C280.224 553.664 283.323 562.963 287.55 571.699C286.423 569.445 285.296 567.19 284.451 564.654C284.732 562.681 285.86 560.427 287.55 558.736C291.777 554.509 296.85 555.073 301.359 555.636C301.922 555.636 302.486 555.636 302.768 555.918C306.149 556.482 308.686 556.2 310.94 553.945C313.194 551.691 313.194 549.437 312.913 545.773C312.913 545.21 312.913 544.646 312.631 544.364C312.067 539.855 311.222 535.065 315.731 530.556C319.958 526.329 324.467 526.892 328.975 527.456L329.539 527.456C330.103 527.456 330.666 527.456 330.948 527.738C334.33 528.301 336.866 528.02 339.12 525.765C341.375 523.511 341.375 521.256 341.093 517.593C341.093 517.029 341.093 516.466 340.811 516.184C340.248 511.675 339.402 506.884 343.911 502.376C348.138 498.149 353.21 498.712 357.719 499.276C358.283 499.276 358.846 499.276 359.128 499.558C362.51 500.121 365.046 499.839 367.301 497.585C369.555 495.33 369.555 493.076 369.273 489.413C369.273 488.849 369.273 488.285 369.273 487.722C368.71 483.213 367.864 478.422 372.373 473.914L359.41 460.951C356.874 464.05 357.156 466.587 358.001 471.377Z" fill="#EDF1FD"/>
<path d="M341.657 453.342C341.657 453.906 341.657 454.469 341.938 454.751C342.502 459.26 343.347 464.05 338.839 468.559C334.612 472.786 329.539 472.223 325.03 471.659C324.467 471.659 323.903 471.659 323.621 471.377C320.24 470.814 317.703 471.096 315.449 473.35C313.195 475.604 313.195 477.859 313.476 481.522C313.476 482.086 313.476 482.649 313.758 482.931C314.322 487.44 315.167 492.231 310.658 496.74C307.84 499.558 305.022 500.121 302.204 500.121C300.513 500.121 298.541 499.839 297.132 499.558C296.568 499.558 296.005 499.558 295.723 499.276C292.341 498.712 289.805 498.994 287.551 501.248C285.296 503.503 285.296 505.757 285.578 509.421C285.578 509.984 285.578 510.548 285.86 510.83C286.423 515.339 287.269 520.129 282.76 524.638C280.505 526.892 277.969 527.738 275.433 528.02C275.715 531.683 276.56 535.346 277.124 538.728C279.942 538.165 283.042 538.446 285.578 538.728C290.087 540.419 292.905 540.983 295.723 538.165C298.259 535.628 297.977 532.528 297.132 528.301C296.568 523.793 295.723 519.002 300.232 514.493C304.459 510.266 308.968 510.83 313.476 511.393L314.04 511.393C318.549 511.957 321.367 512.52 323.903 509.984C326.439 507.448 326.157 504.348 325.312 500.121C324.748 495.612 323.903 490.822 328.412 486.313C332.639 482.086 337.711 482.649 342.22 483.213C346.729 483.777 349.547 484.34 352.083 481.804C354.62 479.268 354.338 476.168 353.492 471.941C352.929 467.432 352.083 462.641 356.592 458.133L343.629 445.17C341.375 447.424 341.093 449.96 341.657 453.342Z" fill="#EDF1FD"/>
<path d="M373.782 485.468C373.782 486.031 373.782 486.595 374.064 486.877C374.627 491.385 375.473 496.176 370.964 500.685C366.737 504.912 361.665 504.348 357.156 503.785C356.592 503.785 356.028 503.785 355.747 503.503C352.365 502.939 349.829 503.221 347.574 505.476C345.32 507.73 345.32 509.984 345.602 513.648C345.602 514.211 345.602 514.775 345.884 515.057C346.447 519.566 347.293 524.356 342.784 528.865C339.966 531.683 337.148 532.247 334.33 532.247C332.639 532.247 330.666 531.965 329.257 531.683C328.694 531.683 328.13 531.683 327.848 531.401C324.467 530.838 321.93 531.12 319.676 533.374C317.422 535.628 317.422 537.883 317.703 541.546C317.703 542.11 317.703 542.673 317.985 542.955C318.549 547.464 319.394 552.255 314.885 556.764C310.658 560.991 305.586 560.427 301.077 559.863C300.513 559.863 299.95 559.863 299.668 559.582C296.286 559.018 293.75 559.3 291.496 561.554C289.241 563.809 289.241 566.063 289.523 569.727C289.523 570.29 289.523 570.854 289.805 571.136C290.087 572.545 290.369 573.954 290.369 575.644C290.087 574.799 289.523 574.235 289.241 573.39C295.723 586.071 304.177 598.47 314.604 608.897C316.576 610.87 318.831 613.124 321.085 614.815C319.958 613.688 318.831 612.561 317.422 611.715C317.985 610.024 317.985 608.333 317.422 606.079C317.422 605.515 317.422 604.952 317.14 604.67C316.576 600.161 315.731 595.371 320.24 590.862C324.467 586.635 329.539 587.198 334.048 587.762C334.611 587.762 335.175 587.762 335.457 588.044C338.839 588.607 341.375 588.325 343.629 586.071C345.884 583.817 345.884 581.562 345.602 577.899C345.602 577.335 345.602 576.772 345.32 576.49C344.756 571.981 343.911 567.19 348.42 562.681C352.647 558.454 357.156 559.018 361.665 559.582L362.228 559.582C362.792 559.582 363.355 559.582 363.637 559.863C367.019 560.427 369.555 560.145 371.809 557.891C374.064 555.636 374.064 553.382 373.782 549.719C373.782 549.155 373.782 548.591 373.5 548.31C372.937 543.801 372.091 539.01 376.6 534.501C380.827 530.274 385.9 530.838 390.408 531.401C390.972 531.401 391.536 531.401 391.817 531.683C395.199 532.247 397.735 531.965 399.99 529.711C402.244 527.456 402.244 525.202 401.962 521.538C401.962 520.975 401.962 520.411 401.962 519.847C401.399 515.339 400.553 510.548 405.062 506.039L392.099 493.076C389.563 495.612 389.845 498.712 390.69 502.939C391.254 507.448 392.099 512.239 387.59 516.748C383.363 520.975 378.291 520.411 373.782 519.847C369.273 519.284 366.455 518.72 363.919 521.256C361.383 523.793 361.665 526.893 362.51 531.12C363.074 535.628 363.919 540.419 359.41 544.928C356.592 547.746 353.774 548.31 350.956 548.31C349.265 548.31 347.293 548.028 345.884 547.746C341.375 547.182 338.557 546.619 336.021 549.155C333.484 551.691 333.766 554.791 334.611 559.018C335.175 563.527 336.021 568.318 331.512 572.826C327.285 577.053 322.212 576.49 317.703 575.926C313.195 575.363 310.376 574.799 307.84 577.335C305.304 579.871 305.586 582.971 306.431 587.198C306.995 590.58 307.558 594.525 305.586 598.189C303.613 597.343 302.768 595.934 301.359 594.525C301.359 592.834 301.359 591.144 301.077 588.607C300.513 584.098 299.668 579.308 304.177 574.799C308.404 570.572 313.476 571.136 317.985 571.699C322.494 572.263 325.312 572.826 327.848 570.29C330.384 567.754 330.103 564.654 329.257 560.427C328.694 555.918 327.848 551.128 332.357 546.619C336.584 542.392 341.093 542.955 345.602 543.519L346.165 543.519C350.674 544.082 353.492 544.646 356.028 542.11C358.565 539.574 358.283 536.474 357.437 532.247C356.874 527.738 356.028 522.947 360.537 518.438C364.764 514.211 369.837 514.775 374.346 515.339C378.854 515.902 381.673 516.466 384.209 513.93C386.745 511.393 386.463 508.294 385.618 504.067C385.054 499.558 384.209 494.767 388.718 490.258L375.755 477.295C373.5 479.55 373.218 482.086 373.782 485.468Z" fill="#EDF1FD"/>
<path d="M327.003 429.107C324.467 431.643 324.748 434.743 325.594 438.97C326.157 443.479 327.003 448.27 322.494 452.778C318.267 457.006 313.194 456.442 308.686 455.878C304.177 455.315 301.359 454.751 298.823 457.287C296.286 459.824 296.568 462.923 297.414 467.15C297.977 471.659 298.823 476.45 294.314 480.959C291.496 483.777 288.678 484.34 285.86 484.34C284.169 484.34 282.196 484.059 280.787 483.777C279.66 483.777 278.533 483.213 277.687 483.495C277.969 482.086 278.251 480.677 278.815 478.986C275.151 493.922 273.742 508.857 274.869 524.075C276.56 524.075 277.969 523.229 279.378 521.82C281.633 519.566 281.633 517.311 281.351 513.648C281.351 513.084 281.351 512.521 281.069 512.239C280.505 507.73 279.66 502.939 284.169 498.43C288.396 494.203 292.905 494.767 297.414 495.331L297.977 495.331C298.541 495.331 299.104 495.331 299.386 495.612C302.768 496.176 305.304 495.894 307.558 493.64C309.813 491.385 309.813 489.131 309.531 485.468C309.531 484.904 309.531 484.34 309.249 484.059C308.686 479.55 307.84 474.759 312.349 470.25C316.576 466.023 321.649 466.587 326.157 467.15C326.721 467.15 327.285 467.15 327.566 467.432C330.948 467.996 333.484 467.714 335.739 465.46C337.993 463.205 337.993 460.951 337.711 457.287C337.711 456.724 337.711 456.16 337.711 455.597C337.148 451.088 336.302 446.297 340.811 441.788L327.566 428.543L327.003 429.107Z" fill="#EDF1FD"/>
<path d="M405.907 517.593C405.907 518.157 405.907 518.721 406.189 519.002C406.753 523.511 407.598 528.302 403.089 532.811C398.862 537.038 393.79 536.474 389.281 535.911C388.717 535.911 388.154 535.911 387.872 535.629C384.49 535.065 381.954 535.347 379.7 537.601C377.445 539.856 377.445 542.11 377.727 545.774C377.727 546.337 377.727 546.901 378.009 547.183C378.572 551.691 379.418 556.482 374.909 560.991C372.091 563.809 369.273 564.373 366.455 564.373C364.764 564.373 362.791 564.091 361.382 563.809C360.819 563.809 360.255 563.809 359.973 563.527C356.592 562.964 354.056 563.245 351.801 565.5C349.547 567.754 349.547 570.009 349.828 573.672C349.828 574.236 349.828 574.799 350.11 575.081C350.674 579.59 351.519 584.381 347.01 588.889C342.783 593.116 337.711 592.553 333.202 591.989C332.639 591.989 332.075 591.989 331.793 591.707C328.412 591.144 325.875 591.426 323.621 593.68C321.366 595.934 321.366 598.189 321.648 601.852C321.648 602.416 321.648 602.98 321.93 603.261C322.494 606.643 323.057 610.588 320.803 614.533C330.102 622.706 340.247 629.469 350.956 634.541C350.11 634.26 349.828 633.978 348.983 633.696C348.701 630.596 348.701 626.651 352.365 622.987C356.592 618.76 361.664 619.324 366.173 619.888C366.737 619.888 367.3 619.888 367.582 620.169C370.964 620.733 373.5 620.451 375.754 618.197C378.009 615.942 378.009 613.688 377.727 610.025C377.727 609.461 377.727 608.897 377.445 608.616C376.882 604.107 376.036 599.316 380.545 594.807C384.772 590.58 389.281 591.144 393.79 591.707L394.353 591.707C394.917 591.707 395.48 591.707 395.762 591.989C399.144 592.553 401.68 592.271 403.935 590.017C406.189 587.762 406.189 585.508 405.907 581.844C405.907 581.281 405.907 580.717 405.625 580.435C405.062 575.926 404.216 571.136 408.725 566.627C412.952 562.4 418.025 562.964 422.534 563.527C423.097 563.527 423.661 563.527 423.943 563.809C427.324 564.373 429.86 564.091 432.115 561.836C434.369 559.582 434.369 557.328 434.087 553.664C434.087 553.1 434.087 552.537 434.087 551.973C433.524 547.464 432.678 542.674 437.187 538.165L424.224 525.202C421.688 527.738 421.97 530.838 422.815 535.065C423.379 539.574 424.224 544.365 419.716 548.873C415.488 553.1 410.416 552.537 405.907 551.973C401.398 551.41 398.58 550.846 396.044 553.382C393.508 555.919 393.79 559.018 394.635 563.245C395.199 567.754 396.044 572.545 391.535 577.054C388.717 579.872 385.899 580.435 383.081 580.435C381.39 580.435 379.418 580.154 378.009 579.872C373.5 579.308 370.682 578.745 368.146 581.281C365.609 583.817 365.891 586.917 366.737 591.144C367.3 595.653 368.146 600.443 363.637 604.952C359.41 609.179 354.337 608.616 349.828 608.052C345.32 607.488 342.502 606.925 339.965 609.461C337.429 611.997 337.711 615.097 338.556 619.324C338.838 621.86 339.402 624.678 338.838 627.496C337.429 626.651 336.02 625.806 334.329 624.678C333.766 624.115 333.484 622.706 333.202 620.733C332.639 616.224 331.793 611.434 336.302 606.925C340.529 602.698 345.601 603.261 350.11 603.825C354.619 604.389 357.437 604.952 359.973 602.416C362.51 599.88 362.228 596.78 361.382 592.553C360.819 588.044 359.973 583.253 364.482 578.745C368.709 574.517 373.218 575.081 377.727 575.645L378.291 575.645C382.799 576.208 385.617 576.772 388.154 574.236C390.69 571.699 390.408 568.6 389.563 564.373C388.999 559.864 388.154 555.073 392.662 550.564C396.89 546.337 401.962 546.901 406.471 547.464C410.98 548.028 413.798 548.592 416.334 546.055C418.87 543.519 418.588 540.419 417.743 536.192C417.179 531.684 416.334 526.893 420.843 522.384L407.88 509.421C405.625 511.676 405.344 514.212 405.907 517.593Z" fill="#EDF1FD"/>
<path d="M287.55 571.699C287.832 572.545 288.395 573.108 288.677 573.954C288.395 573.108 288.114 572.263 287.55 571.699Z" fill="#EDF1FD"/>
<path d="M276.842 539.574C277.124 540.983 277.406 542.392 277.969 544.083C277.687 542.674 277.406 541.265 276.842 539.574Z" fill="#EDF1FD"/>
<path d="M507.356 609.461C454.096 662.722 367.864 662.722 314.322 609.179C261.061 555.918 261.061 469.687 314.322 416.426L507.356 609.461Z" stroke="#EDF1FD" stroke-width="1.3589" stroke-miterlimit="10"/>
</g>
<g opacity="0.1">
<path d="M1151.5 86.8793C1152.07 91.3882 1152.91 96.1788 1148.4 100.688C1144.18 104.915 1139.1 104.351 1134.59 103.787C1130.09 103.224 1127.27 102.66 1124.73 105.196C1122.2 107.733 1122.48 110.833 1123.32 115.06C1123.89 119.568 1124.73 124.359 1120.5 128.586C1117.4 129.431 1114.02 130.559 1110.92 131.404C1121.63 128.586 1132.06 124.359 1141.92 119.005C1139.67 120.132 1137.13 121.541 1134.88 122.668C1135.44 120.977 1136.29 119.568 1137.98 117.878C1141.64 114.214 1145.59 114.214 1149.53 114.778C1147.28 116.469 1145.02 117.596 1142.77 118.723C1151.5 113.932 1159.96 107.733 1167.85 100.969C1166.44 102.378 1165.03 103.224 1163.9 104.351C1163.62 104.069 1163.9 103.787 1163.62 103.506C1163.06 98.9968 1162.21 94.2062 1166.72 89.6974L1153.76 76.7344C1150.66 79.8343 1150.94 82.3705 1151.5 86.8793Z" fill="#EDF1FD"/>
<path d="M1167.57 101.251C1169.26 99.5606 1170.95 97.8698 1172.64 96.179L1169.54 93.0792C1167.28 95.3336 1167 97.8698 1167.57 101.251Z" fill="#EDF1FD"/>
<path d="M1079.08 136.195C1077.39 136.195 1075.7 136.195 1074.01 136.195C1075.98 136.477 1077.67 136.477 1079.08 136.195Z" fill="#EDF1FD"/>
<path d="M1119.38 54.754C1119.94 59.2628 1120.79 64.0535 1116.28 68.5623C1112.05 72.7894 1106.98 72.2258 1102.47 71.6622C1097.96 71.0986 1095.14 70.535 1092.61 73.0712C1090.07 75.6074 1090.35 78.7072 1091.2 82.9343C1091.76 87.4431 1092.61 92.2337 1088.1 96.7426C1085.28 99.5606 1082.46 100.124 1079.64 100.124C1077.95 100.124 1075.98 99.8424 1074.57 99.5606C1070.06 98.997 1067.24 98.4334 1064.71 100.97C1062.17 103.506 1062.45 106.606 1063.3 110.833C1063.86 115.342 1064.71 120.132 1060.2 124.641C1055.97 128.868 1050.9 128.304 1046.39 127.741C1041.88 127.177 1039.06 126.614 1036.53 129.15C1036.25 129.432 1035.96 129.713 1035.68 129.995C1035.12 129.995 1034.55 129.432 1033.99 129.432C1047.24 133.659 1060.76 135.913 1074.29 135.913C1075.42 134.222 1075.42 131.968 1074.85 129.15C1074.85 128.586 1074.85 128.023 1074.57 127.741C1074.01 123.232 1073.16 118.441 1077.67 113.933C1081.9 109.705 1086.41 110.269 1090.92 110.833L1091.48 110.833C1092.04 110.833 1092.61 110.833 1092.89 111.114C1096.27 111.678 1098.81 111.396 1101.06 109.142C1103.31 106.887 1103.31 104.633 1103.03 100.97C1103.03 100.406 1103.03 99.8424 1102.75 99.5606C1102.19 95.0518 1101.34 90.2611 1105.85 85.7523C1110.08 81.5252 1115.15 82.0888 1119.66 82.6525C1120.22 82.6525 1120.79 82.6524 1121.07 82.9343C1124.45 83.4979 1126.99 83.2161 1129.24 80.9616C1131.49 78.7072 1131.49 76.4528 1131.21 72.7894C1131.21 72.2258 1131.21 71.6622 1131.21 71.0986C1130.65 66.5897 1129.8 61.7991 1134.31 57.2902L1121.35 44.3273C1118.25 47.4272 1118.81 50.2452 1119.38 54.754Z" fill="#EDF1FD"/>
<path d="M1103.31 37.0004C1103.31 37.564 1103.31 38.1276 1103.6 38.4094C1104.16 42.9182 1105.01 47.7088 1100.5 52.2177C1096.27 56.4447 1091.2 55.8811 1086.69 55.3175C1086.12 55.3175 1085.56 55.3175 1085.28 55.0357C1081.9 54.4721 1079.36 54.7539 1077.11 57.0083C1074.85 59.2628 1074.85 61.5172 1075.13 65.1806C1075.13 65.7442 1075.13 66.3078 1075.42 66.5896C1075.98 71.0985 1076.83 75.8891 1072.32 80.3979C1069.5 83.216 1066.68 83.7796 1063.86 83.7796C1062.17 83.7796 1060.2 83.4978 1058.79 83.216C1058.23 83.216 1057.66 83.216 1057.38 82.9342C1054 82.3706 1051.46 82.6524 1049.21 84.9068C1046.95 87.1612 1046.95 89.4156 1047.24 93.0791C1047.24 93.6427 1047.24 94.2063 1047.52 94.4881C1048.08 98.9969 1048.93 103.788 1044.42 108.296C1040.19 112.523 1035.12 111.96 1030.61 111.396C1030.05 111.396 1029.48 111.396 1029.2 111.114C1025.82 110.551 1023.28 110.833 1021.03 113.087C1018.77 115.341 1018.77 117.596 1019.06 121.259C1019.06 121.823 1019.06 122.387 1019.34 122.668C1019.62 122.95 1019.34 123.232 1019.62 123.514C1018.77 123.232 1018.49 122.95 1017.65 122.668C1022.16 124.923 1026.95 126.895 1031.74 128.304C1032.3 127.177 1032.86 126.614 1033.71 125.768C1037.94 121.541 1043.01 122.105 1047.52 122.668C1052.03 123.232 1054.84 123.796 1057.38 121.259C1059.92 118.723 1059.64 115.623 1058.79 111.396C1058.23 106.887 1057.38 102.097 1061.89 97.5879C1066.12 93.3608 1070.63 93.9244 1075.13 94.4881L1075.7 94.4881C1080.21 95.0517 1083.03 95.6153 1085.56 93.079C1088.1 90.5428 1087.82 87.443 1086.97 83.216C1086.41 78.7071 1085.56 73.9165 1090.07 69.4076C1094.3 65.1806 1099.37 65.7442 1103.88 66.3078C1108.39 66.8714 1111.21 67.435 1113.74 64.8988C1116.28 62.3626 1116 59.2628 1115.15 55.0357C1114.59 50.5269 1113.74 45.7362 1118.25 41.2274L1105.29 28.2645C1102.75 30.8007 1102.75 33.6187 1103.31 37.0004Z" fill="#EDF1FD"/>
<path d="M940.433 15.5832C940.151 14.1742 940.151 12.4833 939.869 11.0743C940.151 12.4833 940.151 14.1742 940.433 15.5832Z" fill="#EDF1FD"/>
<path d="M1097.12 133.377C1096.55 133.941 1096.27 134.222 1095.99 135.068C1094.3 135.068 1092.61 135.631 1090.92 135.631C1097.12 135.068 1103.31 133.941 1109.51 132.25C1108.67 131.968 1107.54 131.968 1106.98 131.968C1102.19 131.122 1099.65 130.841 1097.12 133.377Z" fill="#EDF1FD"/>
<path d="M1135.44 69.1259C1135.44 69.6895 1135.44 70.2531 1135.72 70.5349C1136.29 75.0437 1137.13 79.8344 1132.62 84.3432C1128.4 88.5703 1123.32 88.0066 1118.81 87.443C1118.25 87.443 1117.69 87.443 1117.4 87.1612C1114.02 86.5976 1111.49 86.8794 1109.23 89.1339C1106.98 91.3883 1106.98 93.6427 1107.26 97.3061C1107.26 97.8697 1107.26 98.4333 1107.54 98.7151C1108.11 103.224 1108.95 108.015 1104.44 112.523C1101.62 115.341 1098.81 115.905 1095.99 115.905C1094.3 115.905 1092.32 115.623 1090.92 115.341C1090.35 115.341 1089.79 115.341 1089.51 115.06C1086.12 114.496 1083.59 114.778 1081.33 117.032C1079.08 119.287 1079.08 121.541 1079.36 125.205C1079.36 125.768 1079.36 126.332 1079.64 126.614C1080.21 129.432 1080.49 132.531 1079.64 135.631C1083.59 135.631 1087.25 135.349 1091.2 134.786C1091.48 132.813 1092.61 131.122 1094.3 129.432C1098.52 125.205 1103.03 125.768 1107.54 126.332L1108.11 126.332C1112.61 126.895 1115.43 127.459 1117.97 124.923C1120.5 122.387 1120.22 119.287 1119.38 115.06C1118.81 110.551 1117.97 105.76 1122.48 101.251C1126.7 97.0243 1131.78 97.5879 1136.29 98.1515C1140.79 98.7151 1143.61 99.2787 1146.15 96.7425C1148.68 94.2063 1148.4 91.1065 1147.56 86.8794C1146.99 82.3706 1146.15 77.58 1150.66 73.0711L1137.69 60.1082C1135.16 63.208 1134.88 65.7442 1135.44 69.1259Z" fill="#EDF1FD"/>
<path d="M1023 -41.6227C1023.56 -37.1139 1024.41 -32.3233 1019.9 -27.8144C1015.67 -23.5874 1010.6 -24.151 1006.09 -24.7146C1001.58 -25.2782 998.766 -25.8418 996.23 -23.3056C993.694 -20.7694 993.975 -17.6695 994.821 -13.4425C995.384 -8.93365 996.23 -4.14301 991.721 0.365831C988.903 3.18386 986.085 3.74746 983.267 3.74746C981.576 3.74746 979.603 3.46566 978.194 3.18385C973.686 2.62025 970.868 2.05664 968.331 4.59286C965.795 7.12909 966.077 10.2289 966.922 14.456C967.486 18.9648 968.331 23.7554 963.823 28.2643C959.596 32.4913 954.523 31.9277 950.014 31.3641C947.196 30.8005 944.942 30.8005 942.969 31.0823C945.224 40.6636 948.323 49.9631 952.55 58.6989C951.423 56.4445 950.296 54.1901 949.451 51.6539C949.732 49.6813 950.86 47.4268 952.55 45.736C956.777 41.509 961.85 42.0726 966.359 42.6362C966.922 42.6362 967.486 42.6362 967.768 42.918C971.149 43.4816 973.686 43.1998 975.94 40.9454C978.194 38.691 978.194 36.4365 977.913 32.7731C977.913 32.2095 977.913 31.6459 977.631 31.3641C977.067 26.8553 976.222 22.0646 980.731 17.5558C984.958 13.3287 989.467 13.8923 993.975 14.456L994.539 14.456C995.103 14.456 995.666 14.456 995.948 14.7378C999.33 15.3014 1001.87 15.0196 1004.12 12.7651C1006.37 10.5107 1006.37 8.2563 1006.09 4.59286C1006.09 4.02926 1006.09 3.46566 1005.81 3.18386C1005.25 -1.32498 1004.4 -6.11562 1008.91 -10.6245C1013.14 -14.8515 1018.21 -14.2879 1022.72 -13.7243C1023.28 -13.7243 1023.85 -13.7243 1024.13 -13.4425C1027.51 -12.8789 1030.05 -13.1607 1032.3 -15.4151C1034.55 -17.6695 1034.55 -19.9239 1034.27 -23.5874C1034.27 -24.151 1034.27 -24.7146 1034.27 -25.2782C1033.71 -29.787 1032.86 -34.5777 1037.37 -39.0865L1024.41 -52.0494C1021.87 -48.9496 1022.16 -46.4134 1023 -41.6227Z" fill="#EDF1FD"/>
<path d="M1006.66 -59.658C1006.66 -59.0944 1006.66 -58.5308 1006.94 -58.249C1007.5 -53.7402 1008.35 -48.9496 1003.84 -44.4407C999.612 -40.2137 994.539 -40.7773 990.03 -41.3409C989.467 -41.3409 988.903 -41.3409 988.621 -41.6227C985.24 -42.1863 982.703 -41.9045 980.449 -39.6501C978.195 -37.3957 978.195 -35.1412 978.476 -31.4778C978.476 -30.9142 978.476 -30.3506 978.758 -30.0688C979.322 -25.56 980.167 -20.7693 975.658 -16.2605C972.84 -13.4424 970.022 -12.8788 967.204 -12.8788C965.513 -12.8788 963.541 -13.1606 962.132 -13.4424C961.568 -13.4424 961.005 -13.4424 960.723 -13.7242C957.341 -14.2879 954.805 -14.0061 952.551 -11.7516C950.296 -9.49721 950.296 -7.24279 950.578 -3.57936C950.578 -3.01575 950.578 -2.45215 950.86 -2.17035C951.423 2.33849 952.269 7.12913 947.76 11.638C945.506 13.8924 942.969 14.7378 940.433 15.0196C940.715 18.683 941.56 22.3465 942.124 25.7281C944.942 25.1645 948.042 25.4463 950.578 25.7281C955.087 27.4189 957.905 27.9825 960.723 25.1645C963.259 22.6283 962.977 19.5284 962.132 15.3014C961.568 10.7926 960.723 6.00193 965.232 1.49309C969.459 -2.73395 973.968 -2.17035 978.476 -1.60674L979.04 -1.60674C983.549 -1.04314 986.367 -0.479531 988.903 -3.01575C991.439 -5.55198 991.157 -8.6518 990.312 -12.8788C989.748 -17.3877 988.903 -22.1783 993.412 -26.6872C997.639 -30.9142 1002.71 -30.3506 1007.22 -29.787C1011.73 -29.2234 1014.55 -28.6598 1017.08 -31.196C1019.62 -33.7322 1019.34 -36.832 1018.49 -41.0591C1017.93 -45.5679 1017.08 -50.3586 1021.59 -54.8674L1008.63 -67.8303C1006.37 -65.5759 1006.09 -63.0397 1006.66 -59.658Z" fill="#EDF1FD"/>
<path d="M1038.78 -27.5324C1038.78 -26.9688 1038.78 -26.4052 1039.06 -26.1234C1039.63 -21.6146 1040.47 -16.8239 1035.96 -12.3151C1031.74 -8.08804 1026.66 -8.65165 1022.16 -9.21525C1021.59 -9.21525 1021.03 -9.21525 1020.75 -9.49705C1017.37 -10.0607 1014.83 -9.77886 1012.57 -7.52444C1010.32 -5.27002 1010.32 -3.0156 1010.6 0.647835C1010.6 1.21144 1010.6 1.77504 1010.88 2.05685C1011.45 6.56569 1012.29 11.3563 1007.78 15.8652C1004.97 18.6832 1002.15 19.2468 999.33 19.2468C997.639 19.2468 995.666 18.965 994.257 18.6832C993.694 18.6832 993.13 18.6832 992.848 18.4014C989.467 17.8378 986.93 18.1196 984.676 20.374C982.422 22.6284 982.422 24.8829 982.703 28.5463C982.703 29.1099 982.703 29.6735 982.985 29.9553C983.549 34.4641 984.394 39.2548 979.885 43.7636C975.658 47.9907 970.586 47.427 966.077 46.8634C965.513 46.8634 964.95 46.8634 964.668 46.5816C961.286 46.018 958.75 46.2998 956.496 48.5543C954.241 50.8087 954.241 53.0631 954.523 56.7265C954.523 57.2901 954.523 57.8537 954.805 58.1355C955.087 59.5446 955.369 60.9536 955.369 62.6444C955.087 61.799 954.523 61.2354 954.241 60.39C960.723 73.0711 969.177 85.4704 979.604 95.8971C981.576 97.8697 983.831 100.124 986.085 101.815C984.958 100.688 983.831 99.5605 982.422 98.7151C982.985 97.0243 982.985 95.3335 982.422 93.0791C982.422 92.5155 982.422 91.9518 982.14 91.67C981.576 87.1612 980.731 82.3706 985.24 77.8617C989.467 73.6347 994.539 74.1983 999.048 74.7619C999.612 74.7619 1000.18 74.7619 1000.46 75.0437C1003.84 75.6073 1006.37 75.3255 1008.63 73.0711C1010.88 70.8167 1010.88 68.5622 1010.6 64.8988C1010.6 64.3352 1010.6 63.7716 1010.32 63.4898C1009.76 58.9809 1008.91 54.1903 1013.42 49.6815C1017.65 45.4544 1022.16 46.018 1026.66 46.5816L1027.23 46.5816C1027.79 46.5816 1028.36 46.5816 1028.64 46.8634C1032.02 47.4271 1034.56 47.1452 1036.81 44.8908C1039.06 42.6364 1039.06 40.382 1038.78 36.7186C1038.78 36.155 1038.78 35.5913 1038.5 35.3095C1037.94 30.8007 1037.09 26.0101 1041.6 21.5012C1045.83 17.2742 1050.9 17.8378 1055.41 18.4014C1055.97 18.4014 1056.54 18.4014 1056.82 18.6832C1060.2 19.2468 1062.74 18.965 1064.99 16.7106C1067.24 14.4562 1067.24 12.2017 1066.96 8.53831C1066.96 7.97471 1066.96 7.4111 1066.96 6.84749C1066.4 2.33865 1065.55 -2.45198 1070.06 -6.96082L1057.1 -19.9237C1054.56 -17.3875 1054.84 -14.2877 1055.69 -10.0607C1056.25 -5.55181 1057.1 -0.761175 1052.59 3.74766C1048.36 7.9747 1043.29 7.4111 1038.78 6.84749C1034.27 6.28389 1031.46 5.72028 1028.92 8.2565C1026.38 10.7927 1026.66 13.8926 1027.51 18.1196C1028.07 22.6284 1028.92 27.4191 1024.41 31.9279C1021.59 34.7459 1018.77 35.3095 1015.96 35.3095C1014.27 35.3095 1012.29 35.0277 1010.88 34.7459C1006.37 34.1823 1003.56 33.6187 1001.02 36.155C998.484 38.6912 998.766 41.791 999.612 46.018C1000.18 50.5269 1001.02 55.3175 996.512 59.8264C992.285 64.0534 987.212 63.4898 982.703 62.9262C978.195 62.3626 975.377 61.799 972.84 64.3352C970.304 66.8714 970.586 69.9712 971.431 74.1983C971.995 77.5799 972.558 81.5251 970.586 85.1886C968.613 84.3432 967.768 82.9342 966.359 81.5251C966.359 79.8343 966.359 78.1435 966.077 75.6073C965.513 71.0985 964.668 66.3078 969.177 61.799C973.404 57.5719 978.476 58.1355 982.985 58.6991C987.494 59.2628 990.312 59.8264 992.848 57.2901C995.384 54.7539 995.103 51.6541 994.257 47.427C993.694 42.9182 992.848 38.1276 997.357 33.6187C1001.58 29.3917 1006.09 29.9553 1010.6 30.5189L1011.17 30.5189C1015.67 31.0825 1018.49 31.6461 1021.03 29.1099C1023.56 26.5737 1023.28 23.4738 1022.44 19.2468C1021.87 14.738 1021.03 9.94732 1025.54 5.43848C1029.76 1.21144 1034.84 1.77505 1039.35 2.33865C1043.85 2.90226 1046.67 3.46586 1049.21 0.929639C1051.74 -1.60658 1051.46 -4.70641 1050.62 -8.93345C1050.05 -13.4423 1049.21 -18.2329 1053.72 -22.7418L1040.75 -35.7047C1038.5 -33.4503 1038.22 -30.914 1038.78 -27.5324Z" fill="#EDF1FD"/>
<path d="M992.003 -83.8929C989.467 -81.3567 989.748 -78.2569 990.594 -74.0298C991.157 -69.521 992.003 -64.7303 987.494 -60.2215C983.267 -55.9945 978.194 -56.5581 973.686 -57.1217C969.177 -57.6853 966.359 -58.2489 963.823 -55.7127C961.286 -53.1764 961.568 -50.0766 962.414 -45.8496C962.977 -41.3407 963.823 -36.5501 959.314 -32.0413C956.496 -29.2232 953.678 -28.6596 950.86 -28.6596C949.169 -28.6596 947.196 -28.9414 945.787 -29.2232C944.66 -29.2232 943.533 -29.7868 942.687 -29.505C942.969 -30.914 943.251 -32.3231 943.815 -34.0139C940.151 -19.0783 938.742 -4.14281 939.869 11.0745C941.56 11.0745 942.969 10.2291 944.378 8.8201C946.633 6.56568 946.633 4.31126 946.351 0.647829C946.351 0.0842245 946.351 -0.47938 946.069 -0.761183C945.505 -5.27002 944.66 -10.0607 949.169 -14.5695C953.396 -18.7965 957.905 -18.2329 962.414 -17.6693L962.977 -17.6693C963.541 -17.6693 964.104 -17.6693 964.386 -17.3875C967.768 -16.8239 970.304 -17.1057 972.558 -19.3601C974.813 -21.6146 974.813 -23.869 974.531 -27.5324C974.531 -28.096 974.531 -28.6596 974.249 -28.9414C973.686 -33.4503 972.84 -38.2409 977.349 -42.7498C981.576 -46.9768 986.649 -46.4132 991.157 -45.8496C991.721 -45.8496 992.285 -45.8496 992.566 -45.5678C995.948 -45.0042 998.484 -45.286 1000.74 -47.5404C1002.99 -49.7948 1002.99 -52.0492 1002.71 -55.7127C1002.71 -56.2763 1002.71 -56.8399 1002.71 -57.4035C1002.15 -61.9123 1001.3 -66.703 1005.81 -71.2118L992.566 -84.4565L992.003 -83.8929Z" fill="#EDF1FD"/>
<path d="M1070.91 4.59338C1070.91 5.15699 1070.91 5.72059 1071.19 6.00239C1071.75 10.5112 1072.6 15.3019 1068.09 19.8107C1063.86 24.0377 1058.79 23.4741 1054.28 22.9105C1053.72 22.9105 1053.15 22.9105 1052.87 22.6287C1049.49 22.0651 1046.95 22.3469 1044.7 24.6013C1042.45 26.8558 1042.45 29.1102 1042.73 32.7736C1042.73 33.3372 1042.73 33.9008 1043.01 34.1826C1043.57 38.6915 1044.42 43.4821 1039.91 47.9909C1037.09 50.809 1034.27 51.3726 1031.45 51.3726C1029.76 51.3726 1027.79 51.0908 1026.38 50.809C1025.82 50.809 1025.26 50.809 1024.97 50.5272C1021.59 49.9636 1019.06 50.2454 1016.8 52.4998C1014.55 54.7542 1014.55 57.0086 1014.83 60.6721C1014.83 61.2357 1014.83 61.7993 1015.11 62.0811C1015.67 66.5899 1016.52 71.3805 1012.01 75.8894C1007.78 80.1164 1002.71 79.5528 998.202 78.9892C997.639 78.9892 997.075 78.9892 996.793 78.7074C993.412 78.1438 990.875 78.4256 988.621 80.68C986.366 82.9345 986.366 85.1889 986.648 88.8523C986.648 89.4159 986.648 89.9795 986.93 90.2613C987.494 93.643 988.057 97.5882 985.803 101.533C995.102 109.706 1005.25 116.469 1015.96 121.541C1015.11 121.26 1014.83 120.978 1013.98 120.696C1013.7 117.596 1013.7 113.651 1017.36 109.987C1021.59 105.76 1026.66 106.324 1031.17 106.888C1031.74 106.888 1032.3 106.888 1032.58 107.169C1035.96 107.733 1038.5 107.451 1040.75 105.197C1043.01 102.942 1043.01 100.688 1042.73 97.0246C1042.73 96.461 1042.73 95.8974 1042.45 95.6156C1041.88 91.1067 1041.04 86.3161 1045.54 81.8072C1049.77 77.5802 1054.28 78.1438 1058.79 78.7074L1059.35 78.7074C1059.92 78.7074 1060.48 78.7074 1060.76 78.9892C1064.14 79.5528 1066.68 79.271 1068.93 77.0166C1071.19 74.7622 1071.19 72.5078 1070.91 68.8443C1070.91 68.2807 1070.91 67.7171 1070.63 67.4353C1070.06 62.9265 1069.22 58.1358 1073.73 53.627C1077.95 49.4 1083.02 49.9636 1087.53 50.5272C1088.1 50.5272 1088.66 50.5272 1088.94 50.809C1092.32 51.3726 1094.86 51.0908 1097.11 48.8364C1099.37 46.5819 1099.37 44.3275 1099.09 40.6641C1099.09 40.1005 1099.09 39.5369 1099.09 38.9733C1098.52 34.4644 1097.68 29.6738 1102.19 25.165L1089.22 12.202C1086.69 14.7383 1086.97 17.8381 1087.82 22.0651C1088.38 26.574 1089.22 31.3646 1084.72 35.8734C1080.49 40.1005 1075.42 39.5369 1070.91 38.9733C1066.4 38.4097 1063.58 37.8461 1061.04 40.3823C1058.51 42.9185 1058.79 46.0183 1059.64 50.2454C1060.2 54.7542 1061.04 59.5449 1056.54 64.0537C1053.72 66.8717 1050.9 67.4353 1048.08 67.4353C1046.39 67.4353 1044.42 67.1535 1043.01 66.8717C1038.5 66.3081 1035.68 65.7445 1033.15 68.2807C1030.61 70.8169 1030.89 73.9168 1031.74 78.1438C1032.3 82.6527 1033.15 87.4433 1028.64 91.9521C1024.41 96.1792 1019.34 95.6156 1014.83 95.052C1010.32 94.4884 1007.5 93.9248 1004.97 96.461C1002.43 98.9972 1002.71 102.097 1003.56 106.324C1003.84 108.86 1004.4 111.678 1003.84 114.496C1002.43 113.651 1001.02 112.806 999.329 111.678C998.766 111.115 998.484 109.706 998.202 107.733C997.639 103.224 996.793 98.4336 1001.3 93.9248C1005.53 89.6977 1010.6 90.2613 1015.11 90.8249C1019.62 91.3885 1022.44 91.9521 1024.97 89.4159C1027.51 86.8797 1027.23 83.7799 1026.38 79.5528C1025.82 75.044 1024.97 70.2533 1029.48 65.7445C1033.71 61.5175 1038.22 62.0811 1042.73 62.6447L1043.29 62.6447C1047.8 63.2083 1050.62 63.7719 1053.15 61.2357C1055.69 58.6994 1055.41 55.5996 1054.56 51.3726C1054 46.8637 1053.15 42.0731 1057.66 37.5643C1061.89 33.3372 1066.96 33.9008 1071.47 34.4644C1075.98 35.028 1078.8 35.5916 1081.33 33.0554C1083.87 30.5192 1083.59 27.4194 1082.74 23.1923C1082.18 18.6835 1081.33 13.8929 1085.84 9.38402L1072.88 -3.57889C1070.63 -1.32447 1070.34 1.21175 1070.91 4.59338Z" fill="#EDF1FD"/>
<path d="M952.55 58.6995C952.832 59.5449 953.395 60.1085 953.677 60.9539C953.395 60.1085 953.114 59.2631 952.55 58.6995Z" fill="#EDF1FD"/>
<path d="M941.842 26.5737C942.124 27.9827 942.406 29.3917 942.969 31.0825C942.687 29.6735 942.406 28.2645 941.842 26.5737Z" fill="#EDF1FD"/>
<path d="M1017.08 123.232C1016.8 122.95 1016.24 122.95 1015.96 122.668C1016.52 122.668 1016.8 122.95 1017.08 123.232Z" fill="#EDF1FD"/>
<path d="M1031.17 128.868C1032.02 129.15 1032.86 129.431 1033.71 129.713C1033.15 129.713 1032.02 129.15 1031.17 128.868Z" fill="#EDF1FD"/>
<path d="M1109.51 132.25C1110.08 132.25 1110.92 131.968 1111.2 131.686C1110.64 131.686 1110.08 132.25 1109.51 132.25Z" fill="#EDF1FD"/>
<path d="M1172.36 96.4609C1119.1 149.722 1032.86 149.722 979.322 96.1791C926.061 42.9184 926.061 -43.3131 979.322 -96.5738L1172.36 96.4609Z" stroke="#EDF1FD" stroke-width="1.3589" stroke-miterlimit="10"/>
</g>
<g opacity="0.1">
<path d="M730 465.66C783.261 412.399 869.774 412.117 923.316 465.66C976.577 518.92 976.859 605.434 923.317 658.976L730 465.66V465.66Z" stroke="white" stroke-width="1.3589" stroke-miterlimit="10"/>
<path d="M842.721 430.153L839.621 433.253L842.721 436.352L845.821 433.253L842.721 430.153Z" fill="white"/>
<path d="M871.747 433.252L874.565 436.634L876.255 434.943C875.128 434.379 873.437 433.816 871.747 433.252Z" fill="white"/>
<path d="M874.846 462.278L871.746 465.378L874.846 468.478L877.946 465.378L874.846 462.278Z" fill="white"/>
<path d="M906.972 462.278L903.872 465.378L906.972 468.477L910.072 465.378L906.972 462.278Z" fill="white"/>
<path d="M906.972 494.404L903.872 497.504L906.972 500.603L910.072 497.503L906.972 494.404Z" fill="white"/>
<path d="M939.098 494.403L935.998 497.503L939.098 500.603L942.198 497.503L939.098 494.403Z" fill="white"/>
<path d="M939.379 526.811L936.279 529.911L939.379 533.011L942.479 529.911L939.379 526.811Z" fill="white"/>
<path d="M778.47 436.352L781.57 433.252C779.879 433.816 778.47 434.661 777.061 434.943L778.47 436.352Z" fill="white"/>
<path d="M810.595 430.153L807.496 433.252L810.595 436.352L813.695 433.252L810.595 430.153Z" fill="white"/>
<path d="M810.596 462.278L807.496 465.378L810.596 468.478L813.695 465.378L810.596 462.278Z" fill="white"/>
<path d="M842.721 462.278L839.621 465.378L842.721 468.478L845.821 465.378L842.721 462.278Z" fill="white"/>
<path d="M842.721 494.403L839.621 497.503L842.721 500.603L845.821 497.503L842.721 494.403Z" fill="white"/>
<path d="M874.846 494.404L871.747 497.503L874.846 500.603L877.946 497.503L874.846 494.404Z" fill="white"/>
<path d="M874.846 526.529L871.747 529.629L874.846 532.729L877.946 529.629L874.846 526.529Z" fill="white"/>
<path d="M906.972 526.529L903.872 529.629L906.972 532.729L910.072 529.629L906.972 526.529Z" fill="white"/>
<path d="M907.254 558.936L904.154 562.036L907.254 565.136L910.354 562.036L907.254 558.936Z" fill="white"/>
<path d="M939.379 558.936L936.279 562.036L939.379 565.136L942.479 562.036L939.379 558.936Z" fill="white"/>
<path d="M939.379 591.062L936.279 594.161L939.379 597.261L942.479 594.161L939.379 591.062Z" fill="white"/>
<path d="M746.063 462.559L742.963 465.659L746.063 468.759L749.163 465.659L746.063 462.559Z" fill="white"/>
<path d="M778.188 462.56L775.088 465.66L778.188 468.76L781.288 465.66L778.188 462.56Z" fill="white"/>
<path d="M778.188 494.685L775.088 497.785L778.188 500.885L781.288 497.785L778.188 494.685Z" fill="white"/>
<path d="M810.313 494.685L807.214 497.785L810.313 500.885L813.413 497.785L810.313 494.685Z" fill="white"/>
<path d="M810.314 526.811L807.214 529.911L810.314 533.01L813.413 529.911L810.314 526.811Z" fill="white"/>
<path d="M842.439 526.811L839.339 529.911L842.439 533.01L845.539 529.911L842.439 526.811Z" fill="white"/>
<path d="M842.439 558.936L839.339 562.036L842.439 565.136L845.539 562.036L842.439 558.936Z" fill="white"/>
<path d="M874.565 558.936L871.465 562.036L874.565 565.136L877.664 562.036L874.565 558.936Z" fill="white"/>
<path d="M874.846 591.344L871.747 594.443L874.846 597.543L877.946 594.443L874.846 591.344Z" fill="white"/>
<path d="M906.972 591.344L903.872 594.443L906.972 597.543L910.072 594.443L906.972 591.344Z" fill="white"/>
</g>
<g opacity="0.2">
<path d="M1336.66 387.975C1283.4 334.714 1283.12 248.201 1336.66 194.658C1389.92 141.397 1476.43 141.116 1529.97 194.658L1336.66 387.975V387.975Z" stroke="#CEE0FE" stroke-width="1.3589" stroke-miterlimit="10"/>
<path d="M1301.15 275.254L1304.25 278.354L1307.35 275.254L1304.25 272.154L1301.15 275.254Z" fill="#CEE0FE"/>
<path d="M1304.25 246.228L1307.63 243.41L1305.94 241.719C1305.38 242.846 1304.81 244.537 1304.25 246.228Z" fill="#CEE0FE"/>
<path d="M1333.28 243.128L1336.38 246.228L1339.48 243.128L1336.38 240.029L1333.28 243.128Z" fill="#CEE0FE"/>
<path d="M1333.28 211.003L1336.38 214.102L1339.48 211.003L1336.38 207.903L1333.28 211.003Z" fill="#CEE0FE"/>
<path d="M1365.4 211.003L1368.5 214.103L1371.6 211.003L1368.5 207.903L1365.4 211.003Z" fill="#CEE0FE"/>
<path d="M1365.4 178.877L1368.5 181.977L1371.6 178.877L1368.5 175.777L1365.4 178.877Z" fill="#CEE0FE"/>
<path d="M1397.81 178.596L1400.91 181.695L1404.01 178.596L1400.91 175.496L1397.81 178.596Z" fill="#CEE0FE"/>
<path d="M1307.35 339.505L1304.25 336.405C1304.81 338.096 1305.66 339.505 1305.94 340.914L1307.35 339.505Z" fill="#CEE0FE"/>
<path d="M1301.15 307.379L1304.25 310.479L1307.35 307.379L1304.25 304.279L1301.15 307.379Z" fill="#CEE0FE"/>
<path d="M1333.28 307.379L1336.38 310.479L1339.48 307.379L1336.38 304.279L1333.28 307.379Z" fill="#CEE0FE"/>
<path d="M1333.28 275.254L1336.38 278.354L1339.48 275.254L1336.38 272.154L1333.28 275.254Z" fill="#CEE0FE"/>
<path d="M1365.4 275.254L1368.5 278.354L1371.6 275.254L1368.5 272.154L1365.4 275.254Z" fill="#CEE0FE"/>
<path d="M1365.4 243.128L1368.5 246.228L1371.6 243.128L1368.5 240.029L1365.4 243.128Z" fill="#CEE0FE"/>
<path d="M1397.53 243.128L1400.63 246.228L1403.73 243.128L1400.63 240.028L1397.53 243.128Z" fill="#CEE0FE"/>
<path d="M1397.53 211.003L1400.63 214.103L1403.73 211.003L1400.63 207.903L1397.53 211.003Z" fill="#CEE0FE"/>
<path d="M1429.93 210.721L1433.03 213.821L1436.13 210.721L1433.03 207.621L1429.93 210.721Z" fill="#CEE0FE"/>
<path d="M1429.93 178.595L1433.03 181.695L1436.13 178.595L1433.03 175.496L1429.93 178.595Z" fill="#CEE0FE"/>
<path d="M1462.06 178.595L1465.16 181.695L1468.26 178.595L1465.16 175.496L1462.06 178.595Z" fill="#CEE0FE"/>
<path d="M1333.56 371.911L1336.66 375.011L1339.76 371.911L1336.66 368.812L1333.56 371.911Z" fill="#CEE0FE"/>
<path d="M1333.56 339.787L1336.66 342.886L1339.76 339.787L1336.66 336.687L1333.56 339.787Z" fill="#CEE0FE"/>
<path d="M1365.68 339.786L1368.78 342.886L1371.88 339.786L1368.78 336.687L1365.68 339.786Z" fill="#CEE0FE"/>
<path d="M1365.68 307.661L1368.78 310.761L1371.88 307.661L1368.78 304.561L1365.68 307.661Z" fill="#CEE0FE"/>
<path d="M1397.81 307.661L1400.91 310.761L1404.01 307.661L1400.91 304.561L1397.81 307.661Z" fill="#CEE0FE"/>
<path d="M1397.81 275.536L1400.91 278.635L1404.01 275.536L1400.91 272.436L1397.81 275.536Z" fill="#CEE0FE"/>
<path d="M1429.93 275.535L1433.03 278.635L1436.13 275.535L1433.03 272.436L1429.93 275.535Z" fill="#CEE0FE"/>
<path d="M1429.93 243.41L1433.03 246.51L1436.13 243.41L1433.03 240.31L1429.93 243.41Z" fill="#CEE0FE"/>
<path d="M1462.34 243.128L1465.44 246.228L1468.54 243.128L1465.44 240.028L1462.34 243.128Z" fill="#CEE0FE"/>
<path d="M1462.34 211.003L1465.44 214.103L1468.54 211.003L1465.44 207.903L1462.34 211.003Z" fill="#CEE0FE"/>
<path d="M1494.47 211.003L1497.57 214.103L1500.67 211.003L1497.57 207.903L1494.47 211.003Z" fill="#CEE0FE"/>
<path d="M1494.47 178.877L1497.57 181.977L1500.67 178.877L1497.57 175.778L1494.47 178.877Z" fill="#CEE0FE"/>
</g>
<g opacity="0.1">
<path d="M328.648 125C377.963 181.934 372.056 268.246 314.821 317.821C257.888 367.136 171.576 361.229 122 303.994L328.648 125V125Z" stroke="#EAEEFD" stroke-width="1.3589" stroke-miterlimit="10"/>
<path d="M356.002 239.972L353.132 236.658L349.818 239.528L352.688 242.842L356.002 239.972Z" fill="#EAEEFD"/>
<path d="M350.834 268.702L347.26 271.27L348.825 273.078C349.468 271.994 350.151 270.348 350.834 268.702Z" fill="#EAEEFD"/>
<path d="M321.661 269.717L318.791 266.403L315.477 269.274L318.348 272.587L321.661 269.717Z" fill="#EAEEFD"/>
<path d="M319.364 301.761L316.494 298.447L313.18 301.317L316.05 304.631L319.364 301.761Z" fill="#EAEEFD"/>
<path d="M287.32 299.463L284.45 296.149L281.136 299.019L284.007 302.333L287.32 299.463Z" fill="#EAEEFD"/>
<path d="M285.023 331.506L282.153 328.193L278.839 331.063L281.709 334.376L285.023 331.506Z" fill="#EAEEFD"/>
<path d="M252.678 329.469L249.808 326.155L246.494 329.025L249.364 332.339L252.678 329.469Z" fill="#EAEEFD"/>
<path d="M354.414 175.442L357.284 178.756C356.843 177.029 356.101 175.563 355.92 174.137L354.414 175.442Z" fill="#EAEEFD"/>
<path d="M358.3 207.929L355.43 204.615L352.116 207.485L354.986 210.799L358.3 207.929Z" fill="#EAEEFD"/>
<path d="M326.257 205.631L323.387 202.317L320.073 205.188L322.943 208.501L326.257 205.631Z" fill="#EAEEFD"/>
<path d="M323.959 237.674L321.089 234.36L317.775 237.231L320.645 240.544L323.959 237.674Z" fill="#EAEEFD"/>
<path d="M291.916 235.376L289.046 232.063L285.732 234.933L288.602 238.247L291.916 235.376Z" fill="#EAEEFD"/>
<path d="M289.618 267.419L286.748 264.106L283.434 266.976L286.304 270.29L289.618 267.419Z" fill="#EAEEFD"/>
<path d="M257.575 265.122L254.705 261.808L251.391 264.678L254.261 267.992L257.575 265.122Z" fill="#EAEEFD"/>
<path d="M255.277 297.165L252.407 293.851L249.093 296.721L251.963 300.035L255.277 297.165Z" fill="#EAEEFD"/>
<path d="M222.933 295.128L220.062 291.815L216.749 294.685L219.619 297.998L222.933 295.128Z" fill="#EAEEFD"/>
<path d="M220.635 327.171L217.765 323.858L214.451 326.728L217.321 330.041L220.635 327.171Z" fill="#EAEEFD"/>
<path d="M188.592 324.874L185.722 321.56L182.408 324.43L185.278 327.744L188.592 324.874Z" fill="#EAEEFD"/>
<path d="M330.592 141.244L327.722 137.93L324.408 140.8L327.278 144.114L330.592 141.244Z" fill="#EAEEFD"/>
<path d="M328.294 173.286L325.423 169.973L322.11 172.843L324.98 176.157L328.294 173.286Z" fill="#EAEEFD"/>
<path d="M296.251 170.989L293.38 167.675L290.067 170.545L292.937 173.859L296.251 170.989Z" fill="#EAEEFD"/>
<path d="M293.953 203.032L291.083 199.718L287.769 202.588L290.639 205.902L293.953 203.032Z" fill="#EAEEFD"/>
<path d="M261.91 200.734L259.039 197.42L255.726 200.291L258.596 203.604L261.91 200.734Z" fill="#EAEEFD"/>
<path d="M259.612 232.777L256.741 229.464L253.428 232.334L256.298 235.647L259.612 232.777Z" fill="#EAEEFD"/>
<path d="M227.569 230.48L224.698 227.166L221.385 230.036L224.255 233.35L227.569 230.48Z" fill="#EAEEFD"/>
<path d="M225.271 262.523L222.4 259.209L219.087 262.079L221.957 265.393L225.271 262.523Z" fill="#EAEEFD"/>
<path d="M192.926 260.486L190.056 257.172L186.743 260.042L189.613 263.356L192.926 260.486Z" fill="#EAEEFD"/>
<path d="M190.628 292.529L187.758 289.215L184.445 292.086L187.315 295.399L190.628 292.529Z" fill="#EAEEFD"/>
<path d="M158.585 290.231L155.715 286.918L152.402 289.788L155.272 293.101L158.585 290.231Z" fill="#EAEEFD"/>
<path d="M156.288 322.274L153.417 318.961L150.104 321.831L152.974 325.144L156.288 322.274Z" fill="#EAEEFD"/>
</g>
</g>
<defs>
<linearGradient id="paint0_linear_1468_1314" x1="-161" y1="659.5" x2="417.47" y2="-277.981" gradientUnits="userSpaceOnUse">
<stop stop-color="#65C1BE"/>
<stop offset="0.729167" stop-color="#448BB4"/>
</linearGradient>
</defs>
</svg>
