<svg width="1600" height="409" viewBox="0 0 1600 409" fill="none" xmlns="http://www.w3.org/2000/svg">
<g opacity="0.6">
<path d="M1595.84 437.85C1581.97 405.834 1549.59 374.976 1563.47 341.707C1580.43 304.581 1603.55 268.901 1599.54 231.823C1599.54 226.567 1599.54 221.263 1599.54 216.008" stroke="url(#paint0_linear_128_585)" stroke-miterlimit="10"/>
<path d="M1561.62 442.479C1546.67 416.442 1511.21 391.852 1509.67 364.851C1508.12 333.51 1548.21 304.099 1560.54 272.758C1566.71 256.847 1568.25 241.418 1567.94 226.133C1567.94 221.36 1567.94 216.538 1567.94 211.765" stroke="url(#paint1_linear_128_585)" stroke-miterlimit="10"/>
<path d="M1526.93 447.107C1457.09 397.203 1438.59 343.201 1507.97 290.164C1535.72 268.949 1538.8 245.805 1536.02 222.468C1536.02 217.502 1536.02 212.536 1536.02 207.57" stroke="url(#paint2_linear_128_585)" stroke-miterlimit="10"/>
<path d="M1492.71 451.688C1477.29 436.211 1457.25 421.746 1434.12 406.799C1357.04 358.101 1458.79 312.295 1492.71 263.597C1503.5 248.168 1505.04 233.703 1504.42 218.708C1504.42 213.549 1504.42 208.438 1504.42 203.279" stroke="url(#paint3_linear_128_585)" stroke-miterlimit="10"/>
<path d="M1458.95 456.172C1412.39 418.419 1316.81 381.775 1367.69 338.862C1415.48 298.361 1483.31 259.306 1472.52 215.092C1472.52 209.788 1472.52 204.436 1472.52 199.132" stroke="url(#paint4_linear_128_585)" stroke-miterlimit="10"/>
<path d="M1426.11 460.463C1396.97 436.259 1344.56 416.49 1318.35 391.9C1269.02 345.613 1381.56 305.594 1423.18 262.681C1438.59 245.324 1441.68 227.484 1440.75 209.547C1440.75 204.677 1440.75 199.759 1440.75 194.89" stroke="url(#paint5_linear_128_585)" stroke-miterlimit="10"/>
<path d="M1394.35 464.658C1367.68 441.08 1313.73 422.276 1281.35 399.132C1258.23 383.703 1255.15 366.345 1269.02 349.952C1309.1 305.111 1410.85 268.467 1408.69 220.974C1409 215.863 1409 210.8 1409 205.738C1409 200.723 1409 195.66 1409 190.646" stroke="url(#paint6_linear_128_585)" stroke-miterlimit="10"/>
<path d="M1363.52 468.66C1335.31 444.455 1281.36 424.687 1244.36 401.543C1204.28 376.471 1224.32 348.505 1259.77 324.397C1310.65 290.164 1381.56 256.895 1377.09 217.647C1377.4 212.392 1377.4 207.184 1377.4 201.977C1377.4 196.77 1377.4 191.61 1377.4 186.403" stroke="url(#paint7_linear_128_585)" stroke-miterlimit="10"/>
<path d="M1333.46 472.613C1310.64 452.651 1273.64 436.258 1236.64 417.936C1187.31 393.828 1173.44 366.345 1205.81 339.826C1255.14 297.878 1350.72 260.752 1345.48 214.32C1345.63 208.919 1345.63 203.567 1345.63 198.215C1345.63 192.863 1345.63 187.511 1345.63 182.159" stroke="url(#paint8_linear_128_585)" stroke-miterlimit="10"/>
<path d="M1304.01 476.471C1279.8 453.616 1235.1 434.812 1196.56 413.597C1145.68 386.596 1150.31 355.256 1188.85 327.772C1242.81 288.718 1326.05 251.591 1313.87 207.666C1313.87 202.7 1313.87 197.734 1313.87 192.816C1313.87 187.898 1313.87 182.883 1313.87 177.965" stroke="url(#paint9_linear_128_585)" stroke-miterlimit="10"/>
<path d="M1274.88 480.328C1265.93 471.408 1256.69 462.729 1242.81 454.533C1199.65 429.942 1144.15 407.763 1134.9 379.798C1119.48 337.368 1202.73 302.17 1252.06 264.561C1278.27 245.275 1282.89 225.024 1282.12 204.243C1282.12 199.132 1282.12 194.07 1282.12 188.959C1282.12 183.848 1282.12 178.785 1282.12 173.674" stroke="url(#paint10_linear_128_585)" stroke-miterlimit="10"/>
<path d="M1245.58 484.282C1239.72 473.385 1225.85 462.777 1207.35 452.652C1144.14 417.454 1079.39 379.364 1122.56 337.898C1165.72 296.914 1252.05 260.752 1250.36 216.635C1250.51 211.379 1250.51 206.123 1250.51 200.868C1250.51 190.405 1250.51 179.894 1250.51 169.431" stroke="url(#paint11_linear_128_585)" stroke-miterlimit="10"/>
<path d="M1215.99 488.284C1210.6 478.207 1202.89 468.563 1190.56 459.402C1148.93 430.955 1088.81 403.954 1087.27 371.649C1087.27 333.558 1148.93 300.289 1192.1 265.092C1212.14 248.698 1221.39 231.34 1218.77 213.645C1218.77 208.245 1218.77 202.893 1218.77 197.493C1218.77 186.741 1218.77 175.988 1218.77 165.188" stroke="url(#paint12_linear_128_585)" stroke-miterlimit="10"/>
<path d="M1185.78 492.381C1182.7 485.92 1182.7 479.652 1176.53 473.384C1137.99 434.811 1054.74 401.542 1068.62 359.594C1079.41 320.057 1147.24 287.753 1178.07 249.18C1184.24 239.537 1187.32 230.858 1186.86 221.263C1186.86 216.248 1186.86 211.234 1186.86 206.171C1186.86 191.128 1186.86 176.036 1186.86 160.993" stroke="url(#paint13_linear_128_585)" stroke-miterlimit="10"/>
<path d="M1154.95 496.528C1153.56 484.426 1148.93 471.89 1133.52 460.318C1128.12 456.123 1122.73 451.929 1117.33 447.685C1111.94 443.442 1106.69 439.199 1101.45 434.908C1091.89 426.085 1081.1 417.888 1073.4 409.016C1069.39 404.677 1065.69 400.289 1062.6 395.901C1046.88 373.915 1043.33 351.35 1065.69 328.206C1101.14 291.562 1164.35 257.329 1155.41 218.467C1155.41 213.307 1155.41 208.148 1155.41 203.037C1155.41 187.608 1155.41 172.131 1155.41 156.702" stroke="url(#paint14_linear_128_585)" stroke-miterlimit="10"/>
<path d="M1123.49 500.772C1123.96 496.818 1123.65 492.913 1122.88 489.007C1121.95 485.15 1120.56 481.293 1118.41 477.484C1116.4 468.998 1107.15 460.801 1099.44 452.604C1077.86 430.907 1045.49 410.656 1034.85 388.525C1033.16 384.812 1031.92 381.1 1031.15 377.387C1027.3 358.824 1035.16 340.116 1051.65 321.457C1077.86 291.08 1121.03 263.115 1123.34 231.678C1123.34 226.375 1123.34 221.071 1123.34 215.815C1123.34 194.697 1123.34 173.626 1123.34 152.508" stroke="url(#paint15_linear_128_585)" stroke-miterlimit="10"/>
<path d="M1091.72 504.966C1091.72 491.659 1094.81 478.158 1080.93 464.658C1051.64 434.764 1023.89 405.352 1015.26 373.867C1014.18 369.142 1013.72 364.417 1013.87 359.691C1014.18 345.468 1020.35 331.148 1034.68 316.683C1057.81 293.057 1080.93 269.913 1090.18 245.853C1091.57 240.212 1091.57 234.764 1091.57 229.364C1091.57 202.363 1091.57 175.313 1091.57 148.312" stroke="url(#paint16_linear_128_585)" stroke-miterlimit="10"/>
<path d="M1059.68 509.209C1059.37 497.926 1062.45 486.355 1054.74 475.265C1023.91 436.692 1000.79 399.084 1000.79 359.836C1000.79 355.255 1001.1 350.675 1001.71 346.094C1002.33 341.514 1003.41 336.933 1004.95 332.353C1006.49 327.772 1008.34 323.192 1010.65 318.563C1019.29 300.771 1037.79 283.896 1052.74 267.116C1055.05 263.693 1056.9 260.221 1058.13 256.702C1060.76 249.662 1061.22 242.478 1059.98 235.342C1059.98 230.279 1059.98 225.217 1059.98 220.106C1059.98 194.744 1059.98 169.383 1059.98 144.021" stroke="url(#paint17_linear_128_585)" stroke-miterlimit="10"/>
<path d="M1026.83 513.452C1025.44 499.421 1030.07 485.439 1019.28 471.456C989.987 435.294 982.279 400.096 981.816 363.693C981.816 359.45 981.97 355.207 982.433 350.964C982.895 346.721 983.512 342.478 984.283 338.235C985.208 333.51 986.441 328.833 988.137 324.108C988.445 318.563 991.528 313.259 996.153 307.473C1019.28 274.204 1036.24 242.864 1028.22 209.836C1028.22 205.93 1028.22 202.073 1028.22 198.168C1028.22 178.688 1028.22 159.257 1028.22 139.778" stroke="url(#paint18_linear_128_585)" stroke-miterlimit="10"/>
<path d="M992.919 517.695C988.448 500.868 991.532 484.474 979.199 467.599C948.366 427.58 962.241 388.525 963.166 348.987C963.782 344.31 964.553 339.634 965.632 334.957C971.491 310.415 988.448 285.824 996.156 261.234C1003.86 235.198 996.156 209.161 996.465 183.365C996.465 179.363 996.465 175.41 996.465 171.408C996.465 159.45 996.465 147.541 996.465 135.583" stroke="url(#paint19_linear_128_585)" stroke-miterlimit="10"/>
<path d="M957.611 521.939C932.946 464.707 925.238 407.329 938.033 349.374C940.5 344.504 942.966 339.682 945.124 334.813C969.174 281.389 972.411 227.869 964.703 174.06C964.703 169.287 964.703 164.562 964.703 159.837C964.703 150.338 964.703 140.839 964.703 131.341" stroke="url(#paint20_linear_128_585)" stroke-miterlimit="10"/>
<path d="M921.068 526.181C869.732 470.974 892.856 413.597 914.439 357.039C916.751 352.459 918.755 347.878 920.759 343.346C944.192 283.847 945.888 223.867 933.092 163.982C933.092 159.884 933.092 155.786 933.092 151.687C933.092 143.491 933.092 135.294 933.092 127.145" stroke="url(#paint21_linear_128_585)" stroke-miterlimit="10"/>
<path d="M883.767 530.425C858.947 501.833 814.241 474.832 831.198 443.973C851.239 408.776 897.488 376.953 895.946 341.707C896.717 337.705 897.642 333.703 898.721 329.653C903.963 309.595 912.133 289.586 915.987 269.431C923.695 228.448 900.571 188.428 901.342 147.975C901.342 143.78 901.342 139.634 901.342 135.439C901.342 131.244 901.342 127.098 901.342 122.903" stroke="url(#paint22_linear_128_585)" stroke-miterlimit="10"/>
<path d="M845.993 534.716C808.069 504.726 737.155 474.35 772.612 440.599C809.611 406.365 868.192 374.543 871.275 337.899C874.05 333.222 876.517 328.545 878.675 323.916C906.732 263.549 887 206.558 869.58 147.445C869.58 142.624 869.58 137.85 869.58 133.029C869.58 128.207 869.58 123.434 869.58 118.612" stroke="url(#paint23_linear_128_585)" stroke-miterlimit="10"/>
<path d="M808.231 538.958C746.412 504.725 636.958 467.117 729.454 425.651C789.577 398.168 834.284 371.167 841.838 338.862C843.688 334.426 845.692 329.942 847.696 325.506C862.496 294.455 883.77 263.934 874.212 232.305C864.963 201.446 840.297 172.035 837.83 141.658C837.676 137.078 837.676 132.546 837.676 128.013C837.676 123.481 837.676 118.949 837.676 114.416" stroke="url(#paint24_linear_128_585)" stroke-miterlimit="10"/>
<path d="M771.078 543.25C740.245 525.94 700.163 512.44 663.165 495.564C618.458 475.796 609.208 452.17 655.457 431.919C726.371 400.579 803.452 372.613 817.326 334.426C819.639 330.183 821.951 325.94 824.572 321.697C832.126 308.968 840.913 296.095 849.546 282.883C877.295 237.078 832.588 196.095 809.464 151.736C804.839 143.057 806.381 134.378 805.918 125.603C805.918 120.444 805.918 115.285 805.918 110.125" stroke="url(#paint25_linear_128_585)" stroke-miterlimit="10"/>
<path d="M735.61 547.493C698.611 529.315 650.821 514.368 606.114 497.01C492.035 455.063 635.405 416.972 715.569 383.703C755.651 367.792 783.4 349.952 794.654 330.376C798.046 325.795 801.591 321.215 805.137 316.634C815.62 302.893 826.72 289.007 834.119 274.686C860.327 229.363 804.829 189.344 780.163 145.468C773.996 136.789 772.455 128.11 774.151 119.383C774.151 114.899 774.151 110.366 774.151 105.882" stroke="url(#paint26_linear_128_585)" stroke-miterlimit="10"/>
<path d="M702.17 551.784C697.083 548.602 687.833 546.191 681.666 542.816C624.627 519.672 546.004 503.279 518.255 475.796C473.548 433.366 621.543 408.293 693.999 375.506C727.915 360.559 755.664 346.095 769.693 329.315C773.855 325.024 778.017 320.781 782.026 316.538C806.846 291.128 831.666 266.152 823.495 239.055C812.704 203.375 766.455 172.517 746.414 136.837C743.331 130.087 741.79 123.819 742.714 117.792C742.56 112.392 742.56 107.04 742.56 101.688" stroke="url(#paint27_linear_128_585)" stroke-miterlimit="10"/>
<path d="M671.184 556.027C661.626 551.495 652.376 547.156 640.043 543.298C532.13 511.476 384.135 465.188 521.339 419.865C606.128 391.418 704.791 365.863 745.335 328.833C749.96 324.735 754.739 320.685 759.364 316.587C768.768 308.438 778.634 300.29 787.884 292.093C848.007 240.02 764.76 191.321 721.595 140.694C713.887 131.533 710.803 122.855 710.957 113.886C710.803 108.39 710.803 102.941 710.803 97.4929" stroke="url(#paint28_linear_128_585)" stroke-miterlimit="10"/>
<path d="M642.201 560.222C633.876 556.268 624.626 552.893 615.376 549.036C522.88 516.249 351.76 478.158 462.757 429.46C549.087 390.405 673.958 365.815 729.148 323.433C734.852 319.238 740.556 315.043 746.26 310.848C757.513 302.459 768.459 293.973 777.246 285.294C800.37 264.079 795.745 242.382 780.329 220.684C751.039 181.629 681.666 148.36 679.508 108.823C679.199 103.568 679.199 98.3604 679.199 93.2013" stroke="url(#paint29_linear_128_585)" stroke-miterlimit="10"/>
<path d="M615.212 564.465C569.118 542.816 507.453 525.941 453.496 505.208C293.168 444.938 530.577 393.829 649.282 351.399C669.323 343.684 686.28 335.487 699.692 326.953C706.167 323 712.642 318.998 718.809 315.044C731.296 307.136 743.629 299.181 754.111 291.129C789.569 264.128 778.777 234.716 749.487 207.715C712.488 173.482 649.282 141.659 647.894 104.918C647.432 99.5665 647.432 94.2627 647.432 89.0072" stroke="url(#paint30_linear_128_585)" stroke-miterlimit="10"/>
<path d="M589.318 568.659C555.248 551.012 510.541 536.065 462.751 521.118C362.546 489.778 347.13 443.49 445.793 409.257C527.499 380.81 613.829 356.702 678.423 324.975C684.744 321.793 690.756 318.611 696.768 315.429C732.225 296.335 761.516 276.904 760.283 254.484C755.658 211.571 673.952 175.409 632.329 134.908C621.537 123.818 616.913 112.728 615.988 100.964C615.679 95.5153 615.525 90.1151 615.525 84.7632" stroke="url(#paint31_linear_128_585)" stroke-miterlimit="10"/>
<path d="M564.037 572.854C549.083 564.465 532.126 556.75 513.626 549.036C438.087 520.106 331.716 491.659 361.006 450.675C391.839 406.798 501.293 379.315 595.332 348.457C623.081 339.296 646.205 329.171 666.092 318.515C673.646 314.706 681.2 310.897 688.6 307.04C695.845 303.182 702.937 299.325 709.566 295.42C806.688 238.042 655.609 184.523 600.111 131.485C589.32 119.913 584.695 108.341 584.541 96.9624C584.232 91.4176 584.078 85.9691 584.078 80.4725" stroke="url(#paint32_linear_128_585)" stroke-miterlimit="10"/>
<path d="M538.759 577.049C530.589 570.733 519.797 564.947 507.464 559.161C433.467 525.41 319.387 496.962 342.511 453.568C368.719 404.388 495.131 372.565 598.42 336.885C607.669 333.51 615.377 330.135 623.548 326.471C631.256 323.047 638.81 319.672 646.21 316.249C697.7 292.382 742.561 267.792 715.583 237.078C687.833 203.809 630.794 176.808 587.628 145.95C564.504 128.592 552.171 110.752 552.48 91.8997C552.171 86.6441 552.171 81.4368 552.171 76.2295" stroke="url(#paint33_linear_128_585)" stroke-miterlimit="10"/>
<path d="M512.705 581.292C481.256 553.424 411.883 533.173 364.093 507.136C236.139 438.669 441.174 377.917 583.002 331.63C592.252 328.255 599.96 324.88 608.285 321.312C616.301 317.888 624.164 314.417 631.872 310.897C685.057 286.355 723.135 260.126 686.445 229.412C629.405 182.16 512.242 140.694 520.875 87.9943C520.721 82.6424 520.567 77.3386 520.567 72.0348" stroke="url(#paint34_linear_128_585)" stroke-miterlimit="10"/>
<path d="M485.254 585.488C462.746 558.728 407.248 537.995 356.375 513.887C236.129 456.028 362.541 397.204 484.329 353.328C516.703 341.756 553.701 333.077 579.138 320.782C588.388 316.876 597.329 312.971 605.962 309.017C665.931 281.245 704.472 251.303 646.198 216.876C581.451 179.268 498.203 144.07 490.495 100.483C489.262 94.8897 488.954 89.4413 488.645 83.9929C488.645 78.5927 488.645 73.1925 488.645 67.7924" stroke="url(#paint35_linear_128_585)" stroke-miterlimit="10"/>
<path d="M455.824 589.682C452.124 574.108 427.458 561.09 402.792 547.59C350.377 519.624 288.713 491.659 296.421 458.872C308.754 407.281 421.292 365.815 521.343 327.242C529.051 324.398 536.759 321.601 544.775 318.756C600.119 298.891 659.626 278.351 644.826 250.097C623.243 210.56 541.538 181.148 493.748 145.95C472.165 130.039 459.832 113.645 458.291 96.5769C457.52 90.9838 457.366 85.439 457.057 79.9424C457.057 74.4457 457.057 68.9973 457.057 63.5007" stroke="url(#paint36_linear_128_585)" stroke-miterlimit="10"/>
<path d="M425.137 593.925C421.129 561.62 353.298 536.066 313.216 507.136C223.802 443.973 359.464 379.846 476.165 330.665C485.568 327.628 494.664 324.494 503.605 321.311C583.769 292.623 649.288 257.907 581.303 219.286C510.388 178.303 420.975 138.766 425.445 90.8388C425.291 85.5833 425.137 80.3278 424.983 75.0722C424.983 69.8167 424.983 64.6094 424.983 59.3538" stroke="url(#paint37_linear_128_585)" stroke-miterlimit="10"/>
<path d="M393.531 598.167C399.543 562.102 324.004 532.69 288.546 499.421C223.799 437.222 348.669 378.881 441.166 327.29C448.566 324.204 456.274 321.215 464.291 318.225C520.097 297.444 585.153 278.254 567.579 249.18C545.996 209.643 464.291 180.231 422.667 143.587C401.084 125.265 391.835 106.46 393.531 87.0294C393.531 81.7256 393.531 76.3736 393.531 71.0699C393.531 65.7661 393.531 60.4142 393.531 55.1104" stroke="url(#paint38_linear_128_585)" stroke-miterlimit="10"/>
<path d="M361.782 602.41C361.782 597.396 361.782 592.381 361.319 587.367C359.469 578.977 357.927 571.263 348.678 563.548C287.013 513.403 213.016 459.884 293.18 406.846C317.845 389.488 336.345 371.648 359.469 353.808C370.26 344.647 385.677 335.968 403.251 327.145C410.342 323.529 417.896 319.912 425.759 316.344C449.191 305.641 474.936 295.081 495.131 283.895C579.92 238.09 445.8 195.178 396.468 153.23C368.719 130.568 361.011 106.942 361.782 83.3164C361.782 77.9162 361.782 72.516 361.782 67.1158C361.782 61.7156 361.782 56.3155 361.782 50.9153" stroke="url(#paint39_linear_128_585)" stroke-miterlimit="10"/>
<path d="M330.023 606.654C330.023 601.833 330.023 597.059 330.023 592.238C330.177 579.46 325.553 566.442 313.22 553.906C270.054 511.476 216.098 468.564 259.263 423.723C285.471 396.722 316.303 372.132 336.344 343.684C339.427 339.827 344.052 335.969 350.218 332.112C357.31 327.773 365.326 323.433 373.497 319.142C431.307 288.959 506.076 258.872 453.507 222.18C394.925 181.678 325.553 141.659 330.332 96.0947C330.023 90.5499 330.023 85.0532 330.023 79.5566C330.023 68.5634 330.023 57.6184 330.023 46.6251" stroke="url(#paint40_linear_128_585)" stroke-miterlimit="10"/>
<path d="M298.267 610.897C298.267 605.979 298.267 601.013 298.267 596.095C298.267 591.177 298.267 586.21 297.958 581.292C296.263 551.495 260.805 524.976 239.223 495.082C209.932 455.063 245.389 417.936 280.846 380.328C294.721 365.863 293.179 350.916 305.512 336.741C308.441 333.317 311.987 329.942 315.995 326.615C336.344 309.981 369.798 294.6 394.926 278.592C425.758 258.824 418.05 236.644 394.926 216.393C351.761 180.231 299.346 144.552 299.037 105.689C298.575 100.386 298.421 95.0819 298.267 89.7781C298.267 73.9633 298.267 58.1966 298.267 42.3818" stroke="url(#paint41_linear_128_585)" stroke-miterlimit="10"/>
<path d="M266.512 615.092C266.512 610.367 266.512 605.593 266.512 600.868C266.512 596.143 266.512 591.37 266.512 586.644C266.974 578.978 265.433 570.781 263.891 563.067C250.016 524.012 202.226 486.885 214.559 446.866C225.351 411.186 266.974 378.399 267.591 342.816C268.362 339.2 269.749 335.632 271.753 332.112C281.928 314.561 307.364 298.505 331.722 282.449C362.554 260.752 362.554 236.644 340.972 213.983C303.973 176.856 262.349 140.694 266.82 102.314C266.666 96.9624 266.666 91.6104 266.512 86.2584C266.512 70.2507 266.512 54.1948 266.512 38.1871" stroke="url(#paint42_linear_128_585)" stroke-miterlimit="10"/>
<path d="M234.908 619.335C234.908 609.692 234.908 600.049 234.908 590.405C234.908 585.584 234.908 580.762 234.908 575.941C236.296 570.251 234.754 564.947 233.213 559.161C220.88 522.035 188.506 485.873 196.214 448.265C203.922 412.585 237.838 378.351 235.217 342.912C235.525 339.827 235.833 336.837 236.296 333.848C237.838 324.88 241.383 316.201 251.712 307.522C285.628 276.664 316.46 245.323 288.711 212.536C256.337 174.446 231.671 137.319 234.908 98.9876C234.908 93.5875 234.908 88.1391 234.908 82.7389C234.908 66.4901 234.908 50.193 234.909 33.9442" stroke="url(#paint43_linear_128_585)" stroke-miterlimit="10"/>
<path d="M203.15 623.578C203.15 613.211 203.15 602.797 203.15 592.43C203.15 587.223 203.15 582.064 203.15 576.856C202.379 564.995 202.379 553.423 199.296 541.369C185.421 505.207 168.464 470.492 179.255 434.33C186.963 408.775 203.921 384.185 202.996 358.727C203.15 353.52 203.15 348.361 203.15 343.153C203.304 337.657 203.458 332.208 204.229 326.808C207.004 306.557 223.962 287.753 237.836 267.02C245.544 252.555 248.628 239.055 244.003 224.59C231.67 192.285 208.546 160.945 204.383 128.833C203.767 123.24 203.458 117.695 203.15 112.15C203.15 84.6672 203.15 57.1358 203.15 29.6527" stroke="url(#paint44_linear_128_585)" stroke-miterlimit="10"/>
<path d="M171.381 627.82C171.381 611.957 171.381 596.094 171.381 580.279C171.381 574.976 171.381 569.72 171.381 564.416C171.535 551.494 171.535 538.958 165.369 525.94C140.703 469.045 165.369 414.079 171.535 358.341C171.535 353.037 171.535 347.782 171.535 342.478C171.535 337.174 171.535 331.919 171.689 326.663C171.689 319.575 171.689 312.343 176.314 304.628C208.688 250.144 190.189 199.517 174.772 145.998C171.689 137.319 170.148 129.122 171.843 120.588C171.689 115.284 171.689 110.028 171.689 104.725C171.689 78.3023 171.689 51.8799 171.689 25.4575" stroke="url(#paint45_linear_128_585)" stroke-miterlimit="10"/>
<path d="M139.633 632.063C139.633 611.716 139.633 591.321 139.633 570.974C139.633 565.863 139.633 560.8 139.633 555.689C129.921 494.551 128.379 433.799 139.633 372.42C139.787 367.309 139.787 362.247 139.787 357.136C139.787 346.962 139.787 336.789 139.787 326.615C139.941 321.263 139.941 315.911 140.25 310.607C153.045 256.895 156.128 203.375 140.866 149.951C140.404 144.503 140.25 139.151 139.787 133.751C139.787 96.2388 139.787 58.7267 139.787 21.2147" stroke="url(#paint46_linear_128_585)" stroke-miterlimit="10"/>
<path d="M107.867 636.307C107.867 610.512 107.867 584.716 107.867 558.872C107.867 553.713 107.867 548.554 107.867 543.395C103.55 491.707 102.009 440.116 107.713 388.573C107.867 383.414 107.867 378.255 107.867 373.096C107.867 357.619 107.867 342.141 107.867 326.664C107.867 321.215 107.867 315.815 107.867 310.367C114.341 255.931 114.341 201.929 108.021 147.397C107.867 141.948 107.867 136.5 107.867 131.051C107.867 93.009 107.867 55.0148 107.867 16.9723" stroke="url(#paint47_linear_128_585)" stroke-miterlimit="10"/>
<path d="M76.1188 640.501C76.1188 608.968 76.1188 577.435 76.1188 545.902C76.1188 540.646 76.1188 535.391 76.1188 530.135C75.8104 488.332 72.7271 445.902 75.9647 403.954C76.1188 398.698 76.1188 393.443 76.1188 388.187C76.1188 356.654 76.1188 325.12 76.1188 293.587C76.1188 288.091 76.273 282.594 76.4272 277.097C78.8939 243.876 78.8938 211.09 76.5813 178.013C76.4271 172.469 76.273 166.972 76.1188 161.427C76.1188 111.861 76.1188 62.2949 76.1188 12.7288" stroke="url(#paint48_linear_128_585)" stroke-miterlimit="10"/>
<path d="M44.3649 644.744C44.3649 612.922 44.3649 581.099 44.3649 549.325C44.3649 538.717 44.3649 528.11 44.3649 517.502C44.9802 485.921 41.9035 454.098 44.3649 422.083C44.3649 411.475 44.3649 400.867 44.3649 390.26C44.3649 358.437 44.3649 326.615 44.3649 294.84C44.3649 284.233 44.3649 273.625 44.3649 263.018C44.9803 241.947 44.9802 220.732 44.5187 199.421C44.3649 188.813 44.3649 178.206 44.3649 167.598C44.3649 114.561 44.3649 61.5713 44.3649 8.5337" stroke="url(#paint49_linear_128_585)" stroke-miterlimit="10"/>
<path d="M12.6016 648.987C12.6016 434.088 12.6016 219.141 12.6016 4.24221" stroke="url(#paint50_linear_128_585)" stroke-miterlimit="10"/>
</g>
<defs>
<linearGradient id="paint0_linear_128_585" x1="1580.04" y1="437.85" x2="1580.04" y2="216.008" gradientUnits="userSpaceOnUse">
<stop stop-color="#85A8FF"/>
<stop offset="1" stop-color="white" stop-opacity="0"/>
</linearGradient>
<linearGradient id="paint1_linear_128_585" x1="1538.8" y1="442.479" x2="1538.8" y2="211.765" gradientUnits="userSpaceOnUse">
<stop stop-color="#85A8FF"/>
<stop offset="1" stop-color="white" stop-opacity="0"/>
</linearGradient>
<linearGradient id="paint2_linear_128_585" x1="1500.58" y1="447.107" x2="1500.58" y2="207.57" gradientUnits="userSpaceOnUse">
<stop stop-color="#85A8FF"/>
<stop offset="1" stop-color="white" stop-opacity="0"/>
</linearGradient>
<linearGradient id="paint3_linear_128_585" x1="1455.23" y1="451.688" x2="1455.23" y2="203.279" gradientUnits="userSpaceOnUse">
<stop stop-color="#85A8FF"/>
<stop offset="1" stop-color="white" stop-opacity="0"/>
</linearGradient>
<linearGradient id="paint4_linear_128_585" x1="1413.42" y1="456.172" x2="1413.42" y2="199.132" gradientUnits="userSpaceOnUse">
<stop stop-color="#85A8FF"/>
<stop offset="1" stop-color="white" stop-opacity="0"/>
</linearGradient>
<linearGradient id="paint5_linear_128_585" x1="1373.49" y1="460.463" x2="1373.49" y2="194.89" gradientUnits="userSpaceOnUse">
<stop stop-color="#85A8FF"/>
<stop offset="1" stop-color="white" stop-opacity="0"/>
</linearGradient>
<linearGradient id="paint6_linear_128_585" x1="1334.85" y1="464.658" x2="1334.85" y2="190.646" gradientUnits="userSpaceOnUse">
<stop stop-color="#85A8FF"/>
<stop offset="1" stop-color="white" stop-opacity="0"/>
</linearGradient>
<linearGradient id="paint7_linear_128_585" x1="1299.82" y1="468.66" x2="1299.82" y2="186.403" gradientUnits="userSpaceOnUse">
<stop stop-color="#85A8FF"/>
<stop offset="1" stop-color="white" stop-opacity="0"/>
</linearGradient>
<linearGradient id="paint8_linear_128_585" x1="1267" y1="472.613" x2="1267" y2="182.159" gradientUnits="userSpaceOnUse">
<stop stop-color="#85A8FF"/>
<stop offset="1" stop-color="white" stop-opacity="0"/>
</linearGradient>
<linearGradient id="paint9_linear_128_585" x1="1237.12" y1="476.471" x2="1237.12" y2="177.965" gradientUnits="userSpaceOnUse">
<stop stop-color="#85A8FF"/>
<stop offset="1" stop-color="white" stop-opacity="0"/>
</linearGradient>
<linearGradient id="paint10_linear_128_585" x1="1207.61" y1="480.328" x2="1207.61" y2="173.674" gradientUnits="userSpaceOnUse">
<stop stop-color="#85A8FF"/>
<stop offset="1" stop-color="white" stop-opacity="0"/>
</linearGradient>
<linearGradient id="paint11_linear_128_585" x1="1179.54" y1="484.282" x2="1179.54" y2="169.431" gradientUnits="userSpaceOnUse">
<stop stop-color="#85A8FF"/>
<stop offset="1" stop-color="white" stop-opacity="0"/>
</linearGradient>
<linearGradient id="paint12_linear_128_585" x1="1153.24" y1="488.284" x2="1153.24" y2="165.188" gradientUnits="userSpaceOnUse">
<stop stop-color="#85A8FF"/>
<stop offset="1" stop-color="white" stop-opacity="0"/>
</linearGradient>
<linearGradient id="paint13_linear_128_585" x1="1126.99" y1="492.381" x2="1126.99" y2="160.993" gradientUnits="userSpaceOnUse">
<stop stop-color="#85A8FF"/>
<stop offset="1" stop-color="white" stop-opacity="0"/>
</linearGradient>
<linearGradient id="paint14_linear_128_585" x1="1103.07" y1="496.528" x2="1103.07" y2="156.702" gradientUnits="userSpaceOnUse">
<stop stop-color="#85A8FF"/>
<stop offset="1" stop-color="white" stop-opacity="0"/>
</linearGradient>
<linearGradient id="paint15_linear_128_585" x1="1076.95" y1="500.772" x2="1076.95" y2="152.508" gradientUnits="userSpaceOnUse">
<stop stop-color="#85A8FF"/>
<stop offset="1" stop-color="white" stop-opacity="0"/>
</linearGradient>
<linearGradient id="paint16_linear_128_585" x1="1052.93" y1="504.966" x2="1052.93" y2="148.312" gradientUnits="userSpaceOnUse">
<stop stop-color="#85A8FF"/>
<stop offset="1" stop-color="white" stop-opacity="0"/>
</linearGradient>
<linearGradient id="paint17_linear_128_585" x1="1030.71" y1="509.209" x2="1030.71" y2="144.021" gradientUnits="userSpaceOnUse">
<stop stop-color="#85A8FF"/>
<stop offset="1" stop-color="white" stop-opacity="0"/>
</linearGradient>
<linearGradient id="paint18_linear_128_585" x1="1006.03" y1="513.452" x2="1006.03" y2="139.778" gradientUnits="userSpaceOnUse">
<stop stop-color="#85A8FF"/>
<stop offset="1" stop-color="white" stop-opacity="0"/>
</linearGradient>
<linearGradient id="paint19_linear_128_585" x1="979.426" y1="517.695" x2="979.427" y2="135.583" gradientUnits="userSpaceOnUse">
<stop stop-color="#85A8FF"/>
<stop offset="1" stop-color="white" stop-opacity="0"/>
</linearGradient>
<linearGradient id="paint20_linear_128_585" x1="950.177" y1="521.939" x2="950.177" y2="131.341" gradientUnits="userSpaceOnUse">
<stop stop-color="#85A8FF"/>
<stop offset="1" stop-color="white" stop-opacity="0"/>
</linearGradient>
<linearGradient id="paint21_linear_128_585" x1="915.549" y1="526.181" x2="915.55" y2="127.145" gradientUnits="userSpaceOnUse">
<stop stop-color="#85A8FF"/>
<stop offset="1" stop-color="white" stop-opacity="0"/>
</linearGradient>
<linearGradient id="paint22_linear_128_585" x1="872.508" y1="530.425" x2="872.508" y2="122.903" gradientUnits="userSpaceOnUse">
<stop stop-color="#85A8FF"/>
<stop offset="1" stop-color="white" stop-opacity="0"/>
</linearGradient>
<linearGradient id="paint23_linear_128_585" x1="827.85" y1="534.716" x2="827.85" y2="118.612" gradientUnits="userSpaceOnUse">
<stop stop-color="#85A8FF"/>
<stop offset="1" stop-color="white" stop-opacity="0"/>
</linearGradient>
<linearGradient id="paint24_linear_128_585" x1="785.184" y1="538.958" x2="785.184" y2="114.416" gradientUnits="userSpaceOnUse">
<stop stop-color="#85A8FF"/>
<stop offset="1" stop-color="white" stop-opacity="0"/>
</linearGradient>
<linearGradient id="paint25_linear_128_585" x1="741.626" y1="543.25" x2="741.626" y2="110.125" gradientUnits="userSpaceOnUse">
<stop stop-color="#85A8FF"/>
<stop offset="1" stop-color="white" stop-opacity="0"/>
</linearGradient>
<linearGradient id="paint26_linear_128_585" x1="702.34" y1="547.493" x2="702.34" y2="105.882" gradientUnits="userSpaceOnUse">
<stop stop-color="#85A8FF"/>
<stop offset="1" stop-color="white" stop-opacity="0"/>
</linearGradient>
<linearGradient id="paint27_linear_128_585" x1="667.539" y1="551.784" x2="667.539" y2="101.688" gradientUnits="userSpaceOnUse">
<stop stop-color="#85A8FF"/>
<stop offset="1" stop-color="white" stop-opacity="0"/>
</linearGradient>
<linearGradient id="paint28_linear_128_585" x1="637.476" y1="556.027" x2="637.476" y2="97.4929" gradientUnits="userSpaceOnUse">
<stop stop-color="#85A8FF"/>
<stop offset="1" stop-color="white" stop-opacity="0"/>
</linearGradient>
<linearGradient id="paint29_linear_128_585" x1="609.899" y1="560.222" x2="609.899" y2="93.2013" gradientUnits="userSpaceOnUse">
<stop stop-color="#85A8FF"/>
<stop offset="1" stop-color="white" stop-opacity="0"/>
</linearGradient>
<linearGradient id="paint30_linear_128_585" x1="588.033" y1="564.465" x2="588.033" y2="89.0072" gradientUnits="userSpaceOnUse">
<stop stop-color="#85A8FF"/>
<stop offset="1" stop-color="white" stop-opacity="0"/>
</linearGradient>
<linearGradient id="paint31_linear_128_585" x1="569.762" y1="568.659" x2="569.762" y2="84.7632" gradientUnits="userSpaceOnUse">
<stop stop-color="#85A8FF"/>
<stop offset="1" stop-color="white" stop-opacity="0"/>
</linearGradient>
<linearGradient id="paint32_linear_128_585" x1="548.704" y1="572.854" x2="548.704" y2="80.4725" gradientUnits="userSpaceOnUse">
<stop stop-color="#85A8FF"/>
<stop offset="1" stop-color="white" stop-opacity="0"/>
</linearGradient>
<linearGradient id="paint33_linear_128_585" x1="531.576" y1="577.049" x2="531.576" y2="76.2295" gradientUnits="userSpaceOnUse">
<stop stop-color="#85A8FF"/>
<stop offset="1" stop-color="white" stop-opacity="0"/>
</linearGradient>
<linearGradient id="paint34_linear_128_585" x1="512.383" y1="581.292" x2="512.383" y2="72.0348" gradientUnits="userSpaceOnUse">
<stop stop-color="#85A8FF"/>
<stop offset="1" stop-color="white" stop-opacity="0"/>
</linearGradient>
<linearGradient id="paint35_linear_128_585" x1="491.445" y1="585.488" x2="491.445" y2="67.7923" gradientUnits="userSpaceOnUse">
<stop stop-color="#85A8FF"/>
<stop offset="1" stop-color="white" stop-opacity="0"/>
</linearGradient>
<linearGradient id="paint36_linear_128_585" x1="471.443" y1="589.682" x2="471.443" y2="63.5007" gradientUnits="userSpaceOnUse">
<stop stop-color="#85A8FF"/>
<stop offset="1" stop-color="white" stop-opacity="0"/>
</linearGradient>
<linearGradient id="paint37_linear_128_585" x1="446.966" y1="593.925" x2="446.966" y2="59.3538" gradientUnits="userSpaceOnUse">
<stop stop-color="#85A8FF"/>
<stop offset="1" stop-color="white" stop-opacity="0"/>
</linearGradient>
<linearGradient id="paint38_linear_128_585" x1="420.577" y1="598.167" x2="420.577" y2="55.1104" gradientUnits="userSpaceOnUse">
<stop stop-color="#85A8FF"/>
<stop offset="1" stop-color="white" stop-opacity="0"/>
</linearGradient>
<linearGradient id="paint39_linear_128_585" x1="390.35" y1="602.41" x2="390.35" y2="50.9153" gradientUnits="userSpaceOnUse">
<stop stop-color="#85A8FF"/>
<stop offset="1" stop-color="white" stop-opacity="0"/>
</linearGradient>
<linearGradient id="paint40_linear_128_585" x1="357.371" y1="606.654" x2="357.371" y2="46.6251" gradientUnits="userSpaceOnUse">
<stop stop-color="#85A8FF"/>
<stop offset="1" stop-color="white" stop-opacity="0"/>
</linearGradient>
<linearGradient id="paint41_linear_128_585" x1="321.815" y1="610.897" x2="321.815" y2="42.3818" gradientUnits="userSpaceOnUse">
<stop stop-color="#85A8FF"/>
<stop offset="1" stop-color="white" stop-opacity="0"/>
</linearGradient>
<linearGradient id="paint42_linear_128_585" x1="284.351" y1="615.092" x2="284.351" y2="38.1871" gradientUnits="userSpaceOnUse">
<stop stop-color="#85A8FF"/>
<stop offset="1" stop-color="white" stop-opacity="0"/>
</linearGradient>
<linearGradient id="paint43_linear_128_585" x1="247.255" y1="619.335" x2="247.255" y2="33.9442" gradientUnits="userSpaceOnUse">
<stop stop-color="#85A8FF"/>
<stop offset="1" stop-color="white" stop-opacity="0"/>
</linearGradient>
<linearGradient id="paint44_linear_128_585" x1="211.005" y1="623.578" x2="211.005" y2="29.6526" gradientUnits="userSpaceOnUse">
<stop stop-color="#85A8FF"/>
<stop offset="1" stop-color="white" stop-opacity="0"/>
</linearGradient>
<linearGradient id="paint45_linear_128_585" x1="174.41" y1="627.82" x2="174.41" y2="25.4575" gradientUnits="userSpaceOnUse">
<stop stop-color="#85A8FF"/>
<stop offset="1" stop-color="white" stop-opacity="0"/>
</linearGradient>
<linearGradient id="paint46_linear_128_585" x1="141.443" y1="632.063" x2="141.443" y2="21.2147" gradientUnits="userSpaceOnUse">
<stop stop-color="#85A8FF"/>
<stop offset="1" stop-color="white" stop-opacity="0"/>
</linearGradient>
<linearGradient id="paint47_linear_128_585" x1="108.374" y1="636.307" x2="108.374" y2="16.9724" gradientUnits="userSpaceOnUse">
<stop stop-color="#85A8FF"/>
<stop offset="1" stop-color="white" stop-opacity="0"/>
</linearGradient>
<linearGradient id="paint48_linear_128_585" x1="76.3969" y1="640.501" x2="76.3969" y2="12.7288" gradientUnits="userSpaceOnUse">
<stop stop-color="#85A8FF"/>
<stop offset="1" stop-color="white" stop-opacity="0"/>
</linearGradient>
<linearGradient id="paint49_linear_128_585" x1="44.1215" y1="644.744" x2="44.1216" y2="8.53369" gradientUnits="userSpaceOnUse">
<stop stop-color="#85A8FF"/>
<stop offset="1" stop-color="white" stop-opacity="0"/>
</linearGradient>
<linearGradient id="paint50_linear_128_585" x1="12.1016" y1="648.987" x2="12.1016" y2="4.24219" gradientUnits="userSpaceOnUse">
<stop stop-color="#85A8FF"/>
<stop offset="1" stop-color="white" stop-opacity="0"/>
</linearGradient>
</defs>
</svg>
