<svg width="1240" height="200" viewBox="0 0 1240 200" fill="none" xmlns="http://www.w3.org/2000/svg">
<g clip-path="url(#clip0_1369_821)">
<rect width="1240" height="200" fill="white"/>
<g opacity="0.3">
<path d="M1321.71 224.457C1306.29 208.98 1286.25 194.515 1263.12 179.568C1186.04 130.87 1287.79 85.0649 1321.71 36.3668C1332.5 20.9376 1334.04 6.47281 1333.42 -8.52237C1333.42 -13.6815 1333.42 -18.7924 1333.42 -23.9515" stroke="url(#paint0_linear_1369_821)" stroke-miterlimit="10"/>
<path d="M1287.95 228.941C1241.39 191.188 1145.81 154.544 1196.69 111.632C1244.48 71.1303 1312.31 32.0753 1301.52 -12.1388C1301.52 -17.4425 1301.52 -22.7945 1301.52 -28.0982" stroke="url(#paint1_linear_1369_821)" stroke-miterlimit="10"/>
<path d="M1255.11 233.233C1225.97 209.028 1173.56 189.26 1147.35 164.669C1098.02 118.382 1210.56 78.3628 1252.18 35.4506C1267.59 18.0928 1270.68 0.252871 1269.75 -17.6835C1269.75 -22.5533 1269.75 -27.4713 1269.75 -32.3411" stroke="url(#paint2_linear_1369_821)" stroke-miterlimit="10"/>
<path d="M1223.35 237.427C1196.68 213.849 1142.73 195.045 1110.35 171.901C1087.23 156.472 1084.15 139.115 1098.02 122.721C1138.1 77.8802 1239.85 41.236 1237.69 -6.25677C1238 -11.3677 1238 -16.4303 1238 -21.493C1238 -26.5075 1238 -31.5702 1238 -36.5847" stroke="url(#paint3_linear_1369_821)" stroke-miterlimit="10"/>
<path d="M1192.52 241.429C1164.31 217.225 1110.36 197.456 1073.36 174.313C1033.28 149.24 1053.32 121.275 1088.77 97.167C1139.65 62.9336 1210.56 29.6646 1206.09 -9.58326C1206.4 -14.8388 1206.4 -20.0461 1206.4 -25.2535C1206.4 -30.4608 1206.4 -35.6199 1206.4 -40.8272" stroke="url(#paint4_linear_1369_821)" stroke-miterlimit="10"/>
<path d="M1162.46 245.383C1139.64 225.421 1102.64 209.028 1065.64 190.706C1016.31 166.598 1002.44 139.114 1034.81 112.596C1084.14 70.6477 1179.72 33.5213 1174.48 -12.9107C1174.63 -18.3109 1174.63 -23.6629 1174.63 -29.0149C1174.63 -34.3668 1174.63 -39.7188 1174.63 -45.0708" stroke="url(#paint5_linear_1369_821)" stroke-miterlimit="10"/>
<path d="M1133.01 249.24C1108.8 226.386 1064.1 207.581 1025.56 186.366C974.684 159.365 979.308 128.025 1017.85 100.542C1071.81 61.4869 1155.05 24.3605 1142.87 -19.5643C1142.87 -24.5305 1142.87 -29.4968 1142.87 -34.4148C1142.87 -39.3329 1142.87 -44.3473 1142.87 -49.2653" stroke="url(#paint6_linear_1369_821)" stroke-miterlimit="10"/>
<path d="M1103.88 253.098C1094.93 244.178 1085.69 235.499 1071.81 227.302C1028.65 202.712 973.147 180.532 963.897 152.567C948.481 110.137 1031.73 74.9393 1081.06 37.3308C1107.27 18.0444 1111.89 -2.20632 1111.12 -22.9874C1111.12 -28.0983 1111.12 -33.161 1111.12 -38.2719C1111.12 -43.3828 1111.12 -48.4455 1111.12 -53.5564" stroke="url(#paint7_linear_1369_821)" stroke-miterlimit="10"/>
<path d="M1074.58 257.051C1068.72 246.154 1054.85 235.547 1036.35 225.421C973.14 190.224 908.392 152.133 951.558 110.667C994.723 69.6836 1081.05 33.5216 1079.36 -10.5961C1079.51 -15.8516 1079.51 -21.1072 1079.51 -26.3628C1079.51 -36.8257 1079.51 -47.3367 1079.51 -57.7996" stroke="url(#paint8_linear_1369_821)" stroke-miterlimit="10"/>
<path d="M1044.99 261.053C1039.6 250.976 1031.89 241.333 1019.56 232.172C977.933 203.724 917.81 176.724 916.268 144.419C916.268 106.328 977.933 73.059 1021.1 37.8613C1041.14 21.4679 1050.39 4.11012 1047.77 -13.5852C1047.77 -18.9854 1047.77 -24.3373 1047.77 -29.7375C1047.77 -40.4897 1047.77 -51.2419 1047.77 -62.0423" stroke="url(#paint9_linear_1369_821)" stroke-miterlimit="10"/>
<path d="M1014.78 265.151C1011.7 258.69 1011.7 252.422 1005.53 246.154C966.992 207.581 883.744 174.312 897.619 132.364C908.41 92.827 976.241 60.5223 1007.07 21.9495C1013.24 12.3063 1016.32 3.62737 1015.86 -5.96761C1015.86 -10.9821 1015.86 -15.9965 1015.86 -21.0592C1015.86 -36.1026 1015.86 -51.1942 1015.86 -66.2376" stroke="url(#paint10_linear_1369_821)" stroke-miterlimit="10"/>
<path d="M983.947 269.298C982.559 257.196 977.934 244.659 962.518 233.088C957.122 228.893 951.727 224.698 946.331 220.455C940.936 216.212 935.694 211.969 930.453 207.678C920.895 198.854 910.103 190.658 902.395 181.786C898.387 177.446 894.687 173.059 891.604 168.671C875.879 146.684 872.334 124.119 894.687 100.976C930.144 64.3316 993.35 30.0982 984.409 -8.76395C984.409 -13.9231 984.409 -19.0822 984.409 -24.1931C984.409 -39.6222 984.409 -55.0996 984.409 -70.5287" stroke="url(#paint11_linear_1369_821)" stroke-miterlimit="10"/>
<path d="M952.494 273.542C952.956 269.588 952.648 265.682 951.877 261.777C950.952 257.92 949.565 254.062 947.406 250.253C945.402 241.767 936.153 233.571 928.444 225.374C906.862 203.677 874.488 183.426 863.851 161.295C862.155 157.582 860.922 153.869 860.151 150.157C856.297 131.594 864.159 112.886 880.654 94.2262C906.862 63.8501 950.027 35.8848 952.339 4.44793C952.339 -0.855837 952.339 -6.15961 952.339 -11.4152C952.339 -32.5338 952.339 -53.6042 952.339 -74.7228" stroke="url(#paint12_linear_1369_821)" stroke-miterlimit="10"/>
<path d="M920.724 277.736C920.724 264.428 923.807 250.928 909.932 237.427C880.642 207.533 852.893 178.121 844.26 146.636C843.181 141.911 842.718 137.186 842.872 132.461C843.18 118.237 849.347 103.917 863.684 89.452C886.808 65.8262 909.932 42.6825 919.182 18.6227C920.57 12.9814 920.57 7.53304 920.57 2.13284C920.57 -24.8681 920.57 -51.9173 920.57 -78.9183" stroke="url(#paint13_linear_1369_821)" stroke-miterlimit="10"/>
<path d="M888.676 281.979C888.368 270.696 891.451 259.124 883.743 248.035C852.911 209.462 829.787 171.853 829.787 132.606C829.787 128.025 830.095 123.445 830.712 118.864C831.328 114.283 832.407 109.703 833.949 105.122C835.491 100.542 837.341 95.9614 839.653 91.3326C848.286 73.5409 866.785 56.6653 881.739 39.8862C884.052 36.4628 885.902 32.9913 887.135 29.4715C889.756 22.4319 890.218 15.2478 888.985 8.11179C888.985 3.04911 888.985 -2.01356 888.985 -7.12446C888.985 -32.4861 888.985 -57.8477 888.985 -83.2093" stroke="url(#paint14_linear_1369_821)" stroke-miterlimit="10"/>
<path d="M855.831 286.222C854.444 272.191 859.069 258.208 848.277 244.225C818.987 208.063 811.279 172.866 810.816 136.463C810.816 132.22 810.97 127.977 811.433 123.734C811.895 119.491 812.512 115.248 813.283 111.005C814.208 106.279 815.441 101.602 817.137 96.8773C817.445 91.3324 820.528 86.0287 825.153 80.2427C848.277 46.9737 865.235 15.6333 857.219 -17.3947C857.219 -21.3002 857.219 -25.1575 857.219 -29.063C857.219 -48.5423 857.219 -67.9733 857.219 -87.4526" stroke="url(#paint15_linear_1369_821)" stroke-miterlimit="10"/>
<path d="M821.919 290.465C817.448 273.638 820.532 257.244 808.199 240.369C777.366 200.349 791.241 161.294 792.166 121.757C792.782 117.08 793.553 112.403 794.632 107.726C800.491 83.1843 817.448 58.5941 825.156 34.0039C832.864 7.96726 825.156 -18.0694 825.465 -43.865C825.465 -47.8669 825.465 -51.8206 825.465 -55.8225C825.465 -67.7801 825.465 -79.6895 825.465 -91.6471" stroke="url(#paint16_linear_1369_821)" stroke-miterlimit="10"/>
<path d="M786.611 294.708C761.946 237.476 754.238 180.099 767.033 122.143C769.5 117.273 771.966 112.452 774.124 107.582C798.174 54.1587 801.411 0.638886 793.703 -53.1702C793.703 -57.9436 793.703 -62.6688 793.703 -67.3939C793.703 -76.8925 793.703 -86.3911 793.703 -95.8896" stroke="url(#paint17_linear_1369_821)" stroke-miterlimit="10"/>
<path d="M750.068 298.951C698.732 243.743 721.856 186.366 743.439 129.809C745.751 125.228 747.755 120.648 749.759 116.115C773.192 56.6169 774.888 -3.36386 762.092 -63.2482C762.092 -67.3465 762.092 -71.4449 762.092 -75.5432C762.092 -83.7399 762.092 -91.9367 762.092 -100.085" stroke="url(#paint18_linear_1369_821)" stroke-miterlimit="10"/>
<path d="M712.767 303.194C687.947 274.602 643.241 247.601 660.198 216.743C680.239 181.545 726.488 149.723 724.946 114.477C725.717 110.475 726.642 106.473 727.721 102.423C732.963 82.365 741.133 62.3553 744.987 42.201C752.695 1.21739 729.571 -38.8019 730.342 -79.2552C730.342 -83.45 730.342 -87.5965 730.342 -91.7913C730.342 -95.9861 730.342 -100.133 730.342 -104.328" stroke="url(#paint19_linear_1369_821)" stroke-miterlimit="10"/>
<path d="M674.993 307.486C637.069 277.495 566.155 247.119 601.612 213.368C638.611 179.135 697.192 147.312 700.275 110.668C703.05 105.991 705.517 101.314 707.675 96.6852C735.732 36.3188 716 -20.6726 698.58 -79.7854C698.58 -84.607 698.58 -89.3804 698.58 -94.202C698.58 -99.0236 698.58 -103.797 698.58 -108.619" stroke="url(#paint20_linear_1369_821)" stroke-miterlimit="10"/>
<path d="M637.231 311.728C575.412 277.494 465.958 239.886 558.454 198.42C618.577 170.937 663.284 143.936 670.838 111.631C672.688 107.195 674.692 102.711 676.696 98.2755C691.496 67.2244 712.77 36.7037 703.212 5.07395C693.963 -25.7843 669.297 -55.1961 666.83 -85.5722C666.676 -90.1527 666.676 -94.685 666.676 -99.2173C666.676 -103.75 666.676 -108.282 666.676 -112.814" stroke="url(#paint21_linear_1369_821)" stroke-miterlimit="10"/>
<path d="M600.078 316.019C569.245 298.71 529.163 285.209 492.165 268.334C447.458 248.565 438.208 224.939 484.457 204.689C555.371 173.348 632.452 145.383 646.326 107.196C648.639 102.953 650.951 98.7099 653.572 94.4669C661.126 81.7378 669.913 68.8641 678.546 55.6529C706.295 9.84772 661.588 -31.1359 638.464 -75.4946C633.839 -84.1735 635.381 -92.8525 634.918 -101.628C634.918 -106.787 634.918 -111.946 634.918 -117.105" stroke="url(#paint22_linear_1369_821)" stroke-miterlimit="10"/>
<path d="M564.61 320.262C527.611 302.085 479.821 287.138 435.114 269.78C321.035 227.832 464.405 189.742 544.569 156.472C584.651 140.561 612.4 122.721 623.654 103.146C627.046 98.565 630.591 93.9845 634.137 89.404C644.62 75.6624 655.72 61.7762 663.119 47.4561C689.327 2.13302 633.829 -37.8863 609.163 -81.7629C602.996 -90.4417 601.455 -99.1206 603.151 -107.848C603.151 -112.332 603.151 -116.864 603.151 -121.348" stroke="url(#paint23_linear_1369_821)" stroke-miterlimit="10"/>
<path d="M531.17 324.554C526.083 321.371 516.833 318.961 510.666 315.585C453.627 292.442 375.004 276.048 347.255 248.565C302.548 206.135 450.543 181.063 522.999 148.276C556.915 133.329 584.664 118.864 598.693 102.085C602.855 97.7936 607.017 93.5506 611.026 89.3076C635.846 63.8978 660.666 38.9219 652.495 11.8245C641.704 -23.8554 595.455 -54.7136 575.414 -90.3935C572.331 -97.1437 570.79 -103.412 571.714 -109.439C571.56 -114.839 571.56 -120.191 571.56 -125.543" stroke="url(#paint24_linear_1369_821)" stroke-miterlimit="10"/>
<path d="M500.184 328.797C490.626 324.265 481.376 319.925 469.043 316.068C361.13 284.245 213.135 237.958 350.339 192.635C435.128 164.187 533.791 138.633 574.335 101.603C578.96 97.5047 583.739 93.4546 588.364 89.3562C597.768 81.2077 607.634 73.0592 616.884 64.8625C677.007 12.7892 593.76 -35.909 550.595 -86.5359C542.887 -95.6969 539.803 -104.376 539.957 -113.344C539.803 -118.841 539.803 -124.289 539.803 -129.737" stroke="url(#paint25_linear_1369_821)" stroke-miterlimit="10"/>
<path d="M471.201 332.991C462.876 329.038 453.626 325.662 444.376 321.805C351.88 289.018 180.76 250.928 291.757 202.229C378.087 163.174 502.958 138.584 558.148 96.2024C563.852 92.0077 569.556 87.8129 575.26 83.6181C586.513 75.2285 597.459 66.7425 606.246 58.0636C629.37 36.8486 624.745 15.1513 609.329 -6.54587C580.039 -45.6009 510.666 -78.8699 508.508 -118.407C508.199 -123.663 508.199 -128.87 508.199 -134.029" stroke="url(#paint26_linear_1369_821)" stroke-miterlimit="10"/>
<path d="M444.212 337.235C398.118 315.586 336.453 298.71 282.496 277.977C122.168 217.707 359.577 166.598 478.282 124.168C498.323 116.454 515.28 108.257 528.692 99.7227C535.167 95.769 541.642 91.767 547.809 87.8133C560.296 79.9059 572.629 71.9502 583.111 63.8982C618.569 36.8972 607.777 7.48543 578.487 -19.5155C541.488 -53.7489 478.282 -85.5715 476.894 -122.312C476.432 -127.664 476.432 -132.968 476.432 -138.223" stroke="url(#paint27_linear_1369_821)" stroke-miterlimit="10"/>
<path d="M418.318 341.429C384.248 323.782 339.541 308.835 291.751 293.888C191.546 262.547 176.13 216.26 274.793 182.027C356.499 153.579 442.829 129.471 507.423 97.745C513.744 94.5628 519.756 91.3805 525.768 88.1983C561.225 69.1047 590.516 49.6737 589.283 27.2532C584.658 -15.6591 502.952 -51.8211 461.329 -92.3225C450.537 -103.412 445.913 -114.502 444.988 -126.267C444.679 -131.715 444.525 -137.115 444.525 -142.467" stroke="url(#paint28_linear_1369_821)" stroke-miterlimit="10"/>
<path d="M393.037 345.624C378.083 337.234 361.126 329.52 342.626 321.805C267.087 292.876 160.716 264.428 190.006 223.445C220.839 179.568 330.293 152.085 424.332 121.227C452.081 112.066 475.205 101.94 495.092 91.2846C502.646 87.4755 510.2 83.6665 517.6 79.8092C524.845 75.9519 531.937 72.0946 538.566 68.1891C635.688 10.8121 484.609 -42.7077 429.111 -95.7453C418.32 -107.317 413.695 -118.889 413.541 -130.268C413.232 -135.813 413.078 -141.261 413.078 -146.758" stroke="url(#paint29_linear_1369_821)" stroke-miterlimit="10"/>
<path d="M367.759 349.819C359.589 343.502 348.797 337.716 336.464 331.931C262.467 298.179 148.387 269.732 171.511 226.337C197.719 177.157 324.131 145.335 427.42 109.655C436.669 106.28 444.377 102.904 452.548 99.24C460.256 95.8167 467.81 92.4416 475.21 89.0182C526.7 65.1513 571.561 40.5612 544.583 9.84755C516.833 -23.4215 459.794 -50.4225 416.628 -81.2807C393.504 -98.6385 381.171 -116.478 381.48 -135.331C381.171 -140.586 381.171 -145.794 381.171 -151.001" stroke="url(#paint30_linear_1369_821)" stroke-miterlimit="10"/>
<path d="M341.705 354.062C310.256 326.193 240.883 305.943 193.093 279.906C65.139 211.439 270.174 150.687 412.002 104.4C421.252 101.024 428.96 97.6493 437.285 94.0814C445.301 90.658 453.164 87.1865 460.872 83.6667C514.057 59.1248 552.135 32.8953 515.445 2.18165C458.405 -45.0701 341.242 -86.5359 349.875 -139.236C349.721 -144.588 349.567 -149.892 349.567 -155.196" stroke="url(#paint31_linear_1369_821)" stroke-miterlimit="10"/>
<path d="M314.254 358.257C291.746 331.497 236.248 310.764 185.375 286.656C65.1286 228.797 191.541 169.974 313.329 126.097C345.703 114.525 382.701 105.846 408.138 93.5511C417.388 89.6456 426.329 85.7401 434.962 81.7864C494.931 54.014 533.472 24.0719 475.198 -10.3544C410.451 -47.9629 327.203 -83.1606 319.495 -126.748C318.262 -132.341 317.954 -137.789 317.645 -143.238C317.645 -148.638 317.645 -154.038 317.645 -159.438" stroke="url(#paint32_linear_1369_821)" stroke-miterlimit="10"/>
<path d="M284.824 362.451C281.124 346.878 256.458 333.859 231.792 320.359C179.377 292.394 117.713 264.428 125.421 231.641C137.754 180.05 250.292 138.584 350.343 100.012C358.051 97.1669 365.759 94.3704 373.775 91.5256C429.119 71.6606 488.626 51.1206 473.826 22.866C452.243 -16.6711 370.538 -46.0829 322.748 -81.2806C301.165 -97.1919 288.832 -113.585 287.291 -130.654C286.52 -136.247 286.366 -141.792 286.057 -147.288C286.057 -152.785 286.057 -158.233 286.057 -163.73" stroke="url(#paint33_linear_1369_821)" stroke-miterlimit="10"/>
<path d="M254.137 366.694C250.129 334.39 182.298 308.835 142.216 279.905C52.8021 216.742 188.464 152.615 305.165 103.435C314.568 100.397 323.664 97.2632 332.605 94.0809C412.769 65.3924 478.288 30.6769 410.303 -7.94417C339.388 -48.9278 249.975 -88.4649 254.445 -136.392C254.291 -141.647 254.137 -146.903 253.983 -152.158C253.983 -157.414 253.983 -162.621 253.983 -167.877" stroke="url(#paint34_linear_1369_821)" stroke-miterlimit="10"/>
<path d="M222.531 370.937C228.543 334.872 153.004 305.46 117.546 272.191C52.7985 209.992 177.669 151.651 270.166 100.059C277.566 96.9737 285.274 93.9843 293.291 90.9949C349.097 70.2138 414.153 51.0238 396.579 21.9495C374.996 -17.5876 293.291 -46.9994 251.667 -83.6436C230.084 -101.966 220.835 -120.77 222.531 -140.201C222.531 -145.505 222.531 -150.857 222.531 -156.16C222.531 -161.464 222.531 -166.816 222.531 -172.12" stroke="url(#paint35_linear_1369_821)" stroke-miterlimit="10"/>
<path d="M190.782 375.18C190.782 370.165 190.782 365.151 190.319 360.136C188.469 351.747 186.927 344.032 177.678 336.318C116.013 286.173 42.0156 232.653 122.18 179.616C146.845 162.258 165.345 144.418 188.469 126.578C199.26 117.417 214.677 108.738 232.251 99.9146C239.342 96.2984 246.896 92.6822 254.759 89.1142C278.191 78.4103 303.936 67.851 324.131 56.6649C408.92 10.8596 274.8 -32.0526 225.468 -74.0006C197.719 -96.6621 190.011 -120.288 190.782 -143.914C190.782 -149.314 190.782 -154.714 190.782 -160.114C190.782 -165.515 190.782 -170.915 190.782 -176.315" stroke="url(#paint36_linear_1369_821)" stroke-miterlimit="10"/>
<path d="M159.023 379.424C159.023 374.602 159.023 369.829 159.023 365.007C159.177 352.23 154.553 339.211 142.22 326.675C99.0544 284.245 45.0979 241.333 88.2631 196.492C114.471 169.491 145.303 144.901 165.344 116.453C168.427 112.596 173.052 108.739 179.218 104.882C186.31 100.542 194.326 96.2027 202.497 91.9114C260.307 61.7282 335.076 31.6414 282.507 -5.05098C223.925 -45.5524 154.553 -85.5718 159.332 -131.136C159.023 -136.681 159.023 -142.177 159.023 -147.674C159.023 -158.667 159.023 -169.612 159.023 -180.606" stroke="url(#paint37_linear_1369_821)" stroke-miterlimit="10"/>
<path d="M127.267 383.666C127.267 378.748 127.267 373.782 127.267 368.864C127.267 363.946 127.267 358.98 126.958 354.062C125.263 324.264 89.8053 297.745 68.2227 267.852C38.932 227.832 74.3892 190.706 109.846 153.097C123.721 138.633 122.179 123.686 134.512 109.51C137.441 106.087 140.987 102.712 144.995 99.3847C165.344 82.7502 198.798 67.3693 223.926 51.3616C254.758 31.593 247.05 9.41364 223.926 -10.8371C180.761 -46.9991 128.346 -82.6789 128.037 -121.541C127.575 -126.845 127.421 -132.149 127.267 -137.452C127.267 -153.267 127.267 -169.034 127.267 -184.849" stroke="url(#paint38_linear_1369_821)" stroke-miterlimit="10"/>
<path d="M95.5117 387.861C95.5117 383.136 95.5117 378.363 95.5117 373.637C95.5117 368.912 95.5117 364.139 95.5117 359.414C95.9742 351.747 94.4325 343.551 92.8909 335.836C79.0164 296.781 31.2263 259.655 43.5592 219.635C54.3505 183.956 95.9742 151.169 96.5908 115.585C97.3616 111.969 98.7491 108.401 100.753 104.881C110.928 87.3306 136.364 71.2747 160.722 55.2188C191.554 33.5216 191.554 9.41356 169.972 -13.248C132.973 -50.3743 91.3494 -86.5363 95.8201 -124.916C95.6659 -130.268 95.6659 -135.62 95.5117 -140.972C95.5117 -156.98 95.5117 -173.036 95.5117 -189.044" stroke="url(#paint39_linear_1369_821)" stroke-miterlimit="10"/>
<path d="M63.9084 392.105C63.9084 382.461 63.9085 372.818 63.9085 363.175C63.9085 358.353 63.9085 353.532 63.9085 348.71C65.2959 343.021 63.7543 337.717 62.2127 331.931C49.8798 294.805 17.5058 258.643 25.2139 221.034C32.922 185.354 66.8376 151.121 64.2168 115.682C64.5251 112.596 64.8335 109.607 65.296 106.617C66.8376 97.6493 70.3833 88.9704 80.7121 80.2915C114.628 49.4333 145.46 18.0929 117.711 -14.694C85.337 -52.7847 60.6711 -89.911 63.9085 -128.243C63.9085 -133.643 63.9085 -139.091 63.9085 -144.492C63.9085 -160.74 63.9085 -177.037 63.9085 -193.286" stroke="url(#paint40_linear_1369_821)" stroke-miterlimit="10"/>
<path d="M32.15 396.347C32.15 385.981 32.15 375.566 32.15 365.2C32.15 359.992 32.15 354.833 32.15 349.626C31.3792 337.765 31.3792 326.193 28.296 314.139C14.4214 277.977 -2.53633 243.262 8.25498 207.099C15.9631 181.545 32.9208 156.955 31.9958 131.497C32.15 126.289 32.15 121.13 32.15 115.923C32.3042 110.426 32.4583 104.978 33.2291 99.5778C36.004 79.327 52.9618 60.5228 66.8364 39.7899C74.5445 25.3251 77.6277 11.8246 73.0028 -2.64019C60.6699 -34.9449 37.5457 -66.2853 33.3833 -98.3972C32.7667 -103.99 32.4584 -109.535 32.15 -115.08C32.15 -142.563 32.1501 -170.094 32.1501 -197.578" stroke="url(#paint41_linear_1369_821)" stroke-miterlimit="10"/>
<path d="M0.380855 400.59C0.380857 384.727 0.380858 368.864 0.380859 353.049C0.38086 347.745 0.38086 342.49 0.380861 337.186C0.535023 324.264 0.535082 311.728 -5.63138 298.709C-30.2972 241.815 -5.63137 186.848 0.535097 131.111C0.535097 125.807 0.535098 120.551 0.535098 115.247C0.535099 109.944 0.535061 104.688 0.689223 99.4326C0.689224 92.3449 0.689225 85.1125 5.31407 77.3979C37.688 22.9138 19.1886 -27.713 3.77247 -81.2328C0.68924 -89.9117 -0.852412 -98.1084 0.843365 -106.643C0.689204 -111.946 0.689242 -117.202 0.689243 -122.506C0.689245 -148.928 0.689247 -175.351 0.68925 -201.773" stroke="url(#paint42_linear_1369_821)" stroke-miterlimit="10"/>
</g>
</g>
<defs>
<linearGradient id="paint0_linear_1369_821" x1="1284.23" y1="224.457" x2="1284.23" y2="-23.9515" gradientUnits="userSpaceOnUse">
<stop stop-color="#85A8FF"/>
<stop offset="1" stop-color="white" stop-opacity="0"/>
</linearGradient>
<linearGradient id="paint1_linear_1369_821" x1="1242.42" y1="228.941" x2="1242.42" y2="-28.0982" gradientUnits="userSpaceOnUse">
<stop stop-color="#85A8FF"/>
<stop offset="1" stop-color="white" stop-opacity="0"/>
</linearGradient>
<linearGradient id="paint2_linear_1369_821" x1="1202.49" y1="233.233" x2="1202.49" y2="-32.3411" gradientUnits="userSpaceOnUse">
<stop stop-color="#85A8FF"/>
<stop offset="1" stop-color="white" stop-opacity="0"/>
</linearGradient>
<linearGradient id="paint3_linear_1369_821" x1="1163.85" y1="237.427" x2="1163.85" y2="-36.5847" gradientUnits="userSpaceOnUse">
<stop stop-color="#85A8FF"/>
<stop offset="1" stop-color="white" stop-opacity="0"/>
</linearGradient>
<linearGradient id="paint4_linear_1369_821" x1="1128.82" y1="241.429" x2="1128.82" y2="-40.8272" gradientUnits="userSpaceOnUse">
<stop stop-color="#85A8FF"/>
<stop offset="1" stop-color="white" stop-opacity="0"/>
</linearGradient>
<linearGradient id="paint5_linear_1369_821" x1="1096" y1="245.383" x2="1096" y2="-45.0708" gradientUnits="userSpaceOnUse">
<stop stop-color="#85A8FF"/>
<stop offset="1" stop-color="white" stop-opacity="0"/>
</linearGradient>
<linearGradient id="paint6_linear_1369_821" x1="1066.12" y1="249.24" x2="1066.12" y2="-49.2653" gradientUnits="userSpaceOnUse">
<stop stop-color="#85A8FF"/>
<stop offset="1" stop-color="white" stop-opacity="0"/>
</linearGradient>
<linearGradient id="paint7_linear_1369_821" x1="1036.61" y1="253.098" x2="1036.61" y2="-53.5564" gradientUnits="userSpaceOnUse">
<stop stop-color="#85A8FF"/>
<stop offset="1" stop-color="white" stop-opacity="0"/>
</linearGradient>
<linearGradient id="paint8_linear_1369_821" x1="1008.54" y1="257.051" x2="1008.54" y2="-57.7996" gradientUnits="userSpaceOnUse">
<stop stop-color="#85A8FF"/>
<stop offset="1" stop-color="white" stop-opacity="0"/>
</linearGradient>
<linearGradient id="paint9_linear_1369_821" x1="982.236" y1="261.053" x2="982.236" y2="-62.0423" gradientUnits="userSpaceOnUse">
<stop stop-color="#85A8FF"/>
<stop offset="1" stop-color="white" stop-opacity="0"/>
</linearGradient>
<linearGradient id="paint10_linear_1369_821" x1="955.991" y1="265.151" x2="955.991" y2="-66.2376" gradientUnits="userSpaceOnUse">
<stop stop-color="#85A8FF"/>
<stop offset="1" stop-color="white" stop-opacity="0"/>
</linearGradient>
<linearGradient id="paint11_linear_1369_821" x1="932.066" y1="269.298" x2="932.066" y2="-70.5287" gradientUnits="userSpaceOnUse">
<stop stop-color="#85A8FF"/>
<stop offset="1" stop-color="white" stop-opacity="0"/>
</linearGradient>
<linearGradient id="paint12_linear_1369_821" x1="905.948" y1="273.542" x2="905.948" y2="-74.7228" gradientUnits="userSpaceOnUse">
<stop stop-color="#85A8FF"/>
<stop offset="1" stop-color="white" stop-opacity="0"/>
</linearGradient>
<linearGradient id="paint13_linear_1369_821" x1="881.929" y1="277.736" x2="881.929" y2="-78.9183" gradientUnits="userSpaceOnUse">
<stop stop-color="#85A8FF"/>
<stop offset="1" stop-color="white" stop-opacity="0"/>
</linearGradient>
<linearGradient id="paint14_linear_1369_821" x1="859.712" y1="281.979" x2="859.712" y2="-83.2093" gradientUnits="userSpaceOnUse">
<stop stop-color="#85A8FF"/>
<stop offset="1" stop-color="white" stop-opacity="0"/>
</linearGradient>
<linearGradient id="paint15_linear_1369_821" x1="835.025" y1="286.222" x2="835.025" y2="-87.4526" gradientUnits="userSpaceOnUse">
<stop stop-color="#85A8FF"/>
<stop offset="1" stop-color="white" stop-opacity="0"/>
</linearGradient>
<linearGradient id="paint16_linear_1369_821" x1="808.426" y1="290.465" x2="808.427" y2="-91.6471" gradientUnits="userSpaceOnUse">
<stop stop-color="#85A8FF"/>
<stop offset="1" stop-color="white" stop-opacity="0"/>
</linearGradient>
<linearGradient id="paint17_linear_1369_821" x1="779.177" y1="294.708" x2="779.177" y2="-95.8896" gradientUnits="userSpaceOnUse">
<stop stop-color="#85A8FF"/>
<stop offset="1" stop-color="white" stop-opacity="0"/>
</linearGradient>
<linearGradient id="paint18_linear_1369_821" x1="744.549" y1="298.951" x2="744.55" y2="-100.085" gradientUnits="userSpaceOnUse">
<stop stop-color="#85A8FF"/>
<stop offset="1" stop-color="white" stop-opacity="0"/>
</linearGradient>
<linearGradient id="paint19_linear_1369_821" x1="701.508" y1="303.194" x2="701.508" y2="-104.328" gradientUnits="userSpaceOnUse">
<stop stop-color="#85A8FF"/>
<stop offset="1" stop-color="white" stop-opacity="0"/>
</linearGradient>
<linearGradient id="paint20_linear_1369_821" x1="656.85" y1="307.486" x2="656.85" y2="-108.619" gradientUnits="userSpaceOnUse">
<stop stop-color="#85A8FF"/>
<stop offset="1" stop-color="white" stop-opacity="0"/>
</linearGradient>
<linearGradient id="paint21_linear_1369_821" x1="614.184" y1="311.728" x2="614.184" y2="-112.814" gradientUnits="userSpaceOnUse">
<stop stop-color="#85A8FF"/>
<stop offset="1" stop-color="white" stop-opacity="0"/>
</linearGradient>
<linearGradient id="paint22_linear_1369_821" x1="570.626" y1="316.019" x2="570.626" y2="-117.105" gradientUnits="userSpaceOnUse">
<stop stop-color="#85A8FF"/>
<stop offset="1" stop-color="white" stop-opacity="0"/>
</linearGradient>
<linearGradient id="paint23_linear_1369_821" x1="531.34" y1="320.262" x2="531.34" y2="-121.348" gradientUnits="userSpaceOnUse">
<stop stop-color="#85A8FF"/>
<stop offset="1" stop-color="white" stop-opacity="0"/>
</linearGradient>
<linearGradient id="paint24_linear_1369_821" x1="496.539" y1="324.554" x2="496.539" y2="-125.543" gradientUnits="userSpaceOnUse">
<stop stop-color="#85A8FF"/>
<stop offset="1" stop-color="white" stop-opacity="0"/>
</linearGradient>
<linearGradient id="paint25_linear_1369_821" x1="466.476" y1="328.797" x2="466.476" y2="-129.737" gradientUnits="userSpaceOnUse">
<stop stop-color="#85A8FF"/>
<stop offset="1" stop-color="white" stop-opacity="0"/>
</linearGradient>
<linearGradient id="paint26_linear_1369_821" x1="438.899" y1="332.991" x2="438.899" y2="-134.029" gradientUnits="userSpaceOnUse">
<stop stop-color="#85A8FF"/>
<stop offset="1" stop-color="white" stop-opacity="0"/>
</linearGradient>
<linearGradient id="paint27_linear_1369_821" x1="417.033" y1="337.235" x2="417.033" y2="-138.223" gradientUnits="userSpaceOnUse">
<stop stop-color="#85A8FF"/>
<stop offset="1" stop-color="white" stop-opacity="0"/>
</linearGradient>
<linearGradient id="paint28_linear_1369_821" x1="398.762" y1="341.429" x2="398.762" y2="-142.467" gradientUnits="userSpaceOnUse">
<stop stop-color="#85A8FF"/>
<stop offset="1" stop-color="white" stop-opacity="0"/>
</linearGradient>
<linearGradient id="paint29_linear_1369_821" x1="377.704" y1="345.624" x2="377.704" y2="-146.758" gradientUnits="userSpaceOnUse">
<stop stop-color="#85A8FF"/>
<stop offset="1" stop-color="white" stop-opacity="0"/>
</linearGradient>
<linearGradient id="paint30_linear_1369_821" x1="360.576" y1="349.819" x2="360.576" y2="-151.001" gradientUnits="userSpaceOnUse">
<stop stop-color="#85A8FF"/>
<stop offset="1" stop-color="white" stop-opacity="0"/>
</linearGradient>
<linearGradient id="paint31_linear_1369_821" x1="341.383" y1="354.062" x2="341.383" y2="-155.196" gradientUnits="userSpaceOnUse">
<stop stop-color="#85A8FF"/>
<stop offset="1" stop-color="white" stop-opacity="0"/>
</linearGradient>
<linearGradient id="paint32_linear_1369_821" x1="320.445" y1="358.257" x2="320.445" y2="-159.438" gradientUnits="userSpaceOnUse">
<stop stop-color="#85A8FF"/>
<stop offset="1" stop-color="white" stop-opacity="0"/>
</linearGradient>
<linearGradient id="paint33_linear_1369_821" x1="300.443" y1="362.451" x2="300.443" y2="-163.73" gradientUnits="userSpaceOnUse">
<stop stop-color="#85A8FF"/>
<stop offset="1" stop-color="white" stop-opacity="0"/>
</linearGradient>
<linearGradient id="paint34_linear_1369_821" x1="275.966" y1="366.694" x2="275.966" y2="-167.877" gradientUnits="userSpaceOnUse">
<stop stop-color="#85A8FF"/>
<stop offset="1" stop-color="white" stop-opacity="0"/>
</linearGradient>
<linearGradient id="paint35_linear_1369_821" x1="249.577" y1="370.937" x2="249.577" y2="-172.12" gradientUnits="userSpaceOnUse">
<stop stop-color="#85A8FF"/>
<stop offset="1" stop-color="white" stop-opacity="0"/>
</linearGradient>
<linearGradient id="paint36_linear_1369_821" x1="219.35" y1="375.18" x2="219.35" y2="-176.315" gradientUnits="userSpaceOnUse">
<stop stop-color="#85A8FF"/>
<stop offset="1" stop-color="white" stop-opacity="0"/>
</linearGradient>
<linearGradient id="paint37_linear_1369_821" x1="186.371" y1="379.424" x2="186.371" y2="-180.606" gradientUnits="userSpaceOnUse">
<stop stop-color="#85A8FF"/>
<stop offset="1" stop-color="white" stop-opacity="0"/>
</linearGradient>
<linearGradient id="paint38_linear_1369_821" x1="150.815" y1="383.666" x2="150.815" y2="-184.849" gradientUnits="userSpaceOnUse">
<stop stop-color="#85A8FF"/>
<stop offset="1" stop-color="white" stop-opacity="0"/>
</linearGradient>
<linearGradient id="paint39_linear_1369_821" x1="113.351" y1="387.861" x2="113.351" y2="-189.044" gradientUnits="userSpaceOnUse">
<stop stop-color="#85A8FF"/>
<stop offset="1" stop-color="white" stop-opacity="0"/>
</linearGradient>
<linearGradient id="paint40_linear_1369_821" x1="76.2553" y1="392.105" x2="76.2554" y2="-193.286" gradientUnits="userSpaceOnUse">
<stop stop-color="#85A8FF"/>
<stop offset="1" stop-color="white" stop-opacity="0"/>
</linearGradient>
<linearGradient id="paint41_linear_1369_821" x1="40.0046" y1="396.347" x2="40.0046" y2="-197.578" gradientUnits="userSpaceOnUse">
<stop stop-color="#85A8FF"/>
<stop offset="1" stop-color="white" stop-opacity="0"/>
</linearGradient>
<linearGradient id="paint42_linear_1369_821" x1="3.41029" y1="400.59" x2="3.41035" y2="-201.773" gradientUnits="userSpaceOnUse">
<stop stop-color="#85A8FF"/>
<stop offset="1" stop-color="white" stop-opacity="0"/>
</linearGradient>
<clipPath id="clip0_1369_821">
<rect width="1240" height="200" fill="white"/>
</clipPath>
</defs>
</svg>
