<svg width="14" height="13" viewBox="0 0 14 13" fill="none" xmlns="http://www.w3.org/2000/svg">
<path fill-rule="evenodd" clip-rule="evenodd" d="M10.4737 3.5C10.4737 5.433 8.91848 7 7 7C5.08153 7 3.5263 5.433 3.5263 3.5C3.5263 1.567 5.08153 0 7 0C8.91848 0 10.4737 1.567 10.4737 3.5ZM8.48873 3.5C8.48873 4.32843 7.82221 5 7 5C6.1778 5 5.51127 4.32843 5.51127 3.5C5.51127 2.67157 6.1778 2 7 2C7.82221 2 8.48873 2.67157 8.48873 3.5Z" fill="#5BC4BE"/>
<path d="M11.9876 12.2616C12.1756 12.6862 12.5718 13 13.0332 13C13.6851 13 14.1761 12.3939 13.9397 11.7817C12.8592 8.98333 10.1595 7 7 7C3.84053 7 1.14081 8.98333 0.0603107 11.7817C-0.176061 12.3939 0.314864 13 0.966809 13C1.42824 13 1.82437 12.6862 2.01235 12.2616C2.86327 10.3396 4.77637 9 7 9C9.22363 9 11.1367 10.3396 11.9876 12.2616Z" fill="#5BC4BE"/>
</svg>
