<svg width="13" height="17" viewBox="0 0 13 17" fill="none" xmlns="http://www.w3.org/2000/svg">
<path fill-rule="evenodd" clip-rule="evenodd" d="M2.4874 12.3716C3.72446 14.1221 5.02933 15.5805 5.34607 15.9171C5.53731 16.1561 5.82295 16.2438 6.0875 16.2438C6.35674 16.2438 6.65535 16.1513 6.84471 15.8677L6.85211 15.8594C7.17482 15.4992 8.45559 14.0697 9.67506 12.3571C10.3048 11.4727 10.9245 10.504 11.3883 9.56145C11.8477 8.62776 12.175 7.67842 12.175 6.84385C12.175 3.49937 9.46609 0.756348 6.0875 0.756348C2.70891 0.756348 0 3.49937 0 6.84385C0 7.6777 0.324867 8.62855 0.7817 9.56511C1.24286 10.5105 1.85951 11.4831 2.4874 12.3716ZM6.525 15.6251L6.55363 15.5931C6.54304 15.6049 6.53349 15.6156 6.525 15.6251ZM2.01875 6.84385C2.01875 4.59601 3.83966 2.7751 6.0875 2.7751C8.33534 2.7751 10.1562 4.59601 10.1562 6.84385C10.1562 7.23321 10.0036 7.76163 9.71409 8.39354C9.42872 9.01637 9.02832 9.70188 8.57357 10.3937C7.77734 11.6049 6.83064 12.8109 6.0875 13.6954C5.34436 12.8109 4.39766 11.6049 3.60143 10.3937C3.14668 9.70188 2.74628 9.01637 2.46091 8.39354C2.17139 7.76163 2.01875 7.23321 2.01875 6.84385Z" fill="#5BC4BE"/>
</svg>
